solid OpenSCAD_Model
  facet normal -1 -0 -0
    outer loop
      vertex 0 0 0
      vertex 0 0 27
      vertex 0 45 0
    endloop
  endfacet
  facet normal -1 0 0
    outer loop
      vertex 0 45 0
      vertex 0 0 27
      vertex 0 45 27
    endloop
  endfacet
  facet normal 0 -1 0
    outer loop
      vertex 8.91241 0 6.90725
      vertex 0 0 0
      vertex 25 0 0
    endloop
  endfacet
  facet normal 0 -1 0
    outer loop
      vertex 25 0 27
      vertex 0 0 27
      vertex 25 0 0
    endloop
  endfacet
  facet normal 0 -1 0
    outer loop
      vertex 0 0 27
      vertex 0 0 0
      vertex 4.23772 0 9.04211
    endloop
  endfacet
  facet normal 0 -1 0
    outer loop
      vertex 0 0 27
      vertex 4.23772 0 9.04211
      vertex 4.23772 0 10.9579
    endloop
  endfacet
  facet normal 0 -1 0
    outer loop
      vertex 0 0 27
      vertex 4.23772 0 10.9579
      vertex 5.27347 0 12.5695
    endloop
  endfacet
  facet normal 0 -1 0
    outer loop
      vertex 10.9 0 10
      vertex 10.3603 0 8.16182
      vertex 25 0 0
    endloop
  endfacet
  facet normal 0 -1 0
    outer loop
      vertex 0 0 27
      vertex 5.27347 0 12.5695
      vertex 7.01613 0 13.3654
    endloop
  endfacet
  facet normal 0 -1 0
    outer loop
      vertex 0 0 27
      vertex 8.91241 0 13.0927
      vertex 25 0 0
    endloop
  endfacet
  facet normal 0 -1 0
    outer loop
      vertex 0 0 27
      vertex 7.01613 0 13.3654
      vertex 8.91241 0 13.0927
    endloop
  endfacet
  facet normal 0 -1 0
    outer loop
      vertex 8.91241 0 13.0927
      vertex 10.3603 0 11.8382
      vertex 25 0 0
    endloop
  endfacet
  facet normal -0 -1 0
    outer loop
      vertex 7.01613 0 6.63461
      vertex 0 0 0
      vertex 8.91241 0 6.90725
    endloop
  endfacet
  facet normal 0 -1 0
    outer loop
      vertex 5.27347 0 7.43045
      vertex 0 0 0
      vertex 7.01613 0 6.63461
    endloop
  endfacet
  facet normal 0 -1 0
    outer loop
      vertex 4.23772 0 9.04211
      vertex 0 0 0
      vertex 5.27347 0 7.43045
    endloop
  endfacet
  facet normal 0 -1 0
    outer loop
      vertex 10.3603 0 11.8382
      vertex 10.9 0 10
      vertex 25 0 0
    endloop
  endfacet
  facet normal 0 -1 0
    outer loop
      vertex 10.3603 0 8.16182
      vertex 8.91241 0 6.90725
      vertex 25 0 0
    endloop
  endfacet
  facet normal -0 -0 -1
    outer loop
      vertex 0 0 0
      vertex 0 45 0
      vertex 25 0 0
    endloop
  endfacet
  facet normal 0 -0 -1
    outer loop
      vertex 15.1 41.6569 0
      vertex 0 45 0
      vertex 25 45 0
    endloop
  endfacet
  facet normal 0 0 -1
    outer loop
      vertex 25 0 0
      vertex 0 45 0
      vertex 12.7 37.5 0
    endloop
  endfacet
  facet normal 0 0 -1
    outer loop
      vertex 25 0 0
      vertex 12.7 37.5 0
      vertex 15.1 33.3431 0
    endloop
  endfacet
  facet normal 0 0 -1
    outer loop
      vertex 25 0 0
      vertex 15.1 33.3431 0
      vertex 19.9 33.3431 0
    endloop
  endfacet
  facet normal 0 0 -1
    outer loop
      vertex 25 0 0
      vertex 19.9 33.3431 0
      vertex 22.3 37.5 0
    endloop
  endfacet
  facet normal 0 0 -1
    outer loop
      vertex 25 0 0
      vertex 22.3 37.5 0
      vertex 25 45 0
    endloop
  endfacet
  facet normal -0 0 -1
    outer loop
      vertex 15.1 41.6569 0
      vertex 25 45 0
      vertex 19.9 41.6569 0
    endloop
  endfacet
  facet normal 0 -0 -1
    outer loop
      vertex 12.7 37.5 0
      vertex 0 45 0
      vertex 15.1 41.6569 0
    endloop
  endfacet
  facet normal -0 0 -1
    outer loop
      vertex 19.9 41.6569 0
      vertex 25 45 0
      vertex 22.3 37.5 0
    endloop
  endfacet
  facet normal 0 1 0
    outer loop
      vertex 11.0355 45 13.5355
      vertex 0 45 27
      vertex 25 45 0
    endloop
  endfacet
  facet normal 0 1 0
    outer loop
      vertex 25 45 0
      vertex 0 45 27
      vertex 25 45 27
    endloop
  endfacet
  facet normal 0 1 0
    outer loop
      vertex 0 45 0
      vertex 0 45 27
      vertex 2.5 45 10
    endloop
  endfacet
  facet normal 0 1 0
    outer loop
      vertex 0 45 0
      vertex 2.5 45 10
      vertex 2.8806 45 8.08658
    endloop
  endfacet
  facet normal 0 1 0
    outer loop
      vertex 0 45 0
      vertex 2.8806 45 8.08658
      vertex 3.96447 45 6.46447
    endloop
  endfacet
  facet normal 0 1 0
    outer loop
      vertex 0 45 0
      vertex 3.96447 45 6.46447
      vertex 5.58658 45 5.3806
    endloop
  endfacet
  facet normal 0 1 0
    outer loop
      vertex 0 45 0
      vertex 5.58658 45 5.3806
      vertex 25 45 0
    endloop
  endfacet
  facet normal 0 1 0
    outer loop
      vertex 5.58658 45 5.3806
      vertex 7.5 45 5
      vertex 25 45 0
    endloop
  endfacet
  facet normal 0 1 -0
    outer loop
      vertex 11.0355 45 6.46447
      vertex 25 45 0
      vertex 9.41342 45 5.3806
    endloop
  endfacet
  facet normal 0 1 0
    outer loop
      vertex 9.41342 45 14.6194
      vertex 0 45 27
      vertex 11.0355 45 13.5355
    endloop
  endfacet
  facet normal 0 1 0
    outer loop
      vertex 5.58658 45 14.6194
      vertex 0 45 27
      vertex 7.5 45 15
    endloop
  endfacet
  facet normal 0 1 0
    outer loop
      vertex 11.0355 45 6.46447
      vertex 12.1194 45 8.08658
      vertex 25 45 0
    endloop
  endfacet
  facet normal 0 1 0
    outer loop
      vertex 12.1194 45 8.08658
      vertex 12.5 45 10
      vertex 25 45 0
    endloop
  endfacet
  facet normal 0 1 0
    outer loop
      vertex 7.5 45 15
      vertex 0 45 27
      vertex 9.41342 45 14.6194
    endloop
  endfacet
  facet normal 0 1 0
    outer loop
      vertex 12.5 45 10
      vertex 12.1194 45 11.9134
      vertex 25 45 0
    endloop
  endfacet
  facet normal 0 1 0
    outer loop
      vertex 12.1194 45 11.9134
      vertex 11.0355 45 13.5355
      vertex 25 45 0
    endloop
  endfacet
  facet normal 0 1 0
    outer loop
      vertex 3.96447 45 13.5355
      vertex 0 45 27
      vertex 5.58658 45 14.6194
    endloop
  endfacet
  facet normal 0 1 0
    outer loop
      vertex 2.8806 45 11.9134
      vertex 0 45 27
      vertex 3.96447 45 13.5355
    endloop
  endfacet
  facet normal 0 1 0
    outer loop
      vertex 2.5 45 10
      vertex 0 45 27
      vertex 2.8806 45 11.9134
    endloop
  endfacet
  facet normal 0 1 -0
    outer loop
      vertex 9.41342 45 5.3806
      vertex 25 45 0
      vertex 7.5 45 5
    endloop
  endfacet
  facet normal 0 -0 1
    outer loop
      vertex 0 45 27
      vertex 0 0 27
      vertex 25 0 27
    endloop
  endfacet
  facet normal -0 -0 1
    outer loop
      vertex 14.2377 36.5421 27
      vertex 0 45 27
      vertex 25 0 27
    endloop
  endfacet
  facet normal -0 -0 1
    outer loop
      vertex 15.2735 34.9305 27
      vertex 14.2377 36.5421 27
      vertex 25 0 27
    endloop
  endfacet
  facet normal -0 0 1
    outer loop
      vertex 14.2377 38.4579 27
      vertex 0 45 27
      vertex 14.2377 36.5421 27
    endloop
  endfacet
  facet normal -0 0 1
    outer loop
      vertex 15.2735 40.0695 27
      vertex 0 45 27
      vertex 14.2377 38.4579 27
    endloop
  endfacet
  facet normal 0 0 1
    outer loop
      vertex 25 45 27
      vertex 0 45 27
      vertex 15.2735 40.0695 27
    endloop
  endfacet
  facet normal 0 0 1
    outer loop
      vertex 18.9124 40.5927 27
      vertex 20.3603 39.3382 27
      vertex 25 45 27
    endloop
  endfacet
  facet normal 0 0 1
    outer loop
      vertex 25 45 27
      vertex 15.2735 40.0695 27
      vertex 17.0161 40.8654 27
    endloop
  endfacet
  facet normal 0 -0 1
    outer loop
      vertex 20.9 37.5 27
      vertex 20.3603 35.6618 27
      vertex 25 0 27
    endloop
  endfacet
  facet normal 0 0 1
    outer loop
      vertex 25 45 27
      vertex 20.9 37.5 27
      vertex 25 0 27
    endloop
  endfacet
  facet normal 0 0 1
    outer loop
      vertex 25 45 27
      vertex 20.3603 39.3382 27
      vertex 20.9 37.5 27
    endloop
  endfacet
  facet normal 0 -0 1
    outer loop
      vertex 20.3603 35.6618 27
      vertex 18.9124 34.4073 27
      vertex 25 0 27
    endloop
  endfacet
  facet normal 0 -0 1
    outer loop
      vertex 18.9124 34.4073 27
      vertex 17.0161 34.1346 27
      vertex 25 0 27
    endloop
  endfacet
  facet normal -0 -0 1
    outer loop
      vertex 17.0161 34.1346 27
      vertex 15.2735 34.9305 27
      vertex 25 0 27
    endloop
  endfacet
  facet normal 0 0 1
    outer loop
      vertex 17.0161 40.8654 27
      vertex 18.9124 40.5927 27
      vertex 25 45 27
    endloop
  endfacet
  facet normal 1 0 -0
    outer loop
      vertex 25 0 27
      vertex 25 0 0
      vertex 25 45 0
    endloop
  endfacet
  facet normal 1 0 0
    outer loop
      vertex 25 45 27
      vertex 25 0 27
      vertex 25 45 0
    endloop
  endfacet
  facet normal 0.841253 1.50058e-16 0.540641
    outer loop
      vertex 5.27347 0 7.43045
      vertex 5.27347 6.4 7.43045
      vertex 4.23772 6.4 9.04211
    endloop
  endfacet
  facet normal 0.841253 1.50058e-16 0.540641
    outer loop
      vertex 4.23772 0 9.04211
      vertex 5.27347 0 7.43045
      vertex 4.23772 6.4 9.04211
    endloop
  endfacet
  facet normal 1 0 0
    outer loop
      vertex 4.23772 6.4 9.04211
      vertex 4.23772 6.4 10.9579
      vertex 4.23772 0 10.9579
    endloop
  endfacet
  facet normal 1 0 0
    outer loop
      vertex 4.23772 0 9.04211
      vertex 4.23772 6.4 9.04211
      vertex 4.23772 0 10.9579
    endloop
  endfacet
  facet normal 0.415415 2.52474e-16 0.909632
    outer loop
      vertex 7.01613 0 6.63461
      vertex 7.01613 6.4 6.63461
      vertex 5.27347 6.4 7.43045
    endloop
  endfacet
  facet normal 0.415415 2.52474e-16 0.909632
    outer loop
      vertex 5.27347 0 7.43045
      vertex 7.01613 0 6.63461
      vertex 5.27347 6.4 7.43045
    endloop
  endfacet
  facet normal -0.142315 2.74731e-16 0.989821
    outer loop
      vertex 8.91241 0 6.90725
      vertex 8.91241 6.4 6.90725
      vertex 7.01613 6.4 6.63461
    endloop
  endfacet
  facet normal -0.142315 2.74731e-16 0.989821
    outer loop
      vertex 7.01613 0 6.63461
      vertex 8.91241 0 6.90725
      vertex 7.01613 6.4 6.63461
    endloop
  endfacet
  facet normal -0.654861 2.09763e-16 0.75575
    outer loop
      vertex 10.3603 0 8.16182
      vertex 10.3603 6.4 8.16182
      vertex 8.91241 6.4 6.90725
    endloop
  endfacet
  facet normal -0.654861 2.09763e-16 0.75575
    outer loop
      vertex 8.91241 0 6.90725
      vertex 10.3603 0 8.16182
      vertex 8.91241 6.4 6.90725
    endloop
  endfacet
  facet normal -0.959493 0 0.281733
    outer loop
      vertex 10.9 6.4 10
      vertex 10.3603 6.4 8.16182
      vertex 10.9 0 10
    endloop
  endfacet
  facet normal -0.959493 8.1132e-17 0.281733
    outer loop
      vertex 10.9 0 10
      vertex 10.3603 6.4 8.16182
      vertex 10.3603 0 8.16182
    endloop
  endfacet
  facet normal -0.959493 0 -0.281733
    outer loop
      vertex 10.9 6.4 10
      vertex 10.9 0 10
      vertex 10.3603 6.4 11.8382
    endloop
  endfacet
  facet normal -0.959493 0 -0.281733
    outer loop
      vertex 10.3603 6.4 11.8382
      vertex 10.9 0 10
      vertex 10.3603 0 11.8382
    endloop
  endfacet
  facet normal -0.654861 0 -0.75575
    outer loop
      vertex 10.3603 6.4 11.8382
      vertex 10.3603 0 11.8382
      vertex 8.91241 6.4 13.0927
    endloop
  endfacet
  facet normal -0.654861 -2.09763e-16 -0.75575
    outer loop
      vertex 8.91241 6.4 13.0927
      vertex 10.3603 0 11.8382
      vertex 8.91241 0 13.0927
    endloop
  endfacet
  facet normal -0.142315 -2.74731e-16 -0.989821
    outer loop
      vertex 8.91241 6.4 13.0927
      vertex 8.91241 0 13.0927
      vertex 7.01613 6.4 13.3654
    endloop
  endfacet
  facet normal -0.142315 -2.74731e-16 -0.989821
    outer loop
      vertex 7.01613 6.4 13.3654
      vertex 8.91241 0 13.0927
      vertex 7.01613 0 13.3654
    endloop
  endfacet
  facet normal 0.415415 -2.52474e-16 -0.909632
    outer loop
      vertex 7.01613 6.4 13.3654
      vertex 7.01613 0 13.3654
      vertex 5.27347 6.4 12.5695
    endloop
  endfacet
  facet normal 0.415415 -2.52474e-16 -0.909632
    outer loop
      vertex 5.27347 6.4 12.5695
      vertex 7.01613 0 13.3654
      vertex 5.27347 0 12.5695
    endloop
  endfacet
  facet normal 0.841253 -1.62264e-16 -0.540641
    outer loop
      vertex 4.23772 6.4 10.9579
      vertex 5.27347 6.4 12.5695
      vertex 5.27347 0 12.5695
    endloop
  endfacet
  facet normal 0.841253 0 -0.540641
    outer loop
      vertex 4.23772 0 10.9579
      vertex 4.23772 6.4 10.9579
      vertex 5.27347 0 12.5695
    endloop
  endfacet
  facet normal 0.866025 0.5 -2.22478e-16
    outer loop
      vertex 12.7 37.5 17.1
      vertex 15.1 33.3431 17.1
      vertex 15.1 33.3431 0
    endloop
  endfacet
  facet normal 0.866025 0.5 0
    outer loop
      vertex 12.7 37.5 0
      vertex 12.7 37.5 17.1
      vertex 15.1 33.3431 0
    endloop
  endfacet
  facet normal 0.866025 -0.5 0
    outer loop
      vertex 15.1 41.6569 0
      vertex 15.1 41.6569 17.1
      vertex 12.7 37.5 17.1
    endloop
  endfacet
  facet normal 0.866025 -0.5 0
    outer loop
      vertex 12.7 37.5 0
      vertex 15.1 41.6569 0
      vertex 12.7 37.5 17.1
    endloop
  endfacet
  facet normal 0 -1 0
    outer loop
      vertex 19.9 41.6569 0
      vertex 19.9 41.6569 17.1
      vertex 15.1 41.6569 17.1
    endloop
  endfacet
  facet normal -0 -1 -0
    outer loop
      vertex 15.1 41.6569 0
      vertex 19.9 41.6569 0
      vertex 15.1 41.6569 17.1
    endloop
  endfacet
  facet normal -0.866025 -0.5 0
    outer loop
      vertex 22.3 37.5 17.1
      vertex 19.9 41.6569 17.1
      vertex 22.3 37.5 0
    endloop
  endfacet
  facet normal -0.866025 -0.5 0
    outer loop
      vertex 22.3 37.5 0
      vertex 19.9 41.6569 17.1
      vertex 19.9 41.6569 0
    endloop
  endfacet
  facet normal -0.866025 0.5 0
    outer loop
      vertex 22.3 37.5 17.1
      vertex 22.3 37.5 0
      vertex 19.9 33.3431 17.1
    endloop
  endfacet
  facet normal -0.866025 0.5 -2.07761e-16
    outer loop
      vertex 19.9 33.3431 17.1
      vertex 22.3 37.5 0
      vertex 19.9 33.3431 0
    endloop
  endfacet
  facet normal 0 1 -4.15522e-16
    outer loop
      vertex 19.9 33.3431 17.1
      vertex 19.9 33.3431 0
      vertex 15.1 33.3431 17.1
    endloop
  endfacet
  facet normal 0 1 -4.15522e-16
    outer loop
      vertex 15.1 33.3431 17.1
      vertex 19.9 33.3431 0
      vertex 15.1 33.3431 0
    endloop
  endfacet
  facet normal 0.980785 -4.50486e-17 -0.19509
    outer loop
      vertex 2.5 45 10
      vertex 2.8806 45 11.9134
      vertex 2.8806 6.4 11.9134
    endloop
  endfacet
  facet normal 0.980785 -4.48899e-17 -0.19509
    outer loop
      vertex 2.5 6.4 10
      vertex 2.5 45 10
      vertex 2.8806 6.4 11.9134
    endloop
  endfacet
  facet normal 0.980785 4.48899e-17 0.19509
    outer loop
      vertex 2.8806 6.4 8.08658
      vertex 2.8806 45 8.08658
      vertex 2.5 45 10
    endloop
  endfacet
  facet normal 0.980785 4.48899e-17 0.19509
    outer loop
      vertex 2.5 6.4 10
      vertex 2.8806 6.4 8.08658
      vertex 2.5 45 10
    endloop
  endfacet
  facet normal 0.83147 -1.02968e-16 -0.55557
    outer loop
      vertex 2.8806 45 11.9134
      vertex 3.96447 45 13.5355
      vertex 3.96447 6.4 13.5355
    endloop
  endfacet
  facet normal 0.83147 -1.27836e-16 -0.55557
    outer loop
      vertex 2.8806 6.4 11.9134
      vertex 2.8806 45 11.9134
      vertex 3.96447 6.4 13.5355
    endloop
  endfacet
  facet normal 0.55557 -1.9132e-16 -0.83147
    outer loop
      vertex 5.58658 45 14.6194
      vertex 5.58658 6.4 14.6194
      vertex 3.96447 45 13.5355
    endloop
  endfacet
  facet normal 0.55557 -1.53056e-16 -0.83147
    outer loop
      vertex 3.96447 45 13.5355
      vertex 5.58658 6.4 14.6194
      vertex 3.96447 6.4 13.5355
    endloop
  endfacet
  facet normal 0.19509 -2.25677e-16 -0.980785
    outer loop
      vertex 7.5 45 15
      vertex 7.5 6.4 15
      vertex 5.58658 45 14.6194
    endloop
  endfacet
  facet normal 0.19509 -2.25677e-16 -0.980785
    outer loop
      vertex 5.58658 45 14.6194
      vertex 7.5 6.4 15
      vertex 5.58658 6.4 14.6194
    endloop
  endfacet
  facet normal -0.19509 -2.25677e-16 -0.980785
    outer loop
      vertex 9.41342 45 14.6194
      vertex 9.41342 6.4 14.6194
      vertex 7.5 45 15
    endloop
  endfacet
  facet normal -0.19509 -2.25677e-16 -0.980785
    outer loop
      vertex 7.5 45 15
      vertex 9.41342 6.4 14.6194
      vertex 7.5 6.4 15
    endloop
  endfacet
  facet normal -0.55557 -1.53056e-16 -0.83147
    outer loop
      vertex 11.0355 45 13.5355
      vertex 11.0355 6.4 13.5355
      vertex 9.41342 45 14.6194
    endloop
  endfacet
  facet normal -0.55557 -1.9132e-16 -0.83147
    outer loop
      vertex 9.41342 45 14.6194
      vertex 11.0355 6.4 13.5355
      vertex 9.41342 6.4 14.6194
    endloop
  endfacet
  facet normal -0.83147 -1.27836e-16 -0.55557
    outer loop
      vertex 12.1194 45 11.9134
      vertex 12.1194 6.4 11.9134
      vertex 11.0355 45 13.5355
    endloop
  endfacet
  facet normal -0.83147 -1.02269e-16 -0.55557
    outer loop
      vertex 11.0355 45 13.5355
      vertex 12.1194 6.4 11.9134
      vertex 11.0355 6.4 13.5355
    endloop
  endfacet
  facet normal -0.980785 -4.48899e-17 -0.19509
    outer loop
      vertex 12.5 45 10
      vertex 12.5 6.4 10
      vertex 12.1194 45 11.9134
    endloop
  endfacet
  facet normal -0.980785 -4.48899e-17 -0.19509
    outer loop
      vertex 12.1194 45 11.9134
      vertex 12.5 6.4 10
      vertex 12.1194 6.4 11.9134
    endloop
  endfacet
  facet normal -0.980785 4.48899e-17 0.19509
    outer loop
      vertex 12.5 45 10
      vertex 12.1194 45 8.08658
      vertex 12.5 6.4 10
    endloop
  endfacet
  facet normal -0.980785 4.50486e-17 0.19509
    outer loop
      vertex 12.5 6.4 10
      vertex 12.1194 45 8.08658
      vertex 12.1194 6.4 8.08658
    endloop
  endfacet
  facet normal -0.83147 1.27836e-16 0.55557
    outer loop
      vertex 12.1194 45 8.08658
      vertex 11.0355 45 6.46447
      vertex 12.1194 6.4 8.08658
    endloop
  endfacet
  facet normal -0.83147 1.15839e-16 0.55557
    outer loop
      vertex 12.1194 6.4 8.08658
      vertex 11.0355 45 6.46447
      vertex 11.0355 6.4 6.46447
    endloop
  endfacet
  facet normal -0.55557 1.72188e-16 0.83147
    outer loop
      vertex 11.0355 6.4 6.46447
      vertex 11.0355 45 6.46447
      vertex 9.41342 45 5.3806
    endloop
  endfacet
  facet normal -0.55557 1.9132e-16 0.83147
    outer loop
      vertex 9.41342 6.4 5.3806
      vertex 11.0355 6.4 6.46447
      vertex 9.41342 45 5.3806
    endloop
  endfacet
  facet normal -0.19509 2.25677e-16 0.980785
    outer loop
      vertex 9.41342 6.4 5.3806
      vertex 9.41342 45 5.3806
      vertex 7.5 45 5
    endloop
  endfacet
  facet normal -0.19509 2.25677e-16 0.980785
    outer loop
      vertex 7.5 6.4 5
      vertex 9.41342 6.4 5.3806
      vertex 7.5 45 5
    endloop
  endfacet
  facet normal 0.19509 2.25677e-16 0.980785
    outer loop
      vertex 7.5 6.4 5
      vertex 7.5 45 5
      vertex 5.58658 45 5.3806
    endloop
  endfacet
  facet normal 0.19509 2.25677e-16 0.980785
    outer loop
      vertex 5.58658 6.4 5.3806
      vertex 7.5 6.4 5
      vertex 5.58658 45 5.3806
    endloop
  endfacet
  facet normal 0.55557 1.9132e-16 0.83147
    outer loop
      vertex 5.58658 6.4 5.3806
      vertex 5.58658 45 5.3806
      vertex 3.96447 45 6.46447
    endloop
  endfacet
  facet normal 0.55557 1.72188e-16 0.83147
    outer loop
      vertex 3.96447 6.4 6.46447
      vertex 5.58658 6.4 5.3806
      vertex 3.96447 45 6.46447
    endloop
  endfacet
  facet normal 0.83147 1.15052e-16 0.55557
    outer loop
      vertex 3.96447 6.4 6.46447
      vertex 3.96447 45 6.46447
      vertex 2.8806 45 8.08658
    endloop
  endfacet
  facet normal 0.83147 1.27836e-16 0.55557
    outer loop
      vertex 2.8806 6.4 8.08658
      vertex 3.96447 6.4 6.46447
      vertex 2.8806 45 8.08658
    endloop
  endfacet
  facet normal 0.841253 0.540641 0
    outer loop
      vertex 14.2377 36.5421 27
      vertex 15.2735 34.9305 27
      vertex 15.2735 34.9305 17.1
    endloop
  endfacet
  facet normal 0.841253 0.540641 0
    outer loop
      vertex 14.2377 36.5421 17.1
      vertex 14.2377 36.5421 27
      vertex 15.2735 34.9305 17.1
    endloop
  endfacet
  facet normal 1 0 0
    outer loop
      vertex 14.2377 38.4579 17.1
      vertex 14.2377 38.4579 27
      vertex 14.2377 36.5421 27
    endloop
  endfacet
  facet normal 1 0 0
    outer loop
      vertex 14.2377 36.5421 17.1
      vertex 14.2377 38.4579 17.1
      vertex 14.2377 36.5421 27
    endloop
  endfacet
  facet normal 0.415415 0.909632 -0
    outer loop
      vertex 17.0161 34.1346 27
      vertex 17.0161 34.1346 17.1
      vertex 15.2735 34.9305 27
    endloop
  endfacet
  facet normal 0.415415 0.909632 -0
    outer loop
      vertex 15.2735 34.9305 27
      vertex 17.0161 34.1346 17.1
      vertex 15.2735 34.9305 17.1
    endloop
  endfacet
  facet normal -0.142315 0.989821 0
    outer loop
      vertex 18.9124 34.4073 27
      vertex 18.9124 34.4073 17.1
      vertex 17.0161 34.1346 27
    endloop
  endfacet
  facet normal -0.142315 0.989821 0
    outer loop
      vertex 17.0161 34.1346 27
      vertex 18.9124 34.4073 17.1
      vertex 17.0161 34.1346 17.1
    endloop
  endfacet
  facet normal -0.654861 0.75575 0
    outer loop
      vertex 20.3603 35.6618 27
      vertex 20.3603 35.6618 17.1
      vertex 18.9124 34.4073 27
    endloop
  endfacet
  facet normal -0.654861 0.75575 0
    outer loop
      vertex 18.9124 34.4073 27
      vertex 20.3603 35.6618 17.1
      vertex 18.9124 34.4073 17.1
    endloop
  endfacet
  facet normal -0.959493 0.281733 0
    outer loop
      vertex 20.9 37.5 27
      vertex 20.9 37.5 17.1
      vertex 20.3603 35.6618 27
    endloop
  endfacet
  facet normal -0.959493 0.281733 0
    outer loop
      vertex 20.3603 35.6618 27
      vertex 20.9 37.5 17.1
      vertex 20.3603 35.6618 17.1
    endloop
  endfacet
  facet normal -0.959493 -0.281733 0
    outer loop
      vertex 20.9 37.5 27
      vertex 20.3603 39.3382 27
      vertex 20.9 37.5 17.1
    endloop
  endfacet
  facet normal -0.959493 -0.281733 0
    outer loop
      vertex 20.9 37.5 17.1
      vertex 20.3603 39.3382 27
      vertex 20.3603 39.3382 17.1
    endloop
  endfacet
  facet normal -0.654861 -0.75575 -0
    outer loop
      vertex 20.3603 39.3382 17.1
      vertex 20.3603 39.3382 27
      vertex 18.9124 40.5927 27
    endloop
  endfacet
  facet normal -0.654861 -0.75575 -0
    outer loop
      vertex 18.9124 40.5927 17.1
      vertex 20.3603 39.3382 17.1
      vertex 18.9124 40.5927 27
    endloop
  endfacet
  facet normal -0.142315 -0.989821 -0
    outer loop
      vertex 18.9124 40.5927 17.1
      vertex 18.9124 40.5927 27
      vertex 17.0161 40.8654 27
    endloop
  endfacet
  facet normal -0.142315 -0.989821 -0
    outer loop
      vertex 17.0161 40.8654 17.1
      vertex 18.9124 40.5927 17.1
      vertex 17.0161 40.8654 27
    endloop
  endfacet
  facet normal 0.415415 -0.909632 0
    outer loop
      vertex 17.0161 40.8654 17.1
      vertex 17.0161 40.8654 27
      vertex 15.2735 40.0695 27
    endloop
  endfacet
  facet normal 0.415415 -0.909632 0
    outer loop
      vertex 15.2735 40.0695 17.1
      vertex 17.0161 40.8654 17.1
      vertex 15.2735 40.0695 27
    endloop
  endfacet
  facet normal 0.841253 -0.540641 0
    outer loop
      vertex 15.2735 40.0695 17.1
      vertex 15.2735 40.0695 27
      vertex 14.2377 38.4579 27
    endloop
  endfacet
  facet normal 0.841253 -0.540641 0
    outer loop
      vertex 14.2377 38.4579 17.1
      vertex 15.2735 40.0695 17.1
      vertex 14.2377 38.4579 27
    endloop
  endfacet
  facet normal -1.16681e-15 1 -2.32092e-16
    outer loop
      vertex 2.5 6.4 10
      vertex 2.8806 6.4 11.9134
      vertex 2.8806 6.4 8.08658
    endloop
  endfacet
  facet normal 3.47351e-16 1 -2.32092e-16
    outer loop
      vertex 2.8806 6.4 8.08658
      vertex 2.8806 6.4 11.9134
      vertex 3.96447 6.4 13.5355
    endloop
  endfacet
  facet normal 1.25607e-16 1 -1.87985e-16
    outer loop
      vertex 2.8806 6.4 8.08658
      vertex 3.96447 6.4 13.5355
      vertex 5.58658 6.4 14.6194
    endloop
  endfacet
  facet normal 0 1 0
    outer loop
      vertex 5.27347 6.4 12.5695
      vertex 5.58658 6.4 14.6194
      vertex 7.5 6.4 15
    endloop
  endfacet
  facet normal 0 1 0
    outer loop
      vertex 7.01613 6.4 13.3654
      vertex 7.5 6.4 15
      vertex 9.41342 6.4 14.6194
    endloop
  endfacet
  facet normal 0 1 0
    outer loop
      vertex 8.91241 6.4 13.0927
      vertex 9.41342 6.4 14.6194
      vertex 11.0355 6.4 13.5355
    endloop
  endfacet
  facet normal 0 1 0
    outer loop
      vertex 10.3603 6.4 11.8382
      vertex 11.0355 6.4 13.5355
      vertex 12.1194 6.4 11.9134
    endloop
  endfacet
  facet normal 0 1 -4.64184e-16
    outer loop
      vertex 10.9 6.4 10
      vertex 12.1194 6.4 11.9134
      vertex 12.5 6.4 10
    endloop
  endfacet
  facet normal 0 1 0
    outer loop
      vertex 10.3603 6.4 8.16182
      vertex 12.5 6.4 10
      vertex 12.1194 6.4 8.08658
    endloop
  endfacet
  facet normal -1.00225e-16 1 -4.80574e-16
    outer loop
      vertex 8.91241 6.4 6.90725
      vertex 12.1194 6.4 8.08658
      vertex 11.0355 6.4 6.46447
    endloop
  endfacet
  facet normal 0 1 0
    outer loop
      vertex 7.01613 6.4 6.63461
      vertex 11.0355 6.4 6.46447
      vertex 9.41342 6.4 5.3806
    endloop
  endfacet
  facet normal 4.41074e-17 1 -2.21743e-16
    outer loop
      vertex 2.8806 6.4 8.08658
      vertex 9.41342 6.4 5.3806
      vertex 7.5 6.4 5
    endloop
  endfacet
  facet normal -8.14998e-17 1 -4.09728e-16
    outer loop
      vertex 2.8806 6.4 8.08658
      vertex 7.5 6.4 5
      vertex 5.58658 6.4 5.3806
    endloop
  endfacet
  facet normal -6.60943e-16 1 -9.89171e-16
    outer loop
      vertex 2.8806 6.4 8.08658
      vertex 5.58658 6.4 5.3806
      vertex 3.96447 6.4 6.46447
    endloop
  endfacet
  facet normal 2.3266e-15 1 -1.09966e-15
    outer loop
      vertex 2.8806 6.4 8.08658
      vertex 5.58658 6.4 14.6194
      vertex 4.23772 6.4 10.9579
    endloop
  endfacet
  facet normal 2.6714e-16 1 -3.79416e-16
    outer loop
      vertex 5.27347 6.4 7.43045
      vertex 2.8806 6.4 8.08658
      vertex 4.23772 6.4 9.04211
    endloop
  endfacet
  facet normal 0 1 -0
    outer loop
      vertex 8.91241 6.4 6.90725
      vertex 11.0355 6.4 6.46447
      vertex 7.01613 6.4 6.63461
    endloop
  endfacet
  facet normal 8.31841e-16 1 1.68001e-15
    outer loop
      vertex 2.8806 6.4 8.08658
      vertex 5.27347 6.4 7.43045
      vertex 9.41342 6.4 5.3806
    endloop
  endfacet
  facet normal 0 1 0
    outer loop
      vertex 5.27347 6.4 7.43045
      vertex 7.01613 6.4 6.63461
      vertex 9.41342 6.4 5.3806
    endloop
  endfacet
  facet normal 0 1 0
    outer loop
      vertex 7.01613 6.4 13.3654
      vertex 9.41342 6.4 14.6194
      vertex 8.91241 6.4 13.0927
    endloop
  endfacet
  facet normal 0 1 0
    outer loop
      vertex 8.91241 6.4 13.0927
      vertex 11.0355 6.4 13.5355
      vertex 10.3603 6.4 11.8382
    endloop
  endfacet
  facet normal -1.12488e-15 1 1.71823e-16
    outer loop
      vertex 4.23772 6.4 10.9579
      vertex 5.58658 6.4 14.6194
      vertex 5.27347 6.4 12.5695
    endloop
  endfacet
  facet normal -0 1 0
    outer loop
      vertex 4.23772 6.4 9.04211
      vertex 2.8806 6.4 8.08658
      vertex 4.23772 6.4 10.9579
    endloop
  endfacet
  facet normal 0 1 0
    outer loop
      vertex 5.27347 6.4 12.5695
      vertex 7.5 6.4 15
      vertex 7.01613 6.4 13.3654
    endloop
  endfacet
  facet normal 2.04094e-17 1 -4.77191e-16
    outer loop
      vertex 10.3603 6.4 11.8382
      vertex 12.1194 6.4 11.9134
      vertex 10.9 6.4 10
    endloop
  endfacet
  facet normal -2.88549e-17 1 -6.74654e-16
    outer loop
      vertex 10.3603 6.4 8.16182
      vertex 12.1194 6.4 8.08658
      vertex 8.91241 6.4 6.90725
    endloop
  endfacet
  facet normal 0 1 -0
    outer loop
      vertex 10.9 6.4 10
      vertex 12.5 6.4 10
      vertex 10.3603 6.4 8.16182
    endloop
  endfacet
  facet normal 0 0 -1
    outer loop
      vertex 15.2735 34.9305 17.1
      vertex 15.1 33.3431 17.1
      vertex 14.2377 36.5421 17.1
    endloop
  endfacet
  facet normal 0 -0 -1
    outer loop
      vertex 18.9124 40.5927 17.1
      vertex 15.1 41.6569 17.1
      vertex 19.9 41.6569 17.1
    endloop
  endfacet
  facet normal -0 -8.5465e-16 -1
    outer loop
      vertex 20.9 37.5 17.1
      vertex 19.9 41.6569 17.1
      vertex 22.3 37.5 17.1
    endloop
  endfacet
  facet normal -0 0 -1
    outer loop
      vertex 20.3603 35.6618 17.1
      vertex 22.3 37.5 17.1
      vertex 19.9 33.3431 17.1
    endloop
  endfacet
  facet normal -2.77657e-15 7.48406e-16 -1
    outer loop
      vertex 12.7 37.5 17.1
      vertex 15.1 41.6569 17.1
      vertex 14.2377 38.4579 17.1
    endloop
  endfacet
  facet normal -1.15519e-15 -1.85445e-15 -1
    outer loop
      vertex 12.7 37.5 17.1
      vertex 14.2377 38.4579 17.1
      vertex 14.2377 36.5421 17.1
    endloop
  endfacet
  facet normal 0 0 -1
    outer loop
      vertex 12.7 37.5 17.1
      vertex 14.2377 36.5421 17.1
      vertex 15.1 33.3431 17.1
    endloop
  endfacet
  facet normal 0 0 -1
    outer loop
      vertex 20.9 37.5 17.1
      vertex 22.3 37.5 17.1
      vertex 20.3603 35.6618 17.1
    endloop
  endfacet
  facet normal -0 0 -1
    outer loop
      vertex 15.1 33.3431 17.1
      vertex 17.0161 34.1346 17.1
      vertex 19.9 33.3431 17.1
    endloop
  endfacet
  facet normal -0 0 -1
    outer loop
      vertex 17.0161 34.1346 17.1
      vertex 18.9124 34.4073 17.1
      vertex 19.9 33.3431 17.1
    endloop
  endfacet
  facet normal -0 0 -1
    outer loop
      vertex 18.9124 34.4073 17.1
      vertex 20.3603 35.6618 17.1
      vertex 19.9 33.3431 17.1
    endloop
  endfacet
  facet normal 2.03168e-14 4.0328e-15 -1
    outer loop
      vertex 20.3603 39.3382 17.1
      vertex 19.9 41.6569 17.1
      vertex 20.9 37.5 17.1
    endloop
  endfacet
  facet normal -0 -0 -1
    outer loop
      vertex 17.0161 40.8654 17.1
      vertex 15.1 41.6569 17.1
      vertex 18.9124 40.5927 17.1
    endloop
  endfacet
  facet normal 0 -0 -1
    outer loop
      vertex 15.2735 40.0695 17.1
      vertex 15.1 41.6569 17.1
      vertex 17.0161 40.8654 17.1
    endloop
  endfacet
  facet normal 0 0 -1
    outer loop
      vertex 14.2377 38.4579 17.1
      vertex 15.1 41.6569 17.1
      vertex 15.2735 40.0695 17.1
    endloop
  endfacet
  facet normal 0 0 -1
    outer loop
      vertex 17.0161 34.1346 17.1
      vertex 15.1 33.3431 17.1
      vertex 15.2735 34.9305 17.1
    endloop
  endfacet
  facet normal -0 0 -1
    outer loop
      vertex 18.9124 40.5927 17.1
      vertex 19.9 41.6569 17.1
      vertex 20.3603 39.3382 17.1
    endloop
  endfacet
endsolid OpenSCAD_Model
