solid OpenSCAD_Model
  facet normal -1 -0 -0
    outer loop
      vertex -16 -15 2.9
      vertex -16 -15 20.9
      vertex -16 15 2.9
    endloop
  endfacet
  facet normal -1 0 0
    outer loop
      vertex -16 15 2.9
      vertex -16 -15 20.9
      vertex -16 15 20.9
    endloop
  endfacet
  facet normal 0 -1 0
    outer loop
      vertex -16 -15 20.9
      vertex -16 -15 2.9
      vertex 24 -15 2.9
    endloop
  endfacet
  facet normal 0 -1 0
    outer loop
      vertex 24 -15 20.9
      vertex -16 -15 20.9
      vertex 24 -15 2.9
    endloop
  endfacet
  facet normal -0 -0 -1
    outer loop
      vertex -4.00935 3.63796 2.9
      vertex -16 15 2.9
      vertex 24 -15 2.9
    endloop
  endfacet
  facet normal 0 -0 -1
    outer loop
      vertex 4.4 7.55885 2.9
      vertex -16 15 2.9
      vertex 24 15 2.9
    endloop
  endfacet
  facet normal 0 -0 -1
    outer loop
      vertex -16 -15 2.9
      vertex -16 15 2.9
      vertex -13.3081 0.992247 2.9
    endloop
  endfacet
  facet normal 0 0 -1
    outer loop
      vertex -16 -15 2.9
      vertex -13.3081 0.992247 2.9
      vertex -13.3081 -0.992247 2.9
    endloop
  endfacet
  facet normal 0 0 -1
    outer loop
      vertex 4.4 -4.44115 2.9
      vertex 24 -15 2.9
      vertex 5.3 -6 2.9
    endloop
  endfacet
  facet normal 0 0 -1
    outer loop
      vertex -16 -15 2.9
      vertex -13.3081 -0.992247 2.9
      vertex -12.5912 -2.84273 2.9
    endloop
  endfacet
  facet normal 0 0 -1
    outer loop
      vertex 4.4 -7.55885 2.9
      vertex 24 -15 2.9
      vertex 2.6 -7.55885 2.9
    endloop
  endfacet
  facet normal 0 0 -1
    outer loop
      vertex -16 -15 2.9
      vertex -12.5912 -2.84273 2.9
      vertex -11.2542 -4.30929 2.9
    endloop
  endfacet
  facet normal 0 0 -1
    outer loop
      vertex -16 -15 2.9
      vertex -11.2542 -4.30929 2.9
      vertex -9.47778 -5.19386 2.9
    endloop
  endfacet
  facet normal -0 0 -1
    outer loop
      vertex -16 -15 2.9
      vertex -9.47778 -5.19386 2.9
      vertex 24 -15 2.9
    endloop
  endfacet
  facet normal 0 0 -1
    outer loop
      vertex -5.59301 -4.83388 2.9
      vertex 24 -15 2.9
      vertex -7.50175 -5.37696 2.9
    endloop
  endfacet
  facet normal 0 0 -1
    outer loop
      vertex 2.6 -7.55885 2.9
      vertex -4.00935 -3.63796 2.9
      vertex 1.7 -6 2.9
    endloop
  endfacet
  facet normal 0 0 -1
    outer loop
      vertex 1.7 -6 2.9
      vertex -4.00935 -3.63796 2.9
      vertex -2.96465 -1.9507 2.9
    endloop
  endfacet
  facet normal 0 -0 -1
    outer loop
      vertex -9.47778 5.19386 2.9
      vertex -16 15 2.9
      vertex -7.50175 5.37696 2.9
    endloop
  endfacet
  facet normal -0 -0 -1
    outer loop
      vertex 4.4 -4.44115 2.9
      vertex -2.6 0 2.9
      vertex 24 -15 2.9
    endloop
  endfacet
  facet normal -0 -0 -1
    outer loop
      vertex -2.6 0 2.9
      vertex -2.96465 1.9507 2.9
      vertex 24 -15 2.9
    endloop
  endfacet
  facet normal -0 -0 -1
    outer loop
      vertex -5.59301 4.83388 2.9
      vertex -16 15 2.9
      vertex -4.00935 3.63796 2.9
    endloop
  endfacet
  facet normal -0 -0 -1
    outer loop
      vertex -2.96465 1.9507 2.9
      vertex -4.00935 3.63796 2.9
      vertex 24 -15 2.9
    endloop
  endfacet
  facet normal 0 0 -1
    outer loop
      vertex 4.4 4.44115 2.9
      vertex 9.19195 -0.992247 2.9
      vertex 2.6 4.44115 2.9
    endloop
  endfacet
  facet normal 0 -0 -1
    outer loop
      vertex 1.7 -6 2.9
      vertex -2.96465 -1.9507 2.9
      vertex 2.6 -4.44115 2.9
    endloop
  endfacet
  facet normal 0 -0 -1
    outer loop
      vertex -11.2542 4.30929 2.9
      vertex -16 15 2.9
      vertex -9.47778 5.19386 2.9
    endloop
  endfacet
  facet normal 0 -0 -1
    outer loop
      vertex -12.5912 2.84273 2.9
      vertex -16 15 2.9
      vertex -11.2542 4.30929 2.9
    endloop
  endfacet
  facet normal 0 -0 -1
    outer loop
      vertex -13.3081 0.992247 2.9
      vertex -16 15 2.9
      vertex -12.5912 2.84273 2.9
    endloop
  endfacet
  facet normal 0 0 -1
    outer loop
      vertex -5.59301 -4.83388 2.9
      vertex 2.6 -7.55885 2.9
      vertex 24 -15 2.9
    endloop
  endfacet
  facet normal -0 -0 -1
    outer loop
      vertex -7.50175 5.37696 2.9
      vertex -16 15 2.9
      vertex -5.59301 4.83388 2.9
    endloop
  endfacet
  facet normal -0 0 -1
    outer loop
      vertex -2.96465 -1.9507 2.9
      vertex -2.6 0 2.9
      vertex 4.4 -4.44115 2.9
    endloop
  endfacet
  facet normal 0 0 -1
    outer loop
      vertex -2.96465 -1.9507 2.9
      vertex 4.4 -4.44115 2.9
      vertex 2.6 -4.44115 2.9
    endloop
  endfacet
  facet normal 0 0 -1
    outer loop
      vertex 2.6 4.44115 2.9
      vertex -16 15 2.9
      vertex 1.7 6 2.9
    endloop
  endfacet
  facet normal 0 0 -1
    outer loop
      vertex 16.907 -4.83388 2.9
      vertex 24 -15 2.9
      vertex 14.9982 -5.37696 2.9
    endloop
  endfacet
  facet normal 0 0 -1
    outer loop
      vertex 9.90883 -2.84273 2.9
      vertex -16 15 2.9
      vertex 2.6 4.44115 2.9
    endloop
  endfacet
  facet normal -0 0 -1
    outer loop
      vertex 4.4 7.55885 2.9
      vertex 24 15 2.9
      vertex 5.3 6 2.9
    endloop
  endfacet
  facet normal 0 -0 -1
    outer loop
      vertex 13.0222 5.19386 2.9
      vertex 4.4 4.44115 2.9
      vertex 24 15 2.9
    endloop
  endfacet
  facet normal 0 0 -1
    outer loop
      vertex 4.4 4.44115 2.9
      vertex 5.3 6 2.9
      vertex 24 15 2.9
    endloop
  endfacet
  facet normal -0 -0 -1
    outer loop
      vertex 2.6 7.55885 2.9
      vertex -16 15 2.9
      vertex 4.4 7.55885 2.9
    endloop
  endfacet
  facet normal 0 0 -1
    outer loop
      vertex 9.19195 -0.992247 2.9
      vertex 4.4 4.44115 2.9
      vertex 9.19195 0.992247 2.9
    endloop
  endfacet
  facet normal 0 -0 -1
    outer loop
      vertex 1.7 6 2.9
      vertex -16 15 2.9
      vertex 2.6 7.55885 2.9
    endloop
  endfacet
  facet normal 0 0 -1
    outer loop
      vertex 9.90883 -2.84273 2.9
      vertex 2.6 4.44115 2.9
      vertex 9.19195 -0.992247 2.9
    endloop
  endfacet
  facet normal 0 0 -1
    outer loop
      vertex 11.2458 -4.30929 2.9
      vertex -16 15 2.9
      vertex 9.90883 -2.84273 2.9
    endloop
  endfacet
  facet normal 0 0 -1
    outer loop
      vertex 13.0222 -5.19386 2.9
      vertex 24 -15 2.9
      vertex 11.2458 -4.30929 2.9
    endloop
  endfacet
  facet normal 0 0 -1
    outer loop
      vertex 24 -15 2.9
      vertex -16 15 2.9
      vertex 11.2458 -4.30929 2.9
    endloop
  endfacet
  facet normal 0 0 -1
    outer loop
      vertex 14.9982 -5.37696 2.9
      vertex 24 -15 2.9
      vertex 13.0222 -5.19386 2.9
    endloop
  endfacet
  facet normal -0 0 -1
    outer loop
      vertex 19.5353 1.9507 2.9
      vertex 24 15 2.9
      vertex 19.9 0 2.9
    endloop
  endfacet
  facet normal 0 0 -1
    outer loop
      vertex 24 -15 2.9
      vertex 16.907 -4.83388 2.9
      vertex 18.4906 -3.63796 2.9
    endloop
  endfacet
  facet normal 0 0 -1
    outer loop
      vertex 24 -15 2.9
      vertex 18.4906 -3.63796 2.9
      vertex 19.5353 -1.9507 2.9
    endloop
  endfacet
  facet normal 0 0 -1
    outer loop
      vertex 24 -15 2.9
      vertex 19.5353 -1.9507 2.9
      vertex 24 15 2.9
    endloop
  endfacet
  facet normal 0 0 -1
    outer loop
      vertex 19.5353 -1.9507 2.9
      vertex 19.9 0 2.9
      vertex 24 15 2.9
    endloop
  endfacet
  facet normal -0 0 -1
    outer loop
      vertex 18.4906 3.63796 2.9
      vertex 24 15 2.9
      vertex 19.5353 1.9507 2.9
    endloop
  endfacet
  facet normal 0 0 -1
    outer loop
      vertex 13.0222 5.19386 2.9
      vertex 24 15 2.9
      vertex 14.9982 5.37696 2.9
    endloop
  endfacet
  facet normal 0 -0 -1
    outer loop
      vertex 18.4906 3.63796 2.9
      vertex 16.907 4.83388 2.9
      vertex 24 15 2.9
    endloop
  endfacet
  facet normal 0 -0 -1
    outer loop
      vertex 16.907 4.83388 2.9
      vertex 14.9982 5.37696 2.9
      vertex 24 15 2.9
    endloop
  endfacet
  facet normal 0 -0 -1
    outer loop
      vertex 11.2458 4.30929 2.9
      vertex 4.4 4.44115 2.9
      vertex 13.0222 5.19386 2.9
    endloop
  endfacet
  facet normal 0 -0 -1
    outer loop
      vertex 9.90883 2.84273 2.9
      vertex 4.4 4.44115 2.9
      vertex 11.2458 4.30929 2.9
    endloop
  endfacet
  facet normal 0 -0 -1
    outer loop
      vertex 9.19195 0.992247 2.9
      vertex 4.4 4.44115 2.9
      vertex 9.90883 2.84273 2.9
    endloop
  endfacet
  facet normal 0 0 -1
    outer loop
      vertex -7.50175 -5.37696 2.9
      vertex 24 -15 2.9
      vertex -9.47778 -5.19386 2.9
    endloop
  endfacet
  facet normal 0 0 -1
    outer loop
      vertex 5.3 -6 2.9
      vertex 24 -15 2.9
      vertex 4.4 -7.55885 2.9
    endloop
  endfacet
  facet normal 0 0 -1
    outer loop
      vertex -4.00935 -3.63796 2.9
      vertex 2.6 -7.55885 2.9
      vertex -5.59301 -4.83388 2.9
    endloop
  endfacet
  facet normal 0 1 0
    outer loop
      vertex -16 15 2.9
      vertex -16 15 20.9
      vertex 24 15 2.9
    endloop
  endfacet
  facet normal 0 1 0
    outer loop
      vertex 24 15 2.9
      vertex -16 15 20.9
      vertex 24 15 20.9
    endloop
  endfacet
  facet normal 0 -0 1
    outer loop
      vertex 2.6 -7.55885 20.9
      vertex -16 -15 20.9
      vertex 24 -15 20.9
    endloop
  endfacet
  facet normal -0 -0 1
    outer loop
      vertex 2.6 4.44115 20.9
      vertex -16 15 20.9
      vertex 24 -15 20.9
    endloop
  endfacet
  facet normal 0 -0 1
    outer loop
      vertex -16 15 20.9
      vertex -16 -15 20.9
      vertex -9.21352 -0.881678 20.9
    endloop
  endfacet
  facet normal 0 0 1
    outer loop
      vertex 4.4 7.55885 20.9
      vertex 5.3 6 20.9
      vertex 24 15 20.9
    endloop
  endfacet
  facet normal 0 0 1
    outer loop
      vertex -16 15 20.9
      vertex -9.21352 -0.881678 20.9
      vertex -9.21352 0.881678 20.9
    endloop
  endfacet
  facet normal 0 0 1
    outer loop
      vertex -16 15 20.9
      vertex -9.21352 0.881678 20.9
      vertex -7.53647 1.42658 20.9
    endloop
  endfacet
  facet normal 0 -0 1
    outer loop
      vertex 5.3 -6 20.9
      vertex 4.4 -7.55885 20.9
      vertex 24 -15 20.9
    endloop
  endfacet
  facet normal 0 -0 1
    outer loop
      vertex 4.4 -7.55885 20.9
      vertex 2.6 -7.55885 20.9
      vertex 24 -15 20.9
    endloop
  endfacet
  facet normal 0 -0 1
    outer loop
      vertex -9.21352 -0.881678 20.9
      vertex -16 -15 20.9
      vertex 2.6 -7.55885 20.9
    endloop
  endfacet
  facet normal 0 0 1
    outer loop
      vertex -9.21352 -0.881678 20.9
      vertex 2.6 -7.55885 20.9
      vertex 1.7 -6 20.9
    endloop
  endfacet
  facet normal 0 0 1
    outer loop
      vertex 4.4 -4.44115 20.9
      vertex 5.3 -6 20.9
      vertex 24 -15 20.9
    endloop
  endfacet
  facet normal 0 0 1
    outer loop
      vertex -7.53647 1.42658 20.9
      vertex -6.5 0 20.9
      vertex 2.6 -4.44115 20.9
    endloop
  endfacet
  facet normal 0 0 1
    outer loop
      vertex -16 15 20.9
      vertex 4.4 -4.44115 20.9
      vertex 24 -15 20.9
    endloop
  endfacet
  facet normal 0 0 1
    outer loop
      vertex -16 15 20.9
      vertex -7.53647 1.42658 20.9
      vertex 4.4 -4.44115 20.9
    endloop
  endfacet
  facet normal 0 0 1
    outer loop
      vertex 2.6 -4.44115 20.9
      vertex 4.4 -4.44115 20.9
      vertex -7.53647 1.42658 20.9
    endloop
  endfacet
  facet normal 0 -0 1
    outer loop
      vertex 4.4 4.44115 20.9
      vertex 2.6 4.44115 20.9
      vertex 24 -15 20.9
    endloop
  endfacet
  facet normal -0 -0 1
    outer loop
      vertex 1.7 6 20.9
      vertex -16 15 20.9
      vertex 2.6 4.44115 20.9
    endloop
  endfacet
  facet normal -0 0 1
    outer loop
      vertex 2.6 7.55885 20.9
      vertex -16 15 20.9
      vertex 1.7 6 20.9
    endloop
  endfacet
  facet normal 0 0 1
    outer loop
      vertex 24 15 20.9
      vertex -16 15 20.9
      vertex 2.6 7.55885 20.9
    endloop
  endfacet
  facet normal 0 -0 1
    outer loop
      vertex 5.3 6 20.9
      vertex 4.4 4.44115 20.9
      vertex 24 15 20.9
    endloop
  endfacet
  facet normal 0 0 1
    outer loop
      vertex 24 15 20.9
      vertex 2.6 7.55885 20.9
      vertex 4.4 7.55885 20.9
    endloop
  endfacet
  facet normal 0 0 1
    outer loop
      vertex 13.2865 0.881678 20.9
      vertex 14.9635 1.42658 20.9
      vertex 24 15 20.9
    endloop
  endfacet
  facet normal -0 -0 1
    outer loop
      vertex 13.2865 -0.881678 20.9
      vertex 4.4 4.44115 20.9
      vertex 24 -15 20.9
    endloop
  endfacet
  facet normal -0 -0 1
    outer loop
      vertex 14.9635 -1.42658 20.9
      vertex 13.2865 -0.881678 20.9
      vertex 24 -15 20.9
    endloop
  endfacet
  facet normal -0 0 1
    outer loop
      vertex 13.2865 0.881678 20.9
      vertex 4.4 4.44115 20.9
      vertex 13.2865 -0.881678 20.9
    endloop
  endfacet
  facet normal 0 -0 1
    outer loop
      vertex 16 0 20.9
      vertex 14.9635 -1.42658 20.9
      vertex 24 -15 20.9
    endloop
  endfacet
  facet normal 0 0 1
    outer loop
      vertex 24 15 20.9
      vertex 4.4 4.44115 20.9
      vertex 13.2865 0.881678 20.9
    endloop
  endfacet
  facet normal 0 0 1
    outer loop
      vertex 24 15 20.9
      vertex 16 0 20.9
      vertex 24 -15 20.9
    endloop
  endfacet
  facet normal 0 0 1
    outer loop
      vertex 24 15 20.9
      vertex 14.9635 1.42658 20.9
      vertex 16 0 20.9
    endloop
  endfacet
  facet normal 0 0 1
    outer loop
      vertex 1.7 -6 20.9
      vertex -7.53647 -1.42658 20.9
      vertex -9.21352 -0.881678 20.9
    endloop
  endfacet
  facet normal 0 0 1
    outer loop
      vertex 1.7 -6 20.9
      vertex -6.5 0 20.9
      vertex -7.53647 -1.42658 20.9
    endloop
  endfacet
  facet normal 0 0 1
    outer loop
      vertex 1.7 -6 20.9
      vertex 2.6 -4.44115 20.9
      vertex -6.5 0 20.9
    endloop
  endfacet
  facet normal 1 0 -0
    outer loop
      vertex 24 -15 20.9
      vertex 24 -15 2.9
      vertex 24 15 2.9
    endloop
  endfacet
  facet normal 1 0 0
    outer loop
      vertex 24 15 20.9
      vertex 24 -15 20.9
      vertex 24 15 2.9
    endloop
  endfacet
  facet normal 1 0 0
    outer loop
      vertex -13.3081 0.992247 2.9
      vertex -13.3081 0.992247 15.9
      vertex -13.3081 -0.992247 15.9
    endloop
  endfacet
  facet normal 1 0 0
    outer loop
      vertex -13.3081 -0.992247 2.9
      vertex -13.3081 0.992247 2.9
      vertex -13.3081 -0.992247 15.9
    endloop
  endfacet
  facet normal 0.932472 -0.361241 0
    outer loop
      vertex -12.5912 2.84273 2.9
      vertex -12.5912 2.84273 15.9
      vertex -13.3081 0.992247 15.9
    endloop
  endfacet
  facet normal 0.932472 -0.361241 0
    outer loop
      vertex -13.3081 0.992247 2.9
      vertex -12.5912 2.84273 2.9
      vertex -13.3081 0.992247 15.9
    endloop
  endfacet
  facet normal 0.739009 -0.673696 0
    outer loop
      vertex -11.2542 4.30929 2.9
      vertex -11.2542 4.30929 15.9
      vertex -12.5912 2.84273 15.9
    endloop
  endfacet
  facet normal 0.739009 -0.673696 0
    outer loop
      vertex -12.5912 2.84273 2.9
      vertex -11.2542 4.30929 2.9
      vertex -12.5912 2.84273 15.9
    endloop
  endfacet
  facet normal 0.445738 -0.895163 0
    outer loop
      vertex -9.47778 5.19386 2.9
      vertex -9.47778 5.19386 15.9
      vertex -11.2542 4.30929 15.9
    endloop
  endfacet
  facet normal 0.445738 -0.895163 0
    outer loop
      vertex -11.2542 4.30929 2.9
      vertex -9.47778 5.19386 2.9
      vertex -11.2542 4.30929 15.9
    endloop
  endfacet
  facet normal 0.0922688 -0.995734 0
    outer loop
      vertex -7.50175 5.37696 2.9
      vertex -7.50175 5.37696 15.9
      vertex -9.47778 5.19386 15.9
    endloop
  endfacet
  facet normal 0.0922688 -0.995734 0
    outer loop
      vertex -9.47778 5.19386 2.9
      vertex -7.50175 5.37696 2.9
      vertex -9.47778 5.19386 15.9
    endloop
  endfacet
  facet normal -0.273663 -0.961826 -0
    outer loop
      vertex -5.59301 4.83388 2.9
      vertex -5.59301 4.83388 15.9
      vertex -7.50175 5.37696 15.9
    endloop
  endfacet
  facet normal -0.273663 -0.961826 -0
    outer loop
      vertex -7.50175 5.37696 2.9
      vertex -5.59301 4.83388 2.9
      vertex -7.50175 5.37696 15.9
    endloop
  endfacet
  facet normal -0.602635 -0.798017 -0
    outer loop
      vertex -4.00935 3.63796 2.9
      vertex -4.00935 3.63796 15.9
      vertex -5.59301 4.83388 15.9
    endloop
  endfacet
  facet normal -0.602635 -0.798017 -0
    outer loop
      vertex -5.59301 4.83388 2.9
      vertex -4.00935 3.63796 2.9
      vertex -5.59301 4.83388 15.9
    endloop
  endfacet
  facet normal -0.850217 -0.526432 0
    outer loop
      vertex -2.96465 1.9507 15.9
      vertex -4.00935 3.63796 15.9
      vertex -2.96465 1.9507 2.9
    endloop
  endfacet
  facet normal -0.850217 -0.526432 0
    outer loop
      vertex -2.96465 1.9507 2.9
      vertex -4.00935 3.63796 15.9
      vertex -4.00935 3.63796 2.9
    endloop
  endfacet
  facet normal -0.982973 -0.18375 0
    outer loop
      vertex -2.6 0 15.9
      vertex -2.96465 1.9507 15.9
      vertex -2.6 0 2.9
    endloop
  endfacet
  facet normal -0.982973 -0.18375 0
    outer loop
      vertex -2.6 0 2.9
      vertex -2.96465 1.9507 15.9
      vertex -2.96465 1.9507 2.9
    endloop
  endfacet
  facet normal -0.982973 0.18375 0
    outer loop
      vertex -2.6 0 15.9
      vertex -2.6 0 2.9
      vertex -2.96465 -1.9507 15.9
    endloop
  endfacet
  facet normal -0.982973 0.18375 0
    outer loop
      vertex -2.96465 -1.9507 15.9
      vertex -2.6 0 2.9
      vertex -2.96465 -1.9507 2.9
    endloop
  endfacet
  facet normal -0.850217 0.526432 0
    outer loop
      vertex -2.96465 -1.9507 15.9
      vertex -2.96465 -1.9507 2.9
      vertex -4.00935 -3.63796 15.9
    endloop
  endfacet
  facet normal -0.850217 0.526432 0
    outer loop
      vertex -4.00935 -3.63796 15.9
      vertex -2.96465 -1.9507 2.9
      vertex -4.00935 -3.63796 2.9
    endloop
  endfacet
  facet normal -0.602635 0.798017 0
    outer loop
      vertex -4.00935 -3.63796 15.9
      vertex -4.00935 -3.63796 2.9
      vertex -5.59301 -4.83388 15.9
    endloop
  endfacet
  facet normal -0.602635 0.798017 0
    outer loop
      vertex -5.59301 -4.83388 15.9
      vertex -4.00935 -3.63796 2.9
      vertex -5.59301 -4.83388 2.9
    endloop
  endfacet
  facet normal -0.273663 0.961826 0
    outer loop
      vertex -5.59301 -4.83388 15.9
      vertex -5.59301 -4.83388 2.9
      vertex -7.50175 -5.37696 15.9
    endloop
  endfacet
  facet normal -0.273663 0.961826 0
    outer loop
      vertex -7.50175 -5.37696 15.9
      vertex -5.59301 -4.83388 2.9
      vertex -7.50175 -5.37696 2.9
    endloop
  endfacet
  facet normal 0.0922688 0.995734 -0
    outer loop
      vertex -7.50175 -5.37696 15.9
      vertex -7.50175 -5.37696 2.9
      vertex -9.47778 -5.19386 15.9
    endloop
  endfacet
  facet normal 0.0922688 0.995734 -0
    outer loop
      vertex -9.47778 -5.19386 15.9
      vertex -7.50175 -5.37696 2.9
      vertex -9.47778 -5.19386 2.9
    endloop
  endfacet
  facet normal 0.445738 0.895163 -0
    outer loop
      vertex -9.47778 -5.19386 15.9
      vertex -9.47778 -5.19386 2.9
      vertex -11.2542 -4.30929 15.9
    endloop
  endfacet
  facet normal 0.445738 0.895163 -0
    outer loop
      vertex -11.2542 -4.30929 15.9
      vertex -9.47778 -5.19386 2.9
      vertex -11.2542 -4.30929 2.9
    endloop
  endfacet
  facet normal 0.739009 0.673696 0
    outer loop
      vertex -12.5912 -2.84273 15.9
      vertex -11.2542 -4.30929 15.9
      vertex -11.2542 -4.30929 2.9
    endloop
  endfacet
  facet normal 0.739009 0.673696 0
    outer loop
      vertex -12.5912 -2.84273 2.9
      vertex -12.5912 -2.84273 15.9
      vertex -11.2542 -4.30929 2.9
    endloop
  endfacet
  facet normal 0.932472 0.361241 0
    outer loop
      vertex -13.3081 -0.992247 15.9
      vertex -12.5912 -2.84273 15.9
      vertex -12.5912 -2.84273 2.9
    endloop
  endfacet
  facet normal 0.932472 0.361241 0
    outer loop
      vertex -13.3081 -0.992247 2.9
      vertex -13.3081 -0.992247 15.9
      vertex -12.5912 -2.84273 2.9
    endloop
  endfacet
  facet normal 0.866025 0.5 0
    outer loop
      vertex 1.7 -6 20.9
      vertex 2.6 -7.55885 20.9
      vertex 2.6 -7.55885 2.9
    endloop
  endfacet
  facet normal 0.866025 0.5 0
    outer loop
      vertex 1.7 -6 2.9
      vertex 1.7 -6 20.9
      vertex 2.6 -7.55885 2.9
    endloop
  endfacet
  facet normal 0.866025 -0.5 0
    outer loop
      vertex 2.6 -4.44115 2.9
      vertex 2.6 -4.44115 20.9
      vertex 1.7 -6 20.9
    endloop
  endfacet
  facet normal 0.866025 -0.5 0
    outer loop
      vertex 1.7 -6 2.9
      vertex 2.6 -4.44115 2.9
      vertex 1.7 -6 20.9
    endloop
  endfacet
  facet normal 0 -1 0
    outer loop
      vertex 4.4 -4.44115 2.9
      vertex 4.4 -4.44115 20.9
      vertex 2.6 -4.44115 20.9
    endloop
  endfacet
  facet normal -0 -1 -0
    outer loop
      vertex 2.6 -4.44115 2.9
      vertex 4.4 -4.44115 2.9
      vertex 2.6 -4.44115 20.9
    endloop
  endfacet
  facet normal -0.866025 -0.5 0
    outer loop
      vertex 5.3 -6 20.9
      vertex 4.4 -4.44115 20.9
      vertex 5.3 -6 2.9
    endloop
  endfacet
  facet normal -0.866025 -0.5 0
    outer loop
      vertex 5.3 -6 2.9
      vertex 4.4 -4.44115 20.9
      vertex 4.4 -4.44115 2.9
    endloop
  endfacet
  facet normal -0.866025 0.5 0
    outer loop
      vertex 5.3 -6 20.9
      vertex 5.3 -6 2.9
      vertex 4.4 -7.55885 20.9
    endloop
  endfacet
  facet normal -0.866025 0.5 0
    outer loop
      vertex 4.4 -7.55885 20.9
      vertex 5.3 -6 2.9
      vertex 4.4 -7.55885 2.9
    endloop
  endfacet
  facet normal 0 1 0
    outer loop
      vertex 4.4 -7.55885 20.9
      vertex 4.4 -7.55885 2.9
      vertex 2.6 -7.55885 20.9
    endloop
  endfacet
  facet normal 0 1 -0
    outer loop
      vertex 2.6 -7.55885 20.9
      vertex 4.4 -7.55885 2.9
      vertex 2.6 -7.55885 2.9
    endloop
  endfacet
  facet normal 0.866025 0.5 0
    outer loop
      vertex 1.7 6 20.9
      vertex 2.6 4.44115 20.9
      vertex 2.6 4.44115 2.9
    endloop
  endfacet
  facet normal 0.866025 0.5 0
    outer loop
      vertex 1.7 6 2.9
      vertex 1.7 6 20.9
      vertex 2.6 4.44115 2.9
    endloop
  endfacet
  facet normal 0.866025 -0.5 0
    outer loop
      vertex 2.6 7.55885 2.9
      vertex 2.6 7.55885 20.9
      vertex 1.7 6 20.9
    endloop
  endfacet
  facet normal 0.866025 -0.5 0
    outer loop
      vertex 1.7 6 2.9
      vertex 2.6 7.55885 2.9
      vertex 1.7 6 20.9
    endloop
  endfacet
  facet normal 0 -1 0
    outer loop
      vertex 4.4 7.55885 2.9
      vertex 4.4 7.55885 20.9
      vertex 2.6 7.55885 20.9
    endloop
  endfacet
  facet normal -0 -1 -0
    outer loop
      vertex 2.6 7.55885 2.9
      vertex 4.4 7.55885 2.9
      vertex 2.6 7.55885 20.9
    endloop
  endfacet
  facet normal -0.866025 -0.5 0
    outer loop
      vertex 5.3 6 20.9
      vertex 4.4 7.55885 20.9
      vertex 5.3 6 2.9
    endloop
  endfacet
  facet normal -0.866025 -0.5 0
    outer loop
      vertex 5.3 6 2.9
      vertex 4.4 7.55885 20.9
      vertex 4.4 7.55885 2.9
    endloop
  endfacet
  facet normal -0.866025 0.5 0
    outer loop
      vertex 5.3 6 20.9
      vertex 5.3 6 2.9
      vertex 4.4 4.44115 20.9
    endloop
  endfacet
  facet normal -0.866025 0.5 0
    outer loop
      vertex 4.4 4.44115 20.9
      vertex 5.3 6 2.9
      vertex 4.4 4.44115 2.9
    endloop
  endfacet
  facet normal 0 1 0
    outer loop
      vertex 4.4 4.44115 20.9
      vertex 4.4 4.44115 2.9
      vertex 2.6 4.44115 20.9
    endloop
  endfacet
  facet normal 0 1 -0
    outer loop
      vertex 2.6 4.44115 20.9
      vertex 4.4 4.44115 2.9
      vertex 2.6 4.44115 2.9
    endloop
  endfacet
  facet normal 1 0 0
    outer loop
      vertex 9.19195 0.992247 2.9
      vertex 9.19195 0.992247 15.9
      vertex 9.19195 -0.992247 15.9
    endloop
  endfacet
  facet normal 1 0 0
    outer loop
      vertex 9.19195 -0.992247 2.9
      vertex 9.19195 0.992247 2.9
      vertex 9.19195 -0.992247 15.9
    endloop
  endfacet
  facet normal 0.932472 -0.361241 0
    outer loop
      vertex 9.90883 2.84273 2.9
      vertex 9.90883 2.84273 15.9
      vertex 9.19195 0.992247 15.9
    endloop
  endfacet
  facet normal 0.932472 -0.361241 0
    outer loop
      vertex 9.19195 0.992247 2.9
      vertex 9.90883 2.84273 2.9
      vertex 9.19195 0.992247 15.9
    endloop
  endfacet
  facet normal 0.739009 -0.673696 0
    outer loop
      vertex 11.2458 4.30929 2.9
      vertex 11.2458 4.30929 15.9
      vertex 9.90883 2.84273 15.9
    endloop
  endfacet
  facet normal 0.739009 -0.673696 0
    outer loop
      vertex 9.90883 2.84273 2.9
      vertex 11.2458 4.30929 2.9
      vertex 9.90883 2.84273 15.9
    endloop
  endfacet
  facet normal 0.445738 -0.895163 0
    outer loop
      vertex 13.0222 5.19386 2.9
      vertex 13.0222 5.19386 15.9
      vertex 11.2458 4.30929 15.9
    endloop
  endfacet
  facet normal 0.445738 -0.895163 0
    outer loop
      vertex 11.2458 4.30929 2.9
      vertex 13.0222 5.19386 2.9
      vertex 11.2458 4.30929 15.9
    endloop
  endfacet
  facet normal 0.0922688 -0.995734 0
    outer loop
      vertex 14.9982 5.37696 2.9
      vertex 14.9982 5.37696 15.9
      vertex 13.0222 5.19386 15.9
    endloop
  endfacet
  facet normal 0.0922688 -0.995734 0
    outer loop
      vertex 13.0222 5.19386 2.9
      vertex 14.9982 5.37696 2.9
      vertex 13.0222 5.19386 15.9
    endloop
  endfacet
  facet normal -0.273663 -0.961826 -0
    outer loop
      vertex 16.907 4.83388 2.9
      vertex 16.907 4.83388 15.9
      vertex 14.9982 5.37696 15.9
    endloop
  endfacet
  facet normal -0.273663 -0.961826 -0
    outer loop
      vertex 14.9982 5.37696 2.9
      vertex 16.907 4.83388 2.9
      vertex 14.9982 5.37696 15.9
    endloop
  endfacet
  facet normal -0.602635 -0.798017 -0
    outer loop
      vertex 18.4906 3.63796 2.9
      vertex 18.4906 3.63796 15.9
      vertex 16.907 4.83388 15.9
    endloop
  endfacet
  facet normal -0.602635 -0.798017 -0
    outer loop
      vertex 16.907 4.83388 2.9
      vertex 18.4906 3.63796 2.9
      vertex 16.907 4.83388 15.9
    endloop
  endfacet
  facet normal -0.850217 -0.526432 0
    outer loop
      vertex 19.5353 1.9507 15.9
      vertex 18.4906 3.63796 15.9
      vertex 19.5353 1.9507 2.9
    endloop
  endfacet
  facet normal -0.850217 -0.526432 0
    outer loop
      vertex 19.5353 1.9507 2.9
      vertex 18.4906 3.63796 15.9
      vertex 18.4906 3.63796 2.9
    endloop
  endfacet
  facet normal -0.982973 -0.18375 0
    outer loop
      vertex 19.9 0 15.9
      vertex 19.5353 1.9507 15.9
      vertex 19.9 0 2.9
    endloop
  endfacet
  facet normal -0.982973 -0.18375 0
    outer loop
      vertex 19.9 0 2.9
      vertex 19.5353 1.9507 15.9
      vertex 19.5353 1.9507 2.9
    endloop
  endfacet
  facet normal -0.982973 0.18375 0
    outer loop
      vertex 19.9 0 15.9
      vertex 19.9 0 2.9
      vertex 19.5353 -1.9507 15.9
    endloop
  endfacet
  facet normal -0.982973 0.18375 0
    outer loop
      vertex 19.5353 -1.9507 15.9
      vertex 19.9 0 2.9
      vertex 19.5353 -1.9507 2.9
    endloop
  endfacet
  facet normal -0.850217 0.526432 0
    outer loop
      vertex 19.5353 -1.9507 15.9
      vertex 19.5353 -1.9507 2.9
      vertex 18.4906 -3.63796 15.9
    endloop
  endfacet
  facet normal -0.850217 0.526432 0
    outer loop
      vertex 18.4906 -3.63796 15.9
      vertex 19.5353 -1.9507 2.9
      vertex 18.4906 -3.63796 2.9
    endloop
  endfacet
  facet normal -0.602635 0.798017 0
    outer loop
      vertex 18.4906 -3.63796 15.9
      vertex 18.4906 -3.63796 2.9
      vertex 16.907 -4.83388 15.9
    endloop
  endfacet
  facet normal -0.602635 0.798017 0
    outer loop
      vertex 16.907 -4.83388 15.9
      vertex 18.4906 -3.63796 2.9
      vertex 16.907 -4.83388 2.9
    endloop
  endfacet
  facet normal -0.273663 0.961826 0
    outer loop
      vertex 16.907 -4.83388 15.9
      vertex 16.907 -4.83388 2.9
      vertex 14.9982 -5.37696 15.9
    endloop
  endfacet
  facet normal -0.273663 0.961826 0
    outer loop
      vertex 14.9982 -5.37696 15.9
      vertex 16.907 -4.83388 2.9
      vertex 14.9982 -5.37696 2.9
    endloop
  endfacet
  facet normal 0.0922688 0.995734 -0
    outer loop
      vertex 14.9982 -5.37696 15.9
      vertex 14.9982 -5.37696 2.9
      vertex 13.0222 -5.19386 15.9
    endloop
  endfacet
  facet normal 0.0922688 0.995734 -0
    outer loop
      vertex 13.0222 -5.19386 15.9
      vertex 14.9982 -5.37696 2.9
      vertex 13.0222 -5.19386 2.9
    endloop
  endfacet
  facet normal 0.445738 0.895163 -0
    outer loop
      vertex 13.0222 -5.19386 15.9
      vertex 13.0222 -5.19386 2.9
      vertex 11.2458 -4.30929 15.9
    endloop
  endfacet
  facet normal 0.445738 0.895163 -0
    outer loop
      vertex 11.2458 -4.30929 15.9
      vertex 13.0222 -5.19386 2.9
      vertex 11.2458 -4.30929 2.9
    endloop
  endfacet
  facet normal 0.739009 0.673696 0
    outer loop
      vertex 9.90883 -2.84273 15.9
      vertex 11.2458 -4.30929 15.9
      vertex 11.2458 -4.30929 2.9
    endloop
  endfacet
  facet normal 0.739009 0.673696 0
    outer loop
      vertex 9.90883 -2.84273 2.9
      vertex 9.90883 -2.84273 15.9
      vertex 11.2458 -4.30929 2.9
    endloop
  endfacet
  facet normal 0.932472 0.361241 0
    outer loop
      vertex 9.19195 -0.992247 15.9
      vertex 9.90883 -2.84273 15.9
      vertex 9.90883 -2.84273 2.9
    endloop
  endfacet
  facet normal 0.932472 0.361241 0
    outer loop
      vertex 9.19195 -0.992247 2.9
      vertex 9.19195 -0.992247 15.9
      vertex 9.90883 -2.84273 2.9
    endloop
  endfacet
  facet normal 1 0 0
    outer loop
      vertex -9.21352 0.881678 15.9
      vertex -9.21352 0.881678 20.9
      vertex -9.21352 -0.881678 20.9
    endloop
  endfacet
  facet normal 1 0 0
    outer loop
      vertex -9.21352 -0.881678 15.9
      vertex -9.21352 0.881678 15.9
      vertex -9.21352 -0.881678 20.9
    endloop
  endfacet
  facet normal 0.309017 0.951056 -0
    outer loop
      vertex -7.53647 -1.42658 20.9
      vertex -7.53647 -1.42658 15.9
      vertex -9.21352 -0.881678 20.9
    endloop
  endfacet
  facet normal 0.309017 0.951056 -0
    outer loop
      vertex -9.21352 -0.881678 20.9
      vertex -7.53647 -1.42658 15.9
      vertex -9.21352 -0.881678 15.9
    endloop
  endfacet
  facet normal -0.809017 0.587785 0
    outer loop
      vertex -6.5 0 20.9
      vertex -6.5 0 15.9
      vertex -7.53647 -1.42658 20.9
    endloop
  endfacet
  facet normal -0.809017 0.587785 0
    outer loop
      vertex -7.53647 -1.42658 20.9
      vertex -6.5 0 15.9
      vertex -7.53647 -1.42658 15.9
    endloop
  endfacet
  facet normal -0.809017 -0.587785 0
    outer loop
      vertex -6.5 0 20.9
      vertex -7.53647 1.42658 20.9
      vertex -6.5 0 15.9
    endloop
  endfacet
  facet normal -0.809017 -0.587785 0
    outer loop
      vertex -6.5 0 15.9
      vertex -7.53647 1.42658 20.9
      vertex -7.53647 1.42658 15.9
    endloop
  endfacet
  facet normal 0.309017 -0.951056 0
    outer loop
      vertex -7.53647 1.42658 15.9
      vertex -7.53647 1.42658 20.9
      vertex -9.21352 0.881678 20.9
    endloop
  endfacet
  facet normal 0.309017 -0.951056 0
    outer loop
      vertex -9.21352 0.881678 15.9
      vertex -7.53647 1.42658 15.9
      vertex -9.21352 0.881678 20.9
    endloop
  endfacet
  facet normal 1 0 0
    outer loop
      vertex 13.2865 0.881678 15.9
      vertex 13.2865 0.881678 20.9
      vertex 13.2865 -0.881678 20.9
    endloop
  endfacet
  facet normal 1 0 0
    outer loop
      vertex 13.2865 -0.881678 15.9
      vertex 13.2865 0.881678 15.9
      vertex 13.2865 -0.881678 20.9
    endloop
  endfacet
  facet normal 0.309017 0.951056 -0
    outer loop
      vertex 14.9635 -1.42658 20.9
      vertex 14.9635 -1.42658 15.9
      vertex 13.2865 -0.881678 20.9
    endloop
  endfacet
  facet normal 0.309017 0.951056 -0
    outer loop
      vertex 13.2865 -0.881678 20.9
      vertex 14.9635 -1.42658 15.9
      vertex 13.2865 -0.881678 15.9
    endloop
  endfacet
  facet normal -0.809017 0.587785 0
    outer loop
      vertex 16 0 20.9
      vertex 16 0 15.9
      vertex 14.9635 -1.42658 20.9
    endloop
  endfacet
  facet normal -0.809017 0.587785 0
    outer loop
      vertex 14.9635 -1.42658 20.9
      vertex 16 0 15.9
      vertex 14.9635 -1.42658 15.9
    endloop
  endfacet
  facet normal -0.809017 -0.587785 0
    outer loop
      vertex 16 0 20.9
      vertex 14.9635 1.42658 20.9
      vertex 16 0 15.9
    endloop
  endfacet
  facet normal -0.809017 -0.587785 0
    outer loop
      vertex 16 0 15.9
      vertex 14.9635 1.42658 20.9
      vertex 14.9635 1.42658 15.9
    endloop
  endfacet
  facet normal 0.309017 -0.951056 0
    outer loop
      vertex 14.9635 1.42658 15.9
      vertex 14.9635 1.42658 20.9
      vertex 13.2865 0.881678 20.9
    endloop
  endfacet
  facet normal 0.309017 -0.951056 0
    outer loop
      vertex 13.2865 0.881678 15.9
      vertex 14.9635 1.42658 15.9
      vertex 13.2865 0.881678 20.9
    endloop
  endfacet
  facet normal -0 0 -1
    outer loop
      vertex -12.5912 2.84273 15.9
      vertex -11.2542 4.30929 15.9
      vertex -13.3081 0.992247 15.9
    endloop
  endfacet
  facet normal 0 0 -1
    outer loop
      vertex -13.3081 0.992247 15.9
      vertex -11.2542 4.30929 15.9
      vertex -9.47778 5.19386 15.9
    endloop
  endfacet
  facet normal 0 0 -1
    outer loop
      vertex -13.3081 0.992247 15.9
      vertex -9.47778 5.19386 15.9
      vertex -7.50175 5.37696 15.9
    endloop
  endfacet
  facet normal 0 0 -1
    outer loop
      vertex -13.3081 0.992247 15.9
      vertex -7.50175 5.37696 15.9
      vertex -5.59301 4.83388 15.9
    endloop
  endfacet
  facet normal 0 0 -1
    outer loop
      vertex -13.3081 0.992247 15.9
      vertex -5.59301 4.83388 15.9
      vertex -4.00935 3.63796 15.9
    endloop
  endfacet
  facet normal 0 0 -1
    outer loop
      vertex -13.3081 0.992247 15.9
      vertex -4.00935 3.63796 15.9
      vertex -2.96465 1.9507 15.9
    endloop
  endfacet
  facet normal -0 0 -1
    outer loop
      vertex -7.53647 1.42658 15.9
      vertex -2.96465 1.9507 15.9
      vertex -2.6 0 15.9
    endloop
  endfacet
  facet normal 0 0 -1
    outer loop
      vertex -6.5 0 15.9
      vertex -2.6 0 15.9
      vertex -2.96465 -1.9507 15.9
    endloop
  endfacet
  facet normal 0 0 -1
    outer loop
      vertex -7.53647 -1.42658 15.9
      vertex -2.96465 -1.9507 15.9
      vertex -4.00935 -3.63796 15.9
    endloop
  endfacet
  facet normal 0 0 -1
    outer loop
      vertex -13.3081 0.992247 15.9
      vertex -4.00935 -3.63796 15.9
      vertex -5.59301 -4.83388 15.9
    endloop
  endfacet
  facet normal 0 0 -1
    outer loop
      vertex -13.3081 0.992247 15.9
      vertex -5.59301 -4.83388 15.9
      vertex -7.50175 -5.37696 15.9
    endloop
  endfacet
  facet normal 0 0 -1
    outer loop
      vertex -13.3081 0.992247 15.9
      vertex -7.50175 -5.37696 15.9
      vertex -9.47778 -5.19386 15.9
    endloop
  endfacet
  facet normal 0 0 -1
    outer loop
      vertex -13.3081 0.992247 15.9
      vertex -9.47778 -5.19386 15.9
      vertex -11.2542 -4.30929 15.9
    endloop
  endfacet
  facet normal 0 0 -1
    outer loop
      vertex -13.3081 0.992247 15.9
      vertex -11.2542 -4.30929 15.9
      vertex -12.5912 -2.84273 15.9
    endloop
  endfacet
  facet normal 0 0 -1
    outer loop
      vertex -13.3081 0.992247 15.9
      vertex -12.5912 -2.84273 15.9
      vertex -13.3081 -0.992247 15.9
    endloop
  endfacet
  facet normal 0 0 -1
    outer loop
      vertex -6.5 0 15.9
      vertex -2.96465 -1.9507 15.9
      vertex -7.53647 -1.42658 15.9
    endloop
  endfacet
  facet normal 0 0 -1
    outer loop
      vertex -13.3081 0.992247 15.9
      vertex -9.21352 -0.881678 15.9
      vertex -4.00935 -3.63796 15.9
    endloop
  endfacet
  facet normal 0 0 -1
    outer loop
      vertex -9.21352 -0.881678 15.9
      vertex -7.53647 -1.42658 15.9
      vertex -4.00935 -3.63796 15.9
    endloop
  endfacet
  facet normal 0 0 -1
    outer loop
      vertex -13.3081 0.992247 15.9
      vertex -2.96465 1.9507 15.9
      vertex -7.53647 1.42658 15.9
    endloop
  endfacet
  facet normal -0 0 -1
    outer loop
      vertex -13.3081 0.992247 15.9
      vertex -7.53647 1.42658 15.9
      vertex -9.21352 0.881678 15.9
    endloop
  endfacet
  facet normal 0 0 -1
    outer loop
      vertex -9.21352 -0.881678 15.9
      vertex -13.3081 0.992247 15.9
      vertex -9.21352 0.881678 15.9
    endloop
  endfacet
  facet normal 0 0 -1
    outer loop
      vertex -7.53647 1.42658 15.9
      vertex -2.6 0 15.9
      vertex -6.5 0 15.9
    endloop
  endfacet
  facet normal -0 0 -1
    outer loop
      vertex 9.90883 2.84273 15.9
      vertex 11.2458 4.30929 15.9
      vertex 9.19195 0.992247 15.9
    endloop
  endfacet
  facet normal 0 0 -1
    outer loop
      vertex 9.19195 0.992247 15.9
      vertex 11.2458 4.30929 15.9
      vertex 13.0222 5.19386 15.9
    endloop
  endfacet
  facet normal 0 0 -1
    outer loop
      vertex 9.19195 0.992247 15.9
      vertex 13.0222 5.19386 15.9
      vertex 14.9982 5.37696 15.9
    endloop
  endfacet
  facet normal 0 0 -1
    outer loop
      vertex 9.19195 0.992247 15.9
      vertex 14.9982 5.37696 15.9
      vertex 16.907 4.83388 15.9
    endloop
  endfacet
  facet normal 0 0 -1
    outer loop
      vertex 9.19195 0.992247 15.9
      vertex 16.907 4.83388 15.9
      vertex 18.4906 3.63796 15.9
    endloop
  endfacet
  facet normal 0 0 -1
    outer loop
      vertex 9.19195 0.992247 15.9
      vertex 18.4906 3.63796 15.9
      vertex 19.5353 1.9507 15.9
    endloop
  endfacet
  facet normal -0 0 -1
    outer loop
      vertex 14.9635 1.42658 15.9
      vertex 19.5353 1.9507 15.9
      vertex 19.9 0 15.9
    endloop
  endfacet
  facet normal 0 0 -1
    outer loop
      vertex 16 0 15.9
      vertex 19.9 0 15.9
      vertex 19.5353 -1.9507 15.9
    endloop
  endfacet
  facet normal 0 0 -1
    outer loop
      vertex 14.9635 -1.42658 15.9
      vertex 19.5353 -1.9507 15.9
      vertex 18.4906 -3.63796 15.9
    endloop
  endfacet
  facet normal 0 0 -1
    outer loop
      vertex 9.19195 0.992247 15.9
      vertex 18.4906 -3.63796 15.9
      vertex 16.907 -4.83388 15.9
    endloop
  endfacet
  facet normal 0 0 -1
    outer loop
      vertex 9.19195 0.992247 15.9
      vertex 16.907 -4.83388 15.9
      vertex 14.9982 -5.37696 15.9
    endloop
  endfacet
  facet normal 0 0 -1
    outer loop
      vertex 9.19195 0.992247 15.9
      vertex 14.9982 -5.37696 15.9
      vertex 13.0222 -5.19386 15.9
    endloop
  endfacet
  facet normal 0 0 -1
    outer loop
      vertex 9.19195 0.992247 15.9
      vertex 13.0222 -5.19386 15.9
      vertex 11.2458 -4.30929 15.9
    endloop
  endfacet
  facet normal 0 0 -1
    outer loop
      vertex 9.19195 0.992247 15.9
      vertex 11.2458 -4.30929 15.9
      vertex 9.90883 -2.84273 15.9
    endloop
  endfacet
  facet normal 0 0 -1
    outer loop
      vertex 9.19195 0.992247 15.9
      vertex 9.90883 -2.84273 15.9
      vertex 9.19195 -0.992247 15.9
    endloop
  endfacet
  facet normal 0 0 -1
    outer loop
      vertex 16 0 15.9
      vertex 19.5353 -1.9507 15.9
      vertex 14.9635 -1.42658 15.9
    endloop
  endfacet
  facet normal 0 0 -1
    outer loop
      vertex 9.19195 0.992247 15.9
      vertex 13.2865 -0.881678 15.9
      vertex 18.4906 -3.63796 15.9
    endloop
  endfacet
  facet normal 0 0 -1
    outer loop
      vertex 13.2865 -0.881678 15.9
      vertex 14.9635 -1.42658 15.9
      vertex 18.4906 -3.63796 15.9
    endloop
  endfacet
  facet normal 0 0 -1
    outer loop
      vertex 9.19195 0.992247 15.9
      vertex 19.5353 1.9507 15.9
      vertex 14.9635 1.42658 15.9
    endloop
  endfacet
  facet normal -0 0 -1
    outer loop
      vertex 9.19195 0.992247 15.9
      vertex 14.9635 1.42658 15.9
      vertex 13.2865 0.881678 15.9
    endloop
  endfacet
  facet normal 0 0 -1
    outer loop
      vertex 13.2865 -0.881678 15.9
      vertex 9.19195 0.992247 15.9
      vertex 13.2865 0.881678 15.9
    endloop
  endfacet
  facet normal 0 0 -1
    outer loop
      vertex 14.9635 1.42658 15.9
      vertex 19.9 0 15.9
      vertex 16 0 15.9
    endloop
  endfacet
endsolid OpenSCAD_Model
