solid OpenSCAD_Model
  facet normal -1 0 0
    outer loop
      vertex -6 18.0376 12.0383
      vertex -6 40 0
      vertex -6 16.1893 12.7393
    endloop
  endfacet
  facet normal -1 0 -0
    outer loop
      vertex -6 20 28.2
      vertex -6 0 29
      vertex -6 40 29
    endloop
  endfacet
  facet normal -1 0 -0
    outer loop
      vertex -6 0 0
      vertex -6 0 29
      vertex -6 11.8598 19.0116
    endloop
  endfacet
  facet normal -1 0 0
    outer loop
      vertex -6 0 0
      vertex -6 11.8598 19.0116
      vertex -6 12.3329 17.0922
    endloop
  endfacet
  facet normal -1 0 0
    outer loop
      vertex -6 0 0
      vertex -6 12.3329 17.0922
      vertex -6 13.2515 15.3419
    endloop
  endfacet
  facet normal -1 0 0
    outer loop
      vertex -6 0 0
      vertex -6 13.2515 15.3419
      vertex -6 14.5624 13.8622
    endloop
  endfacet
  facet normal -1 0 0
    outer loop
      vertex -6 0 0
      vertex -6 14.5624 13.8622
      vertex -6 16.1893 12.7393
    endloop
  endfacet
  facet normal -1 -0 0
    outer loop
      vertex -6 0 0
      vertex -6 16.1893 12.7393
      vertex -6 40 0
    endloop
  endfacet
  facet normal -1 0 0
    outer loop
      vertex -6 20 11.8
      vertex -6 40 0
      vertex -6 18.0376 12.0383
    endloop
  endfacet
  facet normal -1 0 0
    outer loop
      vertex -6 21.9624 12.0383
      vertex -6 40 0
      vertex -6 20 11.8
    endloop
  endfacet
  facet normal -1 0 0
    outer loop
      vertex -6 23.8107 12.7393
      vertex -6 40 0
      vertex -6 21.9624 12.0383
    endloop
  endfacet
  facet normal -1 -0 0
    outer loop
      vertex -6 27.6671 17.0922
      vertex -6 40 29
      vertex -6 26.7485 15.3419
    endloop
  endfacet
  facet normal -1 0 0
    outer loop
      vertex -6 40 0
      vertex -6 23.8107 12.7393
      vertex -6 25.4376 13.8622
    endloop
  endfacet
  facet normal -1 0 0
    outer loop
      vertex -6 40 0
      vertex -6 25.4376 13.8622
      vertex -6 40 29
    endloop
  endfacet
  facet normal -1 0 0
    outer loop
      vertex -6 25.4376 13.8622
      vertex -6 26.7485 15.3419
      vertex -6 40 29
    endloop
  endfacet
  facet normal -1 -0 0
    outer loop
      vertex -6 25.4376 26.1378
      vertex -6 40 29
      vertex -6 26.7485 24.6581
    endloop
  endfacet
  facet normal -1 0 0
    outer loop
      vertex -6 27.6671 17.0922
      vertex -6 28.1402 19.0116
      vertex -6 40 29
    endloop
  endfacet
  facet normal -1 0 -0
    outer loop
      vertex -6 28.1402 19.0116
      vertex -6 28.1402 20.9884
      vertex -6 40 29
    endloop
  endfacet
  facet normal -1 0 -0
    outer loop
      vertex -6 28.1402 20.9884
      vertex -6 27.6671 22.9078
      vertex -6 40 29
    endloop
  endfacet
  facet normal -1 0 -0
    outer loop
      vertex -6 27.6671 22.9078
      vertex -6 26.7485 24.6581
      vertex -6 40 29
    endloop
  endfacet
  facet normal -1 0 -0
    outer loop
      vertex -6 18.0376 27.9617
      vertex -6 0 29
      vertex -6 20 28.2
    endloop
  endfacet
  facet normal -1 0 -0
    outer loop
      vertex -6 14.5624 26.1378
      vertex -6 0 29
      vertex -6 16.1893 27.2607
    endloop
  endfacet
  facet normal -1 0 -0
    outer loop
      vertex -6 25.4376 26.1378
      vertex -6 23.8107 27.2607
      vertex -6 40 29
    endloop
  endfacet
  facet normal -1 0 -0
    outer loop
      vertex -6 16.1893 27.2607
      vertex -6 0 29
      vertex -6 18.0376 27.9617
    endloop
  endfacet
  facet normal -1 0 -0
    outer loop
      vertex -6 23.8107 27.2607
      vertex -6 21.9624 27.9617
      vertex -6 40 29
    endloop
  endfacet
  facet normal -1 0 -0
    outer loop
      vertex -6 21.9624 27.9617
      vertex -6 20 28.2
      vertex -6 40 29
    endloop
  endfacet
  facet normal -1 0 -0
    outer loop
      vertex -6 13.2515 24.6581
      vertex -6 0 29
      vertex -6 14.5624 26.1378
    endloop
  endfacet
  facet normal -1 0 -0
    outer loop
      vertex -6 12.3329 22.9078
      vertex -6 0 29
      vertex -6 13.2515 24.6581
    endloop
  endfacet
  facet normal -1 0 -0
    outer loop
      vertex -6 11.8598 20.9884
      vertex -6 0 29
      vertex -6 12.3329 22.9078
    endloop
  endfacet
  facet normal -1 0 0
    outer loop
      vertex -6 11.8598 19.0116
      vertex -6 0 29
      vertex -6 11.8598 20.9884
    endloop
  endfacet
  facet normal 0 -1 0
    outer loop
      vertex -6 0 29
      vertex -6 0 0
      vertex 9 0 0
    endloop
  endfacet
  facet normal 0 -1 0
    outer loop
      vertex 9 0 29
      vertex -6 0 29
      vertex 9 0 0
    endloop
  endfacet
  facet normal 0 0 -1
    outer loop
      vertex 0.773474 7.43045 0
      vertex 9 0 0
      vertex -6 0 0
    endloop
  endfacet
  facet normal 0 0 -1
    outer loop
      vertex 6.4 10 0
      vertex 9 0 0
      vertex 5.86026 8.16182 0
    endloop
  endfacet
  facet normal 0 0 -1
    outer loop
      vertex -6 40 0
      vertex -0.262276 9.04211 0
      vertex -6 0 0
    endloop
  endfacet
  facet normal 0 0 -1
    outer loop
      vertex -0.262276 9.04211 0
      vertex 0.773474 7.43045 0
      vertex -6 0 0
    endloop
  endfacet
  facet normal 0 0 -1
    outer loop
      vertex 4.41241 6.90725 0
      vertex 9 0 0
      vertex 2.51613 6.63461 0
    endloop
  endfacet
  facet normal 0 0 -1
    outer loop
      vertex 5.86026 8.16182 0
      vertex 9 0 0
      vertex 4.41241 6.90725 0
    endloop
  endfacet
  facet normal 0 0 -1
    outer loop
      vertex 9 40 0
      vertex 9 0 0
      vertex 6.4 10 0
    endloop
  endfacet
  facet normal 0 0 -1
    outer loop
      vertex 9 40 0
      vertex 6.4 10 0
      vertex 5.86026 11.8382 0
    endloop
  endfacet
  facet normal 0 0 -1
    outer loop
      vertex -0.262276 29.0421 0
      vertex 5.86026 11.8382 0
      vertex -6 40 0
    endloop
  endfacet
  facet normal -0 -0 -1
    outer loop
      vertex 4.41241 13.0927 0
      vertex -6 40 0
      vertex 5.86026 11.8382 0
    endloop
  endfacet
  facet normal -0 -0 -1
    outer loop
      vertex 2.51613 13.3654 0
      vertex -6 40 0
      vertex 4.41241 13.0927 0
    endloop
  endfacet
  facet normal 0 -0 -1
    outer loop
      vertex 0.773474 12.5695 0
      vertex -6 40 0
      vertex 2.51613 13.3654 0
    endloop
  endfacet
  facet normal -0 0 -1
    outer loop
      vertex 5.86026 31.8382 0
      vertex 9 40 0
      vertex 6.4 30 0
    endloop
  endfacet
  facet normal 0 0 -1
    outer loop
      vertex -6 40 0
      vertex 0.773474 12.5695 0
      vertex -0.262276 10.9579 0
    endloop
  endfacet
  facet normal 0 0 -1
    outer loop
      vertex -6 40 0
      vertex -0.262276 10.9579 0
      vertex -0.262276 9.04211 0
    endloop
  endfacet
  facet normal 0 0 -1
    outer loop
      vertex 0.773474 27.4305 0
      vertex 5.86026 11.8382 0
      vertex -0.262276 29.0421 0
    endloop
  endfacet
  facet normal 0 0 -1
    outer loop
      vertex -0.262276 30.9579 0
      vertex -0.262276 29.0421 0
      vertex -6 40 0
    endloop
  endfacet
  facet normal 0 0 -1
    outer loop
      vertex 2.51613 26.6346 0
      vertex 5.86026 11.8382 0
      vertex 0.773474 27.4305 0
    endloop
  endfacet
  facet normal 0 0 -1
    outer loop
      vertex 4.41241 26.9073 0
      vertex 5.86026 11.8382 0
      vertex 2.51613 26.6346 0
    endloop
  endfacet
  facet normal 0 0 -1
    outer loop
      vertex 5.86026 28.1618 0
      vertex 5.86026 11.8382 0
      vertex 4.41241 26.9073 0
    endloop
  endfacet
  facet normal 0 0 -1
    outer loop
      vertex 6.4 30 0
      vertex 5.86026 11.8382 0
      vertex 5.86026 28.1618 0
    endloop
  endfacet
  facet normal 0 0 -1
    outer loop
      vertex 9 40 0
      vertex 5.86026 11.8382 0
      vertex 6.4 30 0
    endloop
  endfacet
  facet normal -0 0 -1
    outer loop
      vertex 4.41241 33.0927 0
      vertex 9 40 0
      vertex 5.86026 31.8382 0
    endloop
  endfacet
  facet normal -0 0 -1
    outer loop
      vertex 2.51613 33.3654 0
      vertex 9 40 0
      vertex 4.41241 33.0927 0
    endloop
  endfacet
  facet normal 0 0 -1
    outer loop
      vertex 9 40 0
      vertex 2.51613 33.3654 0
      vertex -6 40 0
    endloop
  endfacet
  facet normal 0 0 -1
    outer loop
      vertex 2.51613 33.3654 0
      vertex 0.773474 32.5695 0
      vertex -6 40 0
    endloop
  endfacet
  facet normal 0 0 -1
    outer loop
      vertex 0.773474 32.5695 0
      vertex -0.262276 30.9579 0
      vertex -6 40 0
    endloop
  endfacet
  facet normal 0 0 -1
    outer loop
      vertex 2.51613 6.63461 0
      vertex 9 0 0
      vertex 0.773474 7.43045 0
    endloop
  endfacet
  facet normal 0 1 0
    outer loop
      vertex -6 40 0
      vertex -6 40 29
      vertex 9 40 0
    endloop
  endfacet
  facet normal 0 1 0
    outer loop
      vertex 9 40 0
      vertex -6 40 29
      vertex 9 40 29
    endloop
  endfacet
  facet normal 0 -0 1
    outer loop
      vertex 1.08658 5.3806 29
      vertex -6 0 29
      vertex 9 0 29
    endloop
  endfacet
  facet normal 0 -0 1
    outer loop
      vertex 7.6194 8.08658 29
      vertex 6.53553 6.46447 29
      vertex 9 0 29
    endloop
  endfacet
  facet normal -0 -0 1
    outer loop
      vertex -0.535534 26.4645 29
      vertex -1.6194 28.0866 29
      vertex 3 15 29
    endloop
  endfacet
  facet normal 0 -0 1
    outer loop
      vertex -2 10 29
      vertex -6 0 29
      vertex -1.6194 8.08658 29
    endloop
  endfacet
  facet normal 0 -0 1
    outer loop
      vertex -6 40 29
      vertex -6 0 29
      vertex -2 10 29
    endloop
  endfacet
  facet normal -0 -0 1
    outer loop
      vertex 3 5 29
      vertex 1.08658 5.3806 29
      vertex 9 0 29
    endloop
  endfacet
  facet normal 0 -0 1
    outer loop
      vertex 4.91342 5.3806 29
      vertex 3 5 29
      vertex 9 0 29
    endloop
  endfacet
  facet normal 0 0 1
    outer loop
      vertex -6 40 29
      vertex -1.6194 11.9134 29
      vertex -0.535534 13.5355 29
    endloop
  endfacet
  facet normal 0 0 1
    outer loop
      vertex 7.6194 28.0866 29
      vertex 6.53553 26.4645 29
      vertex 4.91342 14.6194 29
    endloop
  endfacet
  facet normal 0 0 1
    outer loop
      vertex -6 40 29
      vertex -0.535534 13.5355 29
      vertex 1.08658 14.6194 29
    endloop
  endfacet
  facet normal 0 0 1
    outer loop
      vertex -6 40 29
      vertex 1.08658 14.6194 29
      vertex 3 15 29
    endloop
  endfacet
  facet normal 0 0 1
    outer loop
      vertex 7.6194 28.0866 29
      vertex 4.91342 14.6194 29
      vertex 6.53553 13.5355 29
    endloop
  endfacet
  facet normal 0 0 1
    outer loop
      vertex 9 40 29
      vertex 6.53553 13.5355 29
      vertex 7.6194 11.9134 29
    endloop
  endfacet
  facet normal 0 0 1
    outer loop
      vertex 9 40 29
      vertex 8 10 29
      vertex 9 0 29
    endloop
  endfacet
  facet normal 0 0 1
    outer loop
      vertex 9 40 29
      vertex 7.6194 11.9134 29
      vertex 8 10 29
    endloop
  endfacet
  facet normal 0 -0 1
    outer loop
      vertex 6.53553 6.46447 29
      vertex 4.91342 5.3806 29
      vertex 9 0 29
    endloop
  endfacet
  facet normal 0 -0 1
    outer loop
      vertex -0.535534 6.46447 29
      vertex -6 0 29
      vertex 1.08658 5.3806 29
    endloop
  endfacet
  facet normal 0 -0 1
    outer loop
      vertex -1.6194 8.08658 29
      vertex -6 0 29
      vertex -0.535534 6.46447 29
    endloop
  endfacet
  facet normal 0 0 1
    outer loop
      vertex -6 40 29
      vertex 3 15 29
      vertex -1.6194 28.0866 29
    endloop
  endfacet
  facet normal 0 -0 1
    outer loop
      vertex 8 10 29
      vertex 7.6194 8.08658 29
      vertex 9 0 29
    endloop
  endfacet
  facet normal 0 0 1
    outer loop
      vertex 1.08658 34.6194 29
      vertex 3 35 29
      vertex 9 40 29
    endloop
  endfacet
  facet normal -0 0 1
    outer loop
      vertex -0.535534 33.5355 29
      vertex -6 40 29
      vertex -1.6194 31.9134 29
    endloop
  endfacet
  facet normal 0 0 1
    outer loop
      vertex 9 40 29
      vertex -6 40 29
      vertex -0.535534 33.5355 29
    endloop
  endfacet
  facet normal 0 0 1
    outer loop
      vertex 7.6194 31.9134 29
      vertex 8 30 29
      vertex 9 40 29
    endloop
  endfacet
  facet normal 0 0 1
    outer loop
      vertex 9 40 29
      vertex -0.535534 33.5355 29
      vertex 1.08658 34.6194 29
    endloop
  endfacet
  facet normal 0 0 1
    outer loop
      vertex 6.53553 26.4645 29
      vertex 4.91342 25.3806 29
      vertex 4.91342 14.6194 29
    endloop
  endfacet
  facet normal 0 0 1
    outer loop
      vertex 9 40 29
      vertex 3 35 29
      vertex 4.91342 34.6194 29
    endloop
  endfacet
  facet normal 0 0 1
    outer loop
      vertex 4.91342 25.3806 29
      vertex 3 25 29
      vertex 4.91342 14.6194 29
    endloop
  endfacet
  facet normal 0 0 1
    outer loop
      vertex 9 40 29
      vertex 4.91342 34.6194 29
      vertex 6.53553 33.5355 29
    endloop
  endfacet
  facet normal 0 0 1
    outer loop
      vertex 9 40 29
      vertex 6.53553 33.5355 29
      vertex 7.6194 31.9134 29
    endloop
  endfacet
  facet normal 0 0 1
    outer loop
      vertex 9 40 29
      vertex 8 30 29
      vertex 6.53553 13.5355 29
    endloop
  endfacet
  facet normal 0 0 1
    outer loop
      vertex 8 30 29
      vertex 7.6194 28.0866 29
      vertex 6.53553 13.5355 29
    endloop
  endfacet
  facet normal -0 -0 1
    outer loop
      vertex 1.08658 25.3806 29
      vertex -0.535534 26.4645 29
      vertex 4.91342 14.6194 29
    endloop
  endfacet
  facet normal -0 -0 1
    outer loop
      vertex 3 25 29
      vertex 1.08658 25.3806 29
      vertex 4.91342 14.6194 29
    endloop
  endfacet
  facet normal 0 0 1
    outer loop
      vertex -2 10 29
      vertex -1.6194 11.9134 29
      vertex -6 40 29
    endloop
  endfacet
  facet normal 0 0 1
    outer loop
      vertex -1.6194 28.0866 29
      vertex -2 30 29
      vertex -6 40 29
    endloop
  endfacet
  facet normal 0 0 1
    outer loop
      vertex -2 30 29
      vertex -1.6194 31.9134 29
      vertex -6 40 29
    endloop
  endfacet
  facet normal 0 0 1
    outer loop
      vertex 3 15 29
      vertex 4.91342 14.6194 29
      vertex -0.535534 26.4645 29
    endloop
  endfacet
  facet normal 0 0.970942 -0.239316
    outer loop
      vertex -0.5 12.3329 22.9078
      vertex -0.5 11.8598 20.9884
      vertex -6 12.3329 22.9078
    endloop
  endfacet
  facet normal 0 0.970942 -0.239316
    outer loop
      vertex -6 12.3329 22.9078
      vertex -0.5 11.8598 20.9884
      vertex -6 11.8598 20.9884
    endloop
  endfacet
  facet normal 0 1 -0
    outer loop
      vertex -0.5 11.8598 20.9884
      vertex -0.5 11.8598 19.0116
      vertex -6 11.8598 20.9884
    endloop
  endfacet
  facet normal 0 1 -0
    outer loop
      vertex -6 11.8598 20.9884
      vertex -0.5 11.8598 19.0116
      vertex -6 11.8598 19.0116
    endloop
  endfacet
  facet normal 3.13009e-16 0.885456 -0.464723
    outer loop
      vertex -0.725298 13.2515 24.6581
      vertex -0.85089 13.0636 24.3
      vertex -6 13.2515 24.6581
    endloop
  endfacet
  facet normal 0 0.885456 -0.464723
    outer loop
      vertex -0.5 12.3329 22.9078
      vertex -0.85089 13.0636 24.3
      vertex -0.5 13.0636 24.3
    endloop
  endfacet
  facet normal 5.93744e-17 0.885456 -0.464723
    outer loop
      vertex -6 13.2515 24.6581
      vertex -0.85089 13.0636 24.3
      vertex -0.5 12.3329 22.9078
    endloop
  endfacet
  facet normal 0 0.885456 -0.464723
    outer loop
      vertex -6 13.2515 24.6581
      vertex -0.5 12.3329 22.9078
      vertex -6 12.3329 22.9078
    endloop
  endfacet
  facet normal 4.28343e-16 0.748511 -0.663123
    outer loop
      vertex -0.5 14.5624 26.1378
      vertex -0.5 13.5593 25.0055
      vertex -6 14.5624 26.1378
    endloop
  endfacet
  facet normal -2.51199e-15 0.748511 -0.663123
    outer loop
      vertex -6 14.5624 26.1378
      vertex -0.5 13.5593 25.0055
      vertex -0.535534 13.5355 24.9787
    endloop
  endfacet
  facet normal -7.07919e-16 0.748511 -0.663123
    outer loop
      vertex -6 14.5624 26.1378
      vertex -0.535534 13.5355 24.9787
      vertex -0.725298 13.2515 24.6581
    endloop
  endfacet
  facet normal 4.44361e-16 0.748511 -0.663123
    outer loop
      vertex -6 14.5624 26.1378
      vertex -0.725298 13.2515 24.6581
      vertex -6 13.2515 24.6581
    endloop
  endfacet
  facet normal 5.31605e-16 0.568065 -0.822984
    outer loop
      vertex -0.5 16.1893 27.2607
      vertex -0.5 14.5624 26.1378
      vertex -6 16.1893 27.2607
    endloop
  endfacet
  facet normal 5.40565e-16 0.568065 -0.822984
    outer loop
      vertex -6 16.1893 27.2607
      vertex -0.5 14.5624 26.1378
      vertex -6 14.5624 26.1378
    endloop
  endfacet
  facet normal 0 0.354605 -0.935016
    outer loop
      vertex -0.5 18.0376 27.9617
      vertex -0.5 16.1893 27.2607
      vertex -6 18.0376 27.9617
    endloop
  endfacet
  facet normal 5.98482e-16 0.354605 -0.935016
    outer loop
      vertex -6 18.0376 27.9617
      vertex -0.5 16.1893 27.2607
      vertex -6 16.1893 27.2607
    endloop
  endfacet
  facet normal 0 0.120537 -0.992709
    outer loop
      vertex -0.5 20 28.2
      vertex -0.5 18.0376 27.9617
      vertex -6 20 28.2
    endloop
  endfacet
  facet normal 0 0.120537 -0.992709
    outer loop
      vertex -6 20 28.2
      vertex -0.5 18.0376 27.9617
      vertex -6 18.0376 27.9617
    endloop
  endfacet
  facet normal 0 -0.120537 -0.992709
    outer loop
      vertex -0.5 21.9624 27.9617
      vertex -0.5 20 28.2
      vertex -6 21.9624 27.9617
    endloop
  endfacet
  facet normal 0 -0.120537 -0.992709
    outer loop
      vertex -6 21.9624 27.9617
      vertex -0.5 20 28.2
      vertex -6 20 28.2
    endloop
  endfacet
  facet normal 6.03972e-16 -0.354605 -0.935016
    outer loop
      vertex -0.5 23.8107 27.2607
      vertex -0.5 21.9624 27.9617
      vertex -6 23.8107 27.2607
    endloop
  endfacet
  facet normal 0 -0.354605 -0.935016
    outer loop
      vertex -6 23.8107 27.2607
      vertex -0.5 21.9624 27.9617
      vertex -6 21.9624 27.9617
    endloop
  endfacet
  facet normal 5.31605e-16 -0.568065 -0.822984
    outer loop
      vertex -0.5 25.4376 26.1378
      vertex -0.5 23.8107 27.2607
      vertex -6 25.4376 26.1378
    endloop
  endfacet
  facet normal 5.21259e-16 -0.568065 -0.822984
    outer loop
      vertex -6 25.4376 26.1378
      vertex -0.5 23.8107 27.2607
      vertex -6 23.8107 27.2607
    endloop
  endfacet
  facet normal 4.46639e-16 -0.748511 -0.663123
    outer loop
      vertex -6 26.7485 24.6581
      vertex -0.725298 26.7485 24.6581
      vertex -0.535534 26.4645 24.9787
    endloop
  endfacet
  facet normal -2.11757e-15 -0.748511 -0.663123
    outer loop
      vertex -0.5 26.4407 25.0055
      vertex -6 26.7485 24.6581
      vertex -0.535534 26.4645 24.9787
    endloop
  endfacet
  facet normal -1.89215e-17 -0.748511 -0.663123
    outer loop
      vertex -0.5 26.4407 25.0055
      vertex -0.5 25.4376 26.1378
      vertex -6 26.7485 24.6581
    endloop
  endfacet
  facet normal 4.28343e-16 -0.748511 -0.663123
    outer loop
      vertex -0.5 25.4376 26.1378
      vertex -6 25.4376 26.1378
      vertex -6 26.7485 24.6581
    endloop
  endfacet
  facet normal -0 -0.885456 -0.464723
    outer loop
      vertex -6 27.6671 22.9078
      vertex -0.5 27.6671 22.9078
      vertex -0.5 26.9364 24.3
    endloop
  endfacet
  facet normal -3.12352e-15 -0.885456 -0.464723
    outer loop
      vertex -0.725298 26.7485 24.6581
      vertex -6 27.6671 22.9078
      vertex -0.85089 26.9364 24.3
    endloop
  endfacet
  facet normal -0 -0.885456 -0.464723
    outer loop
      vertex -0.85089 26.9364 24.3
      vertex -6 27.6671 22.9078
      vertex -0.5 26.9364 24.3
    endloop
  endfacet
  facet normal 3.13009e-16 -0.885456 -0.464723
    outer loop
      vertex -6 26.7485 24.6581
      vertex -6 27.6671 22.9078
      vertex -0.725298 26.7485 24.6581
    endloop
  endfacet
  facet normal -0 -0.970942 -0.239316
    outer loop
      vertex -6 28.1402 20.9884
      vertex -0.5 28.1402 20.9884
      vertex -0.5 27.6671 22.9078
    endloop
  endfacet
  facet normal -0 -0.970942 -0.239316
    outer loop
      vertex -6 27.6671 22.9078
      vertex -6 28.1402 20.9884
      vertex -0.5 27.6671 22.9078
    endloop
  endfacet
  facet normal 0 -1 0
    outer loop
      vertex -0.5 28.1402 19.0116
      vertex -0.5 28.1402 20.9884
      vertex -6 28.1402 20.9884
    endloop
  endfacet
  facet normal 0 -1 -0
    outer loop
      vertex -6 28.1402 19.0116
      vertex -0.5 28.1402 19.0116
      vertex -6 28.1402 20.9884
    endloop
  endfacet
  facet normal -1.54447e-16 -0.970942 0.239316
    outer loop
      vertex -0.5 27.6671 17.0922
      vertex -0.5 28.1402 19.0116
      vertex -6 28.1402 19.0116
    endloop
  endfacet
  facet normal 0 -0.970942 0.239316
    outer loop
      vertex -6 27.6671 17.0922
      vertex -0.5 27.6671 17.0922
      vertex -6 28.1402 19.0116
    endloop
  endfacet
  facet normal 0 -0.885456 0.464723
    outer loop
      vertex -0.5 26.7485 15.3419
      vertex -0.5 27.6671 17.0922
      vertex -6 27.6671 17.0922
    endloop
  endfacet
  facet normal -1.50093e-16 -0.885456 0.464723
    outer loop
      vertex -6 26.7485 15.3419
      vertex -0.5 26.7485 15.3419
      vertex -6 27.6671 17.0922
    endloop
  endfacet
  facet normal -1.93059e-16 -0.748511 0.663123
    outer loop
      vertex -0.5 25.4376 13.8622
      vertex -0.5 26.7485 15.3419
      vertex -6 26.7485 15.3419
    endloop
  endfacet
  facet normal -2.14171e-16 -0.748511 0.663123
    outer loop
      vertex -6 25.4376 13.8622
      vertex -0.5 25.4376 13.8622
      vertex -6 26.7485 15.3419
    endloop
  endfacet
  facet normal -2.50977e-16 -0.568065 0.822984
    outer loop
      vertex -0.5 23.8107 12.7393
      vertex -0.5 25.4376 13.8622
      vertex -6 25.4376 13.8622
    endloop
  endfacet
  facet normal -2.65802e-16 -0.568065 0.822984
    outer loop
      vertex -6 23.8107 12.7393
      vertex -0.5 23.8107 12.7393
      vertex -6 25.4376 13.8622
    endloop
  endfacet
  facet normal -2.70282e-16 -0.354605 0.935016
    outer loop
      vertex -0.5 21.9624 12.0383
      vertex -0.5 23.8107 12.7393
      vertex -6 23.8107 12.7393
    endloop
  endfacet
  facet normal 0 -0.354605 0.935016
    outer loop
      vertex -6 21.9624 12.0383
      vertex -0.5 21.9624 12.0383
      vertex -6 23.8107 12.7393
    endloop
  endfacet
  facet normal 0 -0.120537 0.992709
    outer loop
      vertex -0.5 20 11.8
      vertex -0.5 21.9624 12.0383
      vertex -6 21.9624 12.0383
    endloop
  endfacet
  facet normal 0 -0.120537 0.992709
    outer loop
      vertex -6 20 11.8
      vertex -0.5 20 11.8
      vertex -6 21.9624 12.0383
    endloop
  endfacet
  facet normal 0 0.120537 0.992709
    outer loop
      vertex -0.5 18.0376 12.0383
      vertex -0.5 20 11.8
      vertex -6 20 11.8
    endloop
  endfacet
  facet normal 0 0.120537 0.992709
    outer loop
      vertex -6 18.0376 12.0383
      vertex -0.5 18.0376 12.0383
      vertex -6 20 11.8
    endloop
  endfacet
  facet normal 0 0.354605 0.935016
    outer loop
      vertex -0.5 16.1893 12.7393
      vertex -0.5 18.0376 12.0383
      vertex -6 18.0376 12.0383
    endloop
  endfacet
  facet normal -3.01986e-16 0.354605 0.935016
    outer loop
      vertex -6 16.1893 12.7393
      vertex -0.5 16.1893 12.7393
      vertex -6 18.0376 12.0383
    endloop
  endfacet
  facet normal -2.70282e-16 0.568065 0.822984
    outer loop
      vertex -0.5 14.5624 13.8622
      vertex -0.5 16.1893 12.7393
      vertex -6 16.1893 12.7393
    endloop
  endfacet
  facet normal -2.65802e-16 0.568065 0.822984
    outer loop
      vertex -6 14.5624 13.8622
      vertex -0.5 14.5624 13.8622
      vertex -6 16.1893 12.7393
    endloop
  endfacet
  facet normal -2.14171e-16 0.748511 0.663123
    outer loop
      vertex -0.5 14.5624 13.8622
      vertex -6 14.5624 13.8622
      vertex -0.5 13.2515 15.3419
    endloop
  endfacet
  facet normal -2.14171e-16 0.748511 0.663123
    outer loop
      vertex -0.5 13.2515 15.3419
      vertex -6 14.5624 13.8622
      vertex -6 13.2515 15.3419
    endloop
  endfacet
  facet normal -1.50093e-16 0.885456 0.464723
    outer loop
      vertex -0.5 13.2515 15.3419
      vertex -6 13.2515 15.3419
      vertex -0.5 12.3329 17.0922
    endloop
  endfacet
  facet normal -0 0.885456 0.464723
    outer loop
      vertex -0.5 12.3329 17.0922
      vertex -6 13.2515 15.3419
      vertex -6 12.3329 17.0922
    endloop
  endfacet
  facet normal -0 0.970942 0.239316
    outer loop
      vertex -0.5 12.3329 17.0922
      vertex -6 12.3329 17.0922
      vertex -0.5 11.8598 19.0116
    endloop
  endfacet
  facet normal -1.54586e-16 0.970942 0.239316
    outer loop
      vertex -0.5 11.8598 19.0116
      vertex -6 12.3329 17.0922
      vertex -6 11.8598 19.0116
    endloop
  endfacet
  facet normal 1 0 -0
    outer loop
      vertex 9 18.1189 14.8317
      vertex 9 0 0
      vertex 9 40 0
    endloop
  endfacet
  facet normal 1 -0 -0
    outer loop
      vertex 9 20 14.5
      vertex 9 18.1189 14.8317
      vertex 9 40 0
    endloop
  endfacet
  facet normal 1 -0 0
    outer loop
      vertex 9 14.5836 20.9551
      vertex 9 0 29
      vertex 9 14.5836 19.0449
    endloop
  endfacet
  facet normal 1 0 -0
    outer loop
      vertex 9 21.8811 14.8317
      vertex 9 20 14.5
      vertex 9 40 0
    endloop
  endfacet
  facet normal 1 -0 0
    outer loop
      vertex 9 15.2369 22.75
      vertex 9 0 29
      vertex 9 14.5836 20.9551
    endloop
  endfacet
  facet normal 1 -0 0
    outer loop
      vertex 9 16.4647 24.2132
      vertex 9 0 29
      vertex 9 15.2369 22.75
    endloop
  endfacet
  facet normal 1 -0 0
    outer loop
      vertex 9 18.1189 25.1683
      vertex 9 0 29
      vertex 9 16.4647 24.2132
    endloop
  endfacet
  facet normal 1 0 0
    outer loop
      vertex 9 21.8811 25.1683
      vertex 9 23.5353 24.2132
      vertex 9 40 29
    endloop
  endfacet
  facet normal 1 -0 0
    outer loop
      vertex 9 20 25.5
      vertex 9 0 29
      vertex 9 18.1189 25.1683
    endloop
  endfacet
  facet normal 1 0 0
    outer loop
      vertex 9 23.5353 24.2132
      vertex 9 24.7631 22.75
      vertex 9 40 29
    endloop
  endfacet
  facet normal 1 0 0
    outer loop
      vertex 9 40 29
      vertex 9 0 29
      vertex 9 20 25.5
    endloop
  endfacet
  facet normal 1 0 0
    outer loop
      vertex 9 40 29
      vertex 9 24.7631 22.75
      vertex 9 40 0
    endloop
  endfacet
  facet normal 1 0 0
    outer loop
      vertex 9 24.7631 22.75
      vertex 9 25.4164 20.9551
      vertex 9 40 0
    endloop
  endfacet
  facet normal 1 0 -0
    outer loop
      vertex 9 25.4164 20.9551
      vertex 9 25.4164 19.0449
      vertex 9 40 0
    endloop
  endfacet
  facet normal 1 0 -0
    outer loop
      vertex 9 25.4164 19.0449
      vertex 9 24.7631 17.25
      vertex 9 40 0
    endloop
  endfacet
  facet normal 1 0 -0
    outer loop
      vertex 9 24.7631 17.25
      vertex 9 23.5353 15.7868
      vertex 9 40 0
    endloop
  endfacet
  facet normal 1 0 -0
    outer loop
      vertex 9 23.5353 15.7868
      vertex 9 21.8811 14.8317
      vertex 9 40 0
    endloop
  endfacet
  facet normal 1 0 -0
    outer loop
      vertex 9 16.4647 15.7868
      vertex 9 0 0
      vertex 9 18.1189 14.8317
    endloop
  endfacet
  facet normal 1 0 -0
    outer loop
      vertex 9 0 29
      vertex 9 0 0
      vertex 9 16.4647 15.7868
    endloop
  endfacet
  facet normal 1 0 0
    outer loop
      vertex 9 20 25.5
      vertex 9 21.8811 25.1683
      vertex 9 40 29
    endloop
  endfacet
  facet normal 1 0 0
    outer loop
      vertex 9 16.4647 15.7868
      vertex 9 15.2369 17.25
      vertex 9 0 29
    endloop
  endfacet
  facet normal 1 0 0
    outer loop
      vertex 9 15.2369 17.25
      vertex 9 14.5836 19.0449
      vertex 9 0 29
    endloop
  endfacet
  facet normal 1 0 0
    outer loop
      vertex -0.262276 10.9579 0
      vertex -0.262276 10.9579 24.3
      vertex -0.262276 9.04211 24.3
    endloop
  endfacet
  facet normal 1 0 0
    outer loop
      vertex -0.262276 9.04211 0
      vertex -0.262276 10.9579 0
      vertex -0.262276 9.04211 24.3
    endloop
  endfacet
  facet normal 0.841253 0.540641 0
    outer loop
      vertex -0.262276 9.04211 24.3
      vertex 0.773474 7.43045 24.3
      vertex 0.773474 7.43045 0
    endloop
  endfacet
  facet normal 0.841253 0.540641 0
    outer loop
      vertex -0.262276 9.04211 0
      vertex -0.262276 9.04211 24.3
      vertex 0.773474 7.43045 0
    endloop
  endfacet
  facet normal 0.841253 -0.540641 0
    outer loop
      vertex 0.773474 12.5695 0
      vertex 0.773474 12.5695 24.3
      vertex -0.262276 10.9579 24.3
    endloop
  endfacet
  facet normal 0.841253 -0.540641 0
    outer loop
      vertex -0.262276 10.9579 0
      vertex 0.773474 12.5695 0
      vertex -0.262276 10.9579 24.3
    endloop
  endfacet
  facet normal 0.415415 -0.909632 0
    outer loop
      vertex 2.51613 13.3654 0
      vertex 2.51613 13.3654 24.3
      vertex 0.773474 12.5695 24.3
    endloop
  endfacet
  facet normal 0.415415 -0.909632 0
    outer loop
      vertex 0.773474 12.5695 0
      vertex 2.51613 13.3654 0
      vertex 0.773474 12.5695 24.3
    endloop
  endfacet
  facet normal -0.142315 -0.989821 -0
    outer loop
      vertex 4.41241 13.0927 0
      vertex 4.41241 13.0927 24.3
      vertex 2.51613 13.3654 24.3
    endloop
  endfacet
  facet normal -0.142315 -0.989821 -0
    outer loop
      vertex 2.51613 13.3654 0
      vertex 4.41241 13.0927 0
      vertex 2.51613 13.3654 24.3
    endloop
  endfacet
  facet normal -0.654861 -0.75575 -0
    outer loop
      vertex 5.86026 11.8382 0
      vertex 5.86026 11.8382 24.3
      vertex 4.41241 13.0927 24.3
    endloop
  endfacet
  facet normal -0.654861 -0.75575 -0
    outer loop
      vertex 4.41241 13.0927 0
      vertex 5.86026 11.8382 0
      vertex 4.41241 13.0927 24.3
    endloop
  endfacet
  facet normal -0.959493 -0.281733 0
    outer loop
      vertex 6.4 10 24.3
      vertex 5.86026 11.8382 24.3
      vertex 6.4 10 0
    endloop
  endfacet
  facet normal -0.959493 -0.281733 0
    outer loop
      vertex 6.4 10 0
      vertex 5.86026 11.8382 24.3
      vertex 5.86026 11.8382 0
    endloop
  endfacet
  facet normal -0.959493 0.281733 0
    outer loop
      vertex 6.4 10 24.3
      vertex 6.4 10 0
      vertex 5.86026 8.16182 24.3
    endloop
  endfacet
  facet normal -0.959493 0.281733 0
    outer loop
      vertex 5.86026 8.16182 24.3
      vertex 6.4 10 0
      vertex 5.86026 8.16182 0
    endloop
  endfacet
  facet normal -0.654861 0.75575 0
    outer loop
      vertex 5.86026 8.16182 24.3
      vertex 5.86026 8.16182 0
      vertex 4.41241 6.90725 24.3
    endloop
  endfacet
  facet normal -0.654861 0.75575 0
    outer loop
      vertex 4.41241 6.90725 24.3
      vertex 5.86026 8.16182 0
      vertex 4.41241 6.90725 0
    endloop
  endfacet
  facet normal -0.142315 0.989821 0
    outer loop
      vertex 4.41241 6.90725 24.3
      vertex 4.41241 6.90725 0
      vertex 2.51613 6.63461 24.3
    endloop
  endfacet
  facet normal -0.142315 0.989821 0
    outer loop
      vertex 2.51613 6.63461 24.3
      vertex 4.41241 6.90725 0
      vertex 2.51613 6.63461 0
    endloop
  endfacet
  facet normal 0.415415 0.909632 -0
    outer loop
      vertex 2.51613 6.63461 24.3
      vertex 2.51613 6.63461 0
      vertex 0.773474 7.43045 24.3
    endloop
  endfacet
  facet normal 0.415415 0.909632 -0
    outer loop
      vertex 0.773474 7.43045 24.3
      vertex 2.51613 6.63461 0
      vertex 0.773474 7.43045 0
    endloop
  endfacet
  facet normal 1 0 0
    outer loop
      vertex -0.262276 30.9579 0
      vertex -0.262276 30.9579 24.3
      vertex -0.262276 29.0421 24.3
    endloop
  endfacet
  facet normal 1 0 0
    outer loop
      vertex -0.262276 29.0421 0
      vertex -0.262276 30.9579 0
      vertex -0.262276 29.0421 24.3
    endloop
  endfacet
  facet normal 0.841253 0.540641 0
    outer loop
      vertex -0.262276 29.0421 24.3
      vertex 0.773474 27.4305 24.3
      vertex 0.773474 27.4305 0
    endloop
  endfacet
  facet normal 0.841253 0.540641 0
    outer loop
      vertex -0.262276 29.0421 0
      vertex -0.262276 29.0421 24.3
      vertex 0.773474 27.4305 0
    endloop
  endfacet
  facet normal 0.841253 -0.540641 0
    outer loop
      vertex 0.773474 32.5695 0
      vertex 0.773474 32.5695 24.3
      vertex -0.262276 30.9579 24.3
    endloop
  endfacet
  facet normal 0.841253 -0.540641 0
    outer loop
      vertex -0.262276 30.9579 0
      vertex 0.773474 32.5695 0
      vertex -0.262276 30.9579 24.3
    endloop
  endfacet
  facet normal 0.415415 -0.909632 0
    outer loop
      vertex 2.51613 33.3654 0
      vertex 2.51613 33.3654 24.3
      vertex 0.773474 32.5695 24.3
    endloop
  endfacet
  facet normal 0.415415 -0.909632 0
    outer loop
      vertex 0.773474 32.5695 0
      vertex 2.51613 33.3654 0
      vertex 0.773474 32.5695 24.3
    endloop
  endfacet
  facet normal -0.142315 -0.989821 -0
    outer loop
      vertex 4.41241 33.0927 0
      vertex 4.41241 33.0927 24.3
      vertex 2.51613 33.3654 24.3
    endloop
  endfacet
  facet normal -0.142315 -0.989821 -0
    outer loop
      vertex 2.51613 33.3654 0
      vertex 4.41241 33.0927 0
      vertex 2.51613 33.3654 24.3
    endloop
  endfacet
  facet normal -0.654861 -0.75575 -0
    outer loop
      vertex 5.86026 31.8382 0
      vertex 5.86026 31.8382 24.3
      vertex 4.41241 33.0927 24.3
    endloop
  endfacet
  facet normal -0.654861 -0.75575 -0
    outer loop
      vertex 4.41241 33.0927 0
      vertex 5.86026 31.8382 0
      vertex 4.41241 33.0927 24.3
    endloop
  endfacet
  facet normal -0.959493 -0.281733 0
    outer loop
      vertex 6.4 30 24.3
      vertex 5.86026 31.8382 24.3
      vertex 6.4 30 0
    endloop
  endfacet
  facet normal -0.959493 -0.281733 0
    outer loop
      vertex 6.4 30 0
      vertex 5.86026 31.8382 24.3
      vertex 5.86026 31.8382 0
    endloop
  endfacet
  facet normal -0.959493 0.281733 0
    outer loop
      vertex 6.4 30 24.3
      vertex 6.4 30 0
      vertex 5.86026 28.1618 24.3
    endloop
  endfacet
  facet normal -0.959493 0.281733 0
    outer loop
      vertex 5.86026 28.1618 24.3
      vertex 6.4 30 0
      vertex 5.86026 28.1618 0
    endloop
  endfacet
  facet normal -0.654861 0.75575 0
    outer loop
      vertex 5.86026 28.1618 24.3
      vertex 5.86026 28.1618 0
      vertex 4.41241 26.9073 24.3
    endloop
  endfacet
  facet normal -0.654861 0.75575 0
    outer loop
      vertex 4.41241 26.9073 24.3
      vertex 5.86026 28.1618 0
      vertex 4.41241 26.9073 0
    endloop
  endfacet
  facet normal -0.142315 0.989821 0
    outer loop
      vertex 4.41241 26.9073 24.3
      vertex 4.41241 26.9073 0
      vertex 2.51613 26.6346 24.3
    endloop
  endfacet
  facet normal -0.142315 0.989821 0
    outer loop
      vertex 2.51613 26.6346 24.3
      vertex 4.41241 26.9073 0
      vertex 2.51613 26.6346 0
    endloop
  endfacet
  facet normal 0.415415 0.909632 -0
    outer loop
      vertex 2.51613 26.6346 24.3
      vertex 2.51613 26.6346 0
      vertex 0.773474 27.4305 24.3
    endloop
  endfacet
  facet normal 0.415415 0.909632 -0
    outer loop
      vertex 0.773474 27.4305 24.3
      vertex 2.51613 26.6346 0
      vertex 0.773474 27.4305 0
    endloop
  endfacet
  facet normal 0.980785 0.19509 0
    outer loop
      vertex -2 10 29
      vertex -1.6194 8.08658 29
      vertex -1.6194 8.08658 24.3
    endloop
  endfacet
  facet normal 0.980785 0.19509 0
    outer loop
      vertex -2 10 24.3
      vertex -2 10 29
      vertex -1.6194 8.08658 24.3
    endloop
  endfacet
  facet normal 0.83147 0.55557 0
    outer loop
      vertex -1.6194 8.08658 29
      vertex -0.535534 6.46447 29
      vertex -0.535534 6.46447 24.3
    endloop
  endfacet
  facet normal 0.83147 0.55557 0
    outer loop
      vertex -1.6194 8.08658 24.3
      vertex -1.6194 8.08658 29
      vertex -0.535534 6.46447 24.3
    endloop
  endfacet
  facet normal 0.55557 0.83147 -0
    outer loop
      vertex 1.08658 5.3806 29
      vertex 1.08658 5.3806 24.3
      vertex -0.535534 6.46447 29
    endloop
  endfacet
  facet normal 0.55557 0.83147 -0
    outer loop
      vertex -0.535534 6.46447 29
      vertex 1.08658 5.3806 24.3
      vertex -0.535534 6.46447 24.3
    endloop
  endfacet
  facet normal 0.19509 0.980785 -0
    outer loop
      vertex 3 5 29
      vertex 3 5 24.3
      vertex 1.08658 5.3806 29
    endloop
  endfacet
  facet normal 0.19509 0.980785 -0
    outer loop
      vertex 1.08658 5.3806 29
      vertex 3 5 24.3
      vertex 1.08658 5.3806 24.3
    endloop
  endfacet
  facet normal -0.19509 0.980785 0
    outer loop
      vertex 4.91342 5.3806 29
      vertex 4.91342 5.3806 24.3
      vertex 3 5 29
    endloop
  endfacet
  facet normal -0.19509 0.980785 0
    outer loop
      vertex 3 5 29
      vertex 4.91342 5.3806 24.3
      vertex 3 5 24.3
    endloop
  endfacet
  facet normal -0.55557 0.83147 0
    outer loop
      vertex 6.53553 6.46447 29
      vertex 6.53553 6.46447 24.3
      vertex 4.91342 5.3806 29
    endloop
  endfacet
  facet normal -0.55557 0.83147 0
    outer loop
      vertex 4.91342 5.3806 29
      vertex 6.53553 6.46447 24.3
      vertex 4.91342 5.3806 24.3
    endloop
  endfacet
  facet normal -0.83147 0.55557 0
    outer loop
      vertex 7.6194 8.08658 29
      vertex 7.6194 8.08658 24.3
      vertex 6.53553 6.46447 29
    endloop
  endfacet
  facet normal -0.83147 0.55557 0
    outer loop
      vertex 6.53553 6.46447 29
      vertex 7.6194 8.08658 24.3
      vertex 6.53553 6.46447 24.3
    endloop
  endfacet
  facet normal -0.980785 0.19509 0
    outer loop
      vertex 8 10 29
      vertex 8 10 24.3
      vertex 7.6194 8.08658 29
    endloop
  endfacet
  facet normal -0.980785 0.19509 0
    outer loop
      vertex 7.6194 8.08658 29
      vertex 8 10 24.3
      vertex 7.6194 8.08658 24.3
    endloop
  endfacet
  facet normal -0.980785 -0.19509 0
    outer loop
      vertex 8 10 29
      vertex 7.6194 11.9134 29
      vertex 8 10 24.3
    endloop
  endfacet
  facet normal -0.980785 -0.19509 0
    outer loop
      vertex 8 10 24.3
      vertex 7.6194 11.9134 29
      vertex 7.6194 11.9134 24.3
    endloop
  endfacet
  facet normal -0.83147 -0.55557 0
    outer loop
      vertex 7.6194 11.9134 29
      vertex 6.53553 13.5355 29
      vertex 7.6194 11.9134 24.3
    endloop
  endfacet
  facet normal -0.83147 -0.55557 0
    outer loop
      vertex 7.6194 11.9134 24.3
      vertex 6.53553 13.5355 29
      vertex 6.53553 13.5355 24.3
    endloop
  endfacet
  facet normal -0.55557 -0.83147 -0
    outer loop
      vertex 6.53553 13.5355 24.3
      vertex 6.53553 13.5355 29
      vertex 4.91342 14.6194 29
    endloop
  endfacet
  facet normal -0.55557 -0.83147 -0
    outer loop
      vertex 4.91342 14.6194 24.3
      vertex 6.53553 13.5355 24.3
      vertex 4.91342 14.6194 29
    endloop
  endfacet
  facet normal -0.19509 -0.980785 -0
    outer loop
      vertex 4.91342 14.6194 24.3
      vertex 4.91342 14.6194 29
      vertex 3 15 29
    endloop
  endfacet
  facet normal -0.19509 -0.980785 -0
    outer loop
      vertex 3 15 24.3
      vertex 4.91342 14.6194 24.3
      vertex 3 15 29
    endloop
  endfacet
  facet normal 0.19509 -0.980785 0
    outer loop
      vertex 3 15 24.3
      vertex 3 15 29
      vertex 1.08658 14.6194 29
    endloop
  endfacet
  facet normal 0.19509 -0.980785 0
    outer loop
      vertex 1.08658 14.6194 24.3
      vertex 3 15 24.3
      vertex 1.08658 14.6194 29
    endloop
  endfacet
  facet normal 0.55557 -0.83147 1.74856e-16
    outer loop
      vertex -0.5 13.5593 25.0055
      vertex -0.5 13.5593 24.3
      vertex 1.08658 14.6194 24.3
    endloop
  endfacet
  facet normal 0.55557 -0.83147 -2.39751e-16
    outer loop
      vertex -0.535534 13.5355 29
      vertex -0.5 13.5593 25.0055
      vertex 1.08658 14.6194 29
    endloop
  endfacet
  facet normal 0.55557 -0.83147 0
    outer loop
      vertex 1.08658 14.6194 29
      vertex -0.5 13.5593 25.0055
      vertex 1.08658 14.6194 24.3
    endloop
  endfacet
  facet normal 0.55557 -0.83147 0
    outer loop
      vertex -0.535534 13.5355 24.9787
      vertex -0.5 13.5593 25.0055
      vertex -0.535534 13.5355 29
    endloop
  endfacet
  facet normal 0.83147 -0.55557 3.345e-17
    outer loop
      vertex -0.85089 13.0636 24.3
      vertex -0.725298 13.2515 24.6581
      vertex -0.535534 13.5355 29
    endloop
  endfacet
  facet normal 0.83147 -0.55557 0
    outer loop
      vertex -0.535534 13.5355 29
      vertex -0.725298 13.2515 24.6581
      vertex -0.535534 13.5355 24.9787
    endloop
  endfacet
  facet normal 0.83147 -0.55557 -5.85087e-17
    outer loop
      vertex -0.85089 13.0636 24.3
      vertex -0.535534 13.5355 29
      vertex -1.6194 11.9134 29
    endloop
  endfacet
  facet normal 0.83147 -0.55557 0
    outer loop
      vertex -0.85089 13.0636 24.3
      vertex -1.6194 11.9134 29
      vertex -1.6194 11.9134 24.3
    endloop
  endfacet
  facet normal 0.980785 -0.19509 0
    outer loop
      vertex -1.6194 11.9134 24.3
      vertex -1.6194 11.9134 29
      vertex -2 10 29
    endloop
  endfacet
  facet normal 0.980785 -0.19509 0
    outer loop
      vertex -2 10 24.3
      vertex -1.6194 11.9134 24.3
      vertex -2 10 29
    endloop
  endfacet
  facet normal 0.980785 0.19509 0
    outer loop
      vertex -2 30 29
      vertex -1.6194 28.0866 29
      vertex -1.6194 28.0866 24.3
    endloop
  endfacet
  facet normal 0.980785 0.19509 0
    outer loop
      vertex -2 30 24.3
      vertex -2 30 29
      vertex -1.6194 28.0866 24.3
    endloop
  endfacet
  facet normal 0.83147 0.55557 0
    outer loop
      vertex -1.6194 28.0866 29
      vertex -0.535534 26.4645 29
      vertex -0.535534 26.4645 24.9787
    endloop
  endfacet
  facet normal 0.83147 0.55557 -1.0331e-15
    outer loop
      vertex -0.85089 26.9364 24.3
      vertex -1.6194 28.0866 29
      vertex -0.725298 26.7485 24.6581
    endloop
  endfacet
  facet normal 0.83147 0.55557 8.50719e-16
    outer loop
      vertex -0.725298 26.7485 24.6581
      vertex -1.6194 28.0866 29
      vertex -0.535534 26.4645 24.9787
    endloop
  endfacet
  facet normal 0.83147 0.55557 0
    outer loop
      vertex -1.6194 28.0866 24.3
      vertex -1.6194 28.0866 29
      vertex -0.85089 26.9364 24.3
    endloop
  endfacet
  facet normal 0.55557 0.83147 -0
    outer loop
      vertex 1.08658 25.3806 29
      vertex 1.08658 25.3806 24.3
      vertex -0.535534 26.4645 29
    endloop
  endfacet
  facet normal 0.55557 0.83147 1.74856e-16
    outer loop
      vertex -0.5 26.4407 25.0055
      vertex 1.08658 25.3806 24.3
      vertex -0.5 26.4407 24.3
    endloop
  endfacet
  facet normal 0.55557 0.83147 1.24923e-16
    outer loop
      vertex -0.535534 26.4645 29
      vertex 1.08658 25.3806 24.3
      vertex -0.5 26.4407 25.0055
    endloop
  endfacet
  facet normal 0.55557 0.83147 0
    outer loop
      vertex -0.535534 26.4645 24.9787
      vertex -0.535534 26.4645 29
      vertex -0.5 26.4407 25.0055
    endloop
  endfacet
  facet normal 0.19509 0.980785 -0
    outer loop
      vertex 3 25 29
      vertex 3 25 24.3
      vertex 1.08658 25.3806 29
    endloop
  endfacet
  facet normal 0.19509 0.980785 -0
    outer loop
      vertex 1.08658 25.3806 29
      vertex 3 25 24.3
      vertex 1.08658 25.3806 24.3
    endloop
  endfacet
  facet normal -0.19509 0.980785 0
    outer loop
      vertex 4.91342 25.3806 29
      vertex 4.91342 25.3806 24.3
      vertex 3 25 29
    endloop
  endfacet
  facet normal -0.19509 0.980785 0
    outer loop
      vertex 3 25 29
      vertex 4.91342 25.3806 24.3
      vertex 3 25 24.3
    endloop
  endfacet
  facet normal -0.55557 0.83147 0
    outer loop
      vertex 6.53553 26.4645 29
      vertex 6.53553 26.4645 24.3
      vertex 4.91342 25.3806 29
    endloop
  endfacet
  facet normal -0.55557 0.83147 0
    outer loop
      vertex 4.91342 25.3806 29
      vertex 6.53553 26.4645 24.3
      vertex 4.91342 25.3806 24.3
    endloop
  endfacet
  facet normal -0.83147 0.55557 0
    outer loop
      vertex 7.6194 28.0866 29
      vertex 7.6194 28.0866 24.3
      vertex 6.53553 26.4645 29
    endloop
  endfacet
  facet normal -0.83147 0.55557 0
    outer loop
      vertex 6.53553 26.4645 29
      vertex 7.6194 28.0866 24.3
      vertex 6.53553 26.4645 24.3
    endloop
  endfacet
  facet normal -0.980785 0.19509 0
    outer loop
      vertex 8 30 29
      vertex 8 30 24.3
      vertex 7.6194 28.0866 29
    endloop
  endfacet
  facet normal -0.980785 0.19509 0
    outer loop
      vertex 7.6194 28.0866 29
      vertex 8 30 24.3
      vertex 7.6194 28.0866 24.3
    endloop
  endfacet
  facet normal -0.980785 -0.19509 0
    outer loop
      vertex 8 30 29
      vertex 7.6194 31.9134 29
      vertex 8 30 24.3
    endloop
  endfacet
  facet normal -0.980785 -0.19509 0
    outer loop
      vertex 8 30 24.3
      vertex 7.6194 31.9134 29
      vertex 7.6194 31.9134 24.3
    endloop
  endfacet
  facet normal -0.83147 -0.55557 0
    outer loop
      vertex 7.6194 31.9134 29
      vertex 6.53553 33.5355 29
      vertex 7.6194 31.9134 24.3
    endloop
  endfacet
  facet normal -0.83147 -0.55557 0
    outer loop
      vertex 7.6194 31.9134 24.3
      vertex 6.53553 33.5355 29
      vertex 6.53553 33.5355 24.3
    endloop
  endfacet
  facet normal -0.55557 -0.83147 -0
    outer loop
      vertex 6.53553 33.5355 24.3
      vertex 6.53553 33.5355 29
      vertex 4.91342 34.6194 29
    endloop
  endfacet
  facet normal -0.55557 -0.83147 -0
    outer loop
      vertex 4.91342 34.6194 24.3
      vertex 6.53553 33.5355 24.3
      vertex 4.91342 34.6194 29
    endloop
  endfacet
  facet normal -0.19509 -0.980785 -0
    outer loop
      vertex 4.91342 34.6194 24.3
      vertex 4.91342 34.6194 29
      vertex 3 35 29
    endloop
  endfacet
  facet normal -0.19509 -0.980785 -0
    outer loop
      vertex 3 35 24.3
      vertex 4.91342 34.6194 24.3
      vertex 3 35 29
    endloop
  endfacet
  facet normal 0.19509 -0.980785 0
    outer loop
      vertex 3 35 24.3
      vertex 3 35 29
      vertex 1.08658 34.6194 29
    endloop
  endfacet
  facet normal 0.19509 -0.980785 0
    outer loop
      vertex 1.08658 34.6194 24.3
      vertex 3 35 24.3
      vertex 1.08658 34.6194 29
    endloop
  endfacet
  facet normal 0.55557 -0.83147 0
    outer loop
      vertex 1.08658 34.6194 24.3
      vertex 1.08658 34.6194 29
      vertex -0.535534 33.5355 29
    endloop
  endfacet
  facet normal 0.55557 -0.83147 0
    outer loop
      vertex -0.535534 33.5355 24.3
      vertex 1.08658 34.6194 24.3
      vertex -0.535534 33.5355 29
    endloop
  endfacet
  facet normal 0.83147 -0.55557 0
    outer loop
      vertex -0.535534 33.5355 24.3
      vertex -0.535534 33.5355 29
      vertex -1.6194 31.9134 29
    endloop
  endfacet
  facet normal 0.83147 -0.55557 0
    outer loop
      vertex -1.6194 31.9134 24.3
      vertex -0.535534 33.5355 24.3
      vertex -1.6194 31.9134 29
    endloop
  endfacet
  facet normal 0.980785 -0.19509 0
    outer loop
      vertex -1.6194 31.9134 24.3
      vertex -1.6194 31.9134 29
      vertex -2 30 29
    endloop
  endfacet
  facet normal 0.980785 -0.19509 0
    outer loop
      vertex -2 30 24.3
      vertex -1.6194 31.9134 24.3
      vertex -2 30 29
    endloop
  endfacet
  facet normal -1 -3.31241e-17 -2.45722e-16
    outer loop
      vertex -0.5 23.8107 27.2607
      vertex -0.5 25.4376 26.1378
      vertex -0.5 21.9624 27.9617
    endloop
  endfacet
  facet normal -1 -1.32371e-17 -2.0783e-16
    outer loop
      vertex -0.5 21.9624 27.9617
      vertex -0.5 25.4376 26.1378
      vertex -0.5 26.4407 25.0055
    endloop
  endfacet
  facet normal -1 -8.38048e-17 -3.14732e-16
    outer loop
      vertex -0.5 21.9624 27.9617
      vertex -0.5 26.4407 25.0055
      vertex -0.5 26.4407 24.3
    endloop
  endfacet
  facet normal -1 -0 -2.39231e-16
    outer loop
      vertex -0.5 26.4407 24.3
      vertex -0.5 26.9364 24.3
      vertex -0.5 27.6671 22.9078
    endloop
  endfacet
  facet normal -1 -7.88989e-17 -3.08732e-16
    outer loop
      vertex -0.5 26.4407 24.3
      vertex -0.5 27.6671 22.9078
      vertex -0.5 21.9624 27.9617
    endloop
  endfacet
  facet normal -1 -1.32609e-17 -2.34642e-16
    outer loop
      vertex -0.5 21.9624 27.9617
      vertex -0.5 27.6671 22.9078
      vertex -0.5 28.1402 20.9884
    endloop
  endfacet
  facet normal -1 6.14121e-17 -1.68488e-16
    outer loop
      vertex -0.5 21.9624 27.9617
      vertex -0.5 28.1402 20.9884
      vertex -0.5 28.1402 19.0116
    endloop
  endfacet
  facet normal -1 -2.04284e-17 -2.26339e-16
    outer loop
      vertex -0.5 24.7631 22.75
      vertex -0.5 28.1402 19.0116
      vertex -0.5 27.6671 17.0922
    endloop
  endfacet
  facet normal -1 3.2348e-18 -2.23695e-16
    outer loop
      vertex -0.5 25.4164 19.0449
      vertex -0.5 27.6671 17.0922
      vertex -0.5 26.7485 15.3419
    endloop
  endfacet
  facet normal -1 3.96485e-18 -2.2861e-16
    outer loop
      vertex -0.5 24.7631 17.25
      vertex -0.5 26.7485 15.3419
      vertex -0.5 25.4376 13.8622
    endloop
  endfacet
  facet normal -1 -6.73567e-18 -2.37408e-16
    outer loop
      vertex -0.5 23.5353 15.7868
      vertex -0.5 25.4376 13.8622
      vertex -0.5 23.8107 12.7393
    endloop
  endfacet
  facet normal -1 -1.73933e-18 -2.18644e-16
    outer loop
      vertex -0.5 21.8811 14.8317
      vertex -0.5 21.9624 12.0383
      vertex -0.5 20 11.8
    endloop
  endfacet
  facet normal -1 8.2718e-19 -2.26157e-16
    outer loop
      vertex -0.5 20 14.5
      vertex -0.5 20 11.8
      vertex -0.5 18.0376 12.0383
    endloop
  endfacet
  facet normal -1 -2.25866e-17 -2.17937e-16
    outer loop
      vertex -0.5 18.1189 14.8317
      vertex -0.5 18.0376 12.0383
      vertex -0.5 16.1893 12.7393
    endloop
  endfacet
  facet normal -1 6.73567e-18 -2.37408e-16
    outer loop
      vertex -0.5 16.4647 15.7868
      vertex -0.5 16.1893 12.7393
      vertex -0.5 14.5624 13.8622
    endloop
  endfacet
  facet normal -1 -3.96485e-18 -2.2861e-16
    outer loop
      vertex -0.5 15.2369 17.25
      vertex -0.5 14.5624 13.8622
      vertex -0.5 13.2515 15.3419
    endloop
  endfacet
  facet normal -1 -3.2348e-18 -2.23695e-16
    outer loop
      vertex -0.5 14.5836 19.0449
      vertex -0.5 13.2515 15.3419
      vertex -0.5 12.3329 17.0922
    endloop
  endfacet
  facet normal -1 3.64057e-17 -2.224e-16
    outer loop
      vertex -0.5 14.5836 20.9551
      vertex -0.5 12.3329 17.0922
      vertex -0.5 11.8598 19.0116
    endloop
  endfacet
  facet normal -1 -4.36121e-17 -1.68488e-16
    outer loop
      vertex -0.5 15.2369 22.75
      vertex -0.5 11.8598 19.0116
      vertex -0.5 11.8598 20.9884
    endloop
  endfacet
  facet normal -1 -8.13963e-18 -2.29367e-16
    outer loop
      vertex -0.5 16.4647 24.2132
      vertex -0.5 11.8598 20.9884
      vertex -0.5 12.3329 22.9078
    endloop
  endfacet
  facet normal -1 0 -2.39231e-16
    outer loop
      vertex -0.5 13.5593 24.3
      vertex -0.5 12.3329 22.9078
      vertex -0.5 13.0636 24.3
    endloop
  endfacet
  facet normal -1 1.90904e-17 -2.56048e-16
    outer loop
      vertex -0.5 21.9624 27.9617
      vertex -0.5 12.3329 22.9078
      vertex -0.5 13.5593 24.3
    endloop
  endfacet
  facet normal -1 -1.15701e-17 -2.20697e-16
    outer loop
      vertex -0.5 15.2369 17.25
      vertex -0.5 13.2515 15.3419
      vertex -0.5 14.5836 19.0449
    endloop
  endfacet
  facet normal -1 -3.16608e-17 -1.55159e-16
    outer loop
      vertex -0.5 18.1189 25.1683
      vertex -0.5 21.9624 27.9617
      vertex -0.5 20 25.5
    endloop
  endfacet
  facet normal -1 4.25518e-18 -1.99873e-16
    outer loop
      vertex -0.5 21.9624 27.9617
      vertex -0.5 13.5593 25.0055
      vertex -0.5 14.5624 26.1378
    endloop
  endfacet
  facet normal -1 5.79823e-18 -2.06133e-16
    outer loop
      vertex -0.5 21.9624 27.9617
      vertex -0.5 14.5624 26.1378
      vertex -0.5 16.1893 27.2607
    endloop
  endfacet
  facet normal -1 0 -1.58381e-16
    outer loop
      vertex -0.5 21.9624 27.9617
      vertex -0.5 16.1893 27.2607
      vertex -0.5 18.0376 27.9617
    endloop
  endfacet
  facet normal -1 0 -4.65938e-16
    outer loop
      vertex -0.5 21.9624 27.9617
      vertex -0.5 18.0376 27.9617
      vertex -0.5 20 28.2
    endloop
  endfacet
  facet normal -1 -9.48235e-17 -6.82525e-17
    outer loop
      vertex -0.5 16.4647 24.2132
      vertex -0.5 21.9624 27.9617
      vertex -0.5 18.1189 25.1683
    endloop
  endfacet
  facet normal -1 -2.27025e-17 -2.08573e-16
    outer loop
      vertex -0.5 15.2369 22.75
      vertex -0.5 11.8598 20.9884
      vertex -0.5 16.4647 24.2132
    endloop
  endfacet
  facet normal -1 -2.81477e-17 -1.66043e-16
    outer loop
      vertex -0.5 21.9624 27.9617
      vertex -0.5 16.4647 24.2132
      vertex -0.5 12.3329 22.9078
    endloop
  endfacet
  facet normal -1 7.32842e-17 -2.74086e-16
    outer loop
      vertex -0.5 14.5836 20.9551
      vertex -0.5 11.8598 19.0116
      vertex -0.5 15.2369 22.75
    endloop
  endfacet
  facet normal -1 -1.71165e-18 -2.29059e-16
    outer loop
      vertex -0.5 16.4647 15.7868
      vertex -0.5 14.5624 13.8622
      vertex -0.5 15.2369 17.25
    endloop
  endfacet
  facet normal -1 -2.36377e-18 -2.36586e-16
    outer loop
      vertex -0.5 18.1189 14.8317
      vertex -0.5 16.1893 12.7393
      vertex -0.5 16.4647 15.7868
    endloop
  endfacet
  facet normal -1 -8.98813e-18 -2.18332e-16
    outer loop
      vertex -0.5 20 14.5
      vertex -0.5 18.0376 12.0383
      vertex -0.5 18.1189 14.8317
    endloop
  endfacet
  facet normal -1 1.03678e-17 -2.26157e-16
    outer loop
      vertex -0.5 21.8811 14.8317
      vertex -0.5 20 11.8
      vertex -0.5 20 14.5
    endloop
  endfacet
  facet normal -1 2.87548e-17 -2.34201e-16
    outer loop
      vertex -0.5 23.5353 15.7868
      vertex -0.5 23.8107 12.7393
      vertex -0.5 21.9624 12.0383
    endloop
  endfacet
  facet normal -1 1.71165e-18 -2.29059e-16
    outer loop
      vertex -0.5 24.7631 17.25
      vertex -0.5 25.4376 13.8622
      vertex -0.5 23.5353 15.7868
    endloop
  endfacet
  facet normal -1 1.15701e-17 -2.20697e-16
    outer loop
      vertex -0.5 25.4164 19.0449
      vertex -0.5 26.7485 15.3419
      vertex -0.5 24.7631 17.25
    endloop
  endfacet
  facet normal -1 4.60305e-17 -1.74369e-16
    outer loop
      vertex -0.5 25.4164 20.9551
      vertex -0.5 27.6671 17.0922
      vertex -0.5 25.4164 19.0449
    endloop
  endfacet
  facet normal -1 -2.11373e-16 -3.24346e-16
    outer loop
      vertex -0.5 24.7631 22.75
      vertex -0.5 27.6671 17.0922
      vertex -0.5 25.4164 20.9551
    endloop
  endfacet
  facet normal -1 -1.40443e-17 -2.20572e-16
    outer loop
      vertex -0.5 21.9624 27.9617
      vertex -0.5 28.1402 19.0116
      vertex -0.5 24.7631 22.75
    endloop
  endfacet
  facet normal -1 4.83852e-17 -1.87022e-16
    outer loop
      vertex -0.5 23.5353 24.2132
      vertex -0.5 21.9624 27.9617
      vertex -0.5 24.7631 22.75
    endloop
  endfacet
  facet normal -1 1.91751e-17 -1.99279e-16
    outer loop
      vertex -0.5 21.8811 25.1683
      vertex -0.5 21.9624 27.9617
      vertex -0.5 23.5353 24.2132
    endloop
  endfacet
  facet normal -1 2.38571e-17 -1.99416e-16
    outer loop
      vertex -0.5 20 25.5
      vertex -0.5 21.9624 27.9617
      vertex -0.5 21.8811 25.1683
    endloop
  endfacet
  facet normal -1 -7.89141e-18 -2.18823e-16
    outer loop
      vertex -0.5 23.5353 15.7868
      vertex -0.5 21.9624 12.0383
      vertex -0.5 21.8811 14.8317
    endloop
  endfacet
  facet normal -1 4.46627e-17 -3.14732e-16
    outer loop
      vertex -0.5 13.5593 25.0055
      vertex -0.5 21.9624 27.9617
      vertex -0.5 13.5593 24.3
    endloop
  endfacet
  facet normal -1 -4.60305e-17 -1.74369e-16
    outer loop
      vertex -0.5 14.5836 19.0449
      vertex -0.5 12.3329 17.0922
      vertex -0.5 14.5836 20.9551
    endloop
  endfacet
  facet normal 0 0 1
    outer loop
      vertex -1.6194 11.9134 24.3
      vertex -2 10 24.3
      vertex -1.6194 8.08658 24.3
    endloop
  endfacet
  facet normal 0 0 1
    outer loop
      vertex 1.08658 5.3806 24.3
      vertex -1.6194 11.9134 24.3
      vertex -0.535534 6.46447 24.3
    endloop
  endfacet
  facet normal 0 0 1
    outer loop
      vertex -0.535534 6.46447 24.3
      vertex -1.6194 11.9134 24.3
      vertex -1.6194 8.08658 24.3
    endloop
  endfacet
  facet normal -0 -0 1
    outer loop
      vertex -0.262276 9.04211 24.3
      vertex -1.6194 11.9134 24.3
      vertex 1.08658 5.3806 24.3
    endloop
  endfacet
  facet normal 0 -0 1
    outer loop
      vertex 5.86026 8.16182 24.3
      vertex 4.41241 6.90725 24.3
      vertex 6.53553 6.46447 24.3
    endloop
  endfacet
  facet normal 0 -0 1
    outer loop
      vertex 3 15 24.3
      vertex -1.6194 11.9134 24.3
      vertex 4.91342 14.6194 24.3
    endloop
  endfacet
  facet normal 0 -0 1
    outer loop
      vertex 1.08658 14.6194 24.3
      vertex -1.6194 11.9134 24.3
      vertex 3 15 24.3
    endloop
  endfacet
  facet normal 0 -0 1
    outer loop
      vertex -0.5 13.0636 24.3
      vertex -1.6194 11.9134 24.3
      vertex 1.08658 14.6194 24.3
    endloop
  endfacet
  facet normal 0 -0 1
    outer loop
      vertex -0.5 13.5593 24.3
      vertex -0.5 13.0636 24.3
      vertex 1.08658 14.6194 24.3
    endloop
  endfacet
  facet normal -0 -0 1
    outer loop
      vertex 0.773474 7.43045 24.3
      vertex -0.262276 9.04211 24.3
      vertex 1.08658 5.3806 24.3
    endloop
  endfacet
  facet normal 0 -0 1
    outer loop
      vertex 6.4 10 24.3
      vertex 5.86026 8.16182 24.3
      vertex 7.6194 8.08658 24.3
    endloop
  endfacet
  facet normal 0 0 1
    outer loop
      vertex 4.41241 13.0927 24.3
      vertex 5.86026 11.8382 24.3
      vertex 7.6194 11.9134 24.3
    endloop
  endfacet
  facet normal 0 0 1
    outer loop
      vertex 4.91342 14.6194 24.3
      vertex -1.6194 11.9134 24.3
      vertex 0.773474 12.5695 24.3
    endloop
  endfacet
  facet normal 0 -0 1
    outer loop
      vertex 4.91342 14.6194 24.3
      vertex 2.51613 13.3654 24.3
      vertex 6.53553 13.5355 24.3
    endloop
  endfacet
  facet normal 0 0 1
    outer loop
      vertex 4.91342 14.6194 24.3
      vertex 0.773474 12.5695 24.3
      vertex 2.51613 13.3654 24.3
    endloop
  endfacet
  facet normal 0 -0 1
    outer loop
      vertex 6.53553 13.5355 24.3
      vertex 4.41241 13.0927 24.3
      vertex 7.6194 11.9134 24.3
    endloop
  endfacet
  facet normal 0 0 1
    outer loop
      vertex 2.51613 13.3654 24.3
      vertex 4.41241 13.0927 24.3
      vertex 6.53553 13.5355 24.3
    endloop
  endfacet
  facet normal 0 -0 1
    outer loop
      vertex 7.6194 11.9134 24.3
      vertex 5.86026 11.8382 24.3
      vertex 8 10 24.3
    endloop
  endfacet
  facet normal 0 0 1
    outer loop
      vertex 8 10 24.3
      vertex 6.4 10 24.3
      vertex 7.6194 8.08658 24.3
    endloop
  endfacet
  facet normal -0 0 1
    outer loop
      vertex 7.6194 8.08658 24.3
      vertex 5.86026 8.16182 24.3
      vertex 6.53553 6.46447 24.3
    endloop
  endfacet
  facet normal -0 0 1
    outer loop
      vertex 6.53553 6.46447 24.3
      vertex 4.41241 6.90725 24.3
      vertex 4.91342 5.3806 24.3
    endloop
  endfacet
  facet normal -0 0 1
    outer loop
      vertex 4.91342 5.3806 24.3
      vertex 2.51613 6.63461 24.3
      vertex 3 5 24.3
    endloop
  endfacet
  facet normal 0 0 1
    outer loop
      vertex 5.86026 11.8382 24.3
      vertex 6.4 10 24.3
      vertex 8 10 24.3
    endloop
  endfacet
  facet normal 0 0 1
    outer loop
      vertex 3 5 24.3
      vertex 0.773474 7.43045 24.3
      vertex 1.08658 5.3806 24.3
    endloop
  endfacet
  facet normal 0 0 1
    outer loop
      vertex -0.5 13.0636 24.3
      vertex -0.85089 13.0636 24.3
      vertex -1.6194 11.9134 24.3
    endloop
  endfacet
  facet normal 0 0 1
    outer loop
      vertex -0.262276 9.04211 24.3
      vertex -0.262276 10.9579 24.3
      vertex -1.6194 11.9134 24.3
    endloop
  endfacet
  facet normal -0 -0 1
    outer loop
      vertex 2.51613 6.63461 24.3
      vertex 0.773474 7.43045 24.3
      vertex 3 5 24.3
    endloop
  endfacet
  facet normal 0 -0 1
    outer loop
      vertex 4.41241 6.90725 24.3
      vertex 2.51613 6.63461 24.3
      vertex 4.91342 5.3806 24.3
    endloop
  endfacet
  facet normal 0 0 1
    outer loop
      vertex -0.262276 10.9579 24.3
      vertex 0.773474 12.5695 24.3
      vertex -1.6194 11.9134 24.3
    endloop
  endfacet
  facet normal 0 0 1
    outer loop
      vertex -1.6194 31.9134 24.3
      vertex -2 30 24.3
      vertex -1.6194 28.0866 24.3
    endloop
  endfacet
  facet normal -0 0 1
    outer loop
      vertex -0.5 26.9364 24.3
      vertex -1.6194 31.9134 24.3
      vertex -0.85089 26.9364 24.3
    endloop
  endfacet
  facet normal 0 0 1
    outer loop
      vertex -0.85089 26.9364 24.3
      vertex -1.6194 31.9134 24.3
      vertex -1.6194 28.0866 24.3
    endloop
  endfacet
  facet normal 0 0 1
    outer loop
      vertex 1.08658 25.3806 24.3
      vertex -1.6194 31.9134 24.3
      vertex -0.5 26.9364 24.3
    endloop
  endfacet
  facet normal 0 0 1
    outer loop
      vertex 1.08658 25.3806 24.3
      vertex -0.5 26.9364 24.3
      vertex -0.5 26.4407 24.3
    endloop
  endfacet
  facet normal -0 -0 1
    outer loop
      vertex -0.262276 29.0421 24.3
      vertex -1.6194 31.9134 24.3
      vertex 1.08658 25.3806 24.3
    endloop
  endfacet
  facet normal 0 -0 1
    outer loop
      vertex 5.86026 28.1618 24.3
      vertex 4.41241 26.9073 24.3
      vertex 6.53553 26.4645 24.3
    endloop
  endfacet
  facet normal 0 -0 1
    outer loop
      vertex 3 35 24.3
      vertex -1.6194 31.9134 24.3
      vertex 4.91342 34.6194 24.3
    endloop
  endfacet
  facet normal 0 -0 1
    outer loop
      vertex 1.08658 34.6194 24.3
      vertex -1.6194 31.9134 24.3
      vertex 3 35 24.3
    endloop
  endfacet
  facet normal 0 -0 1
    outer loop
      vertex -0.535534 33.5355 24.3
      vertex -1.6194 31.9134 24.3
      vertex 1.08658 34.6194 24.3
    endloop
  endfacet
  facet normal -0 -0 1
    outer loop
      vertex 0.773474 27.4305 24.3
      vertex -0.262276 29.0421 24.3
      vertex 1.08658 25.3806 24.3
    endloop
  endfacet
  facet normal 0 -0 1
    outer loop
      vertex 6.4 30 24.3
      vertex 5.86026 28.1618 24.3
      vertex 7.6194 28.0866 24.3
    endloop
  endfacet
  facet normal 0 0 1
    outer loop
      vertex 4.41241 33.0927 24.3
      vertex 5.86026 31.8382 24.3
      vertex 7.6194 31.9134 24.3
    endloop
  endfacet
  facet normal 0 0 1
    outer loop
      vertex 4.91342 34.6194 24.3
      vertex -1.6194 31.9134 24.3
      vertex 0.773474 32.5695 24.3
    endloop
  endfacet
  facet normal 0 -0 1
    outer loop
      vertex 4.91342 34.6194 24.3
      vertex 2.51613 33.3654 24.3
      vertex 6.53553 33.5355 24.3
    endloop
  endfacet
  facet normal 0 0 1
    outer loop
      vertex 4.91342 34.6194 24.3
      vertex 0.773474 32.5695 24.3
      vertex 2.51613 33.3654 24.3
    endloop
  endfacet
  facet normal 0 -0 1
    outer loop
      vertex 6.53553 33.5355 24.3
      vertex 4.41241 33.0927 24.3
      vertex 7.6194 31.9134 24.3
    endloop
  endfacet
  facet normal 0 0 1
    outer loop
      vertex 2.51613 33.3654 24.3
      vertex 4.41241 33.0927 24.3
      vertex 6.53553 33.5355 24.3
    endloop
  endfacet
  facet normal 0 -0 1
    outer loop
      vertex 7.6194 31.9134 24.3
      vertex 5.86026 31.8382 24.3
      vertex 8 30 24.3
    endloop
  endfacet
  facet normal 0 0 1
    outer loop
      vertex 8 30 24.3
      vertex 6.4 30 24.3
      vertex 7.6194 28.0866 24.3
    endloop
  endfacet
  facet normal -0 0 1
    outer loop
      vertex 7.6194 28.0866 24.3
      vertex 5.86026 28.1618 24.3
      vertex 6.53553 26.4645 24.3
    endloop
  endfacet
  facet normal -0 0 1
    outer loop
      vertex 6.53553 26.4645 24.3
      vertex 4.41241 26.9073 24.3
      vertex 4.91342 25.3806 24.3
    endloop
  endfacet
  facet normal -0 0 1
    outer loop
      vertex 4.91342 25.3806 24.3
      vertex 2.51613 26.6346 24.3
      vertex 3 25 24.3
    endloop
  endfacet
  facet normal 0 0 1
    outer loop
      vertex 5.86026 31.8382 24.3
      vertex 6.4 30 24.3
      vertex 8 30 24.3
    endloop
  endfacet
  facet normal 0 0 1
    outer loop
      vertex 3 25 24.3
      vertex 0.773474 27.4305 24.3
      vertex 1.08658 25.3806 24.3
    endloop
  endfacet
  facet normal 0 0 1
    outer loop
      vertex -0.262276 29.0421 24.3
      vertex -0.262276 30.9579 24.3
      vertex -1.6194 31.9134 24.3
    endloop
  endfacet
  facet normal -0 -0 1
    outer loop
      vertex 2.51613 26.6346 24.3
      vertex 0.773474 27.4305 24.3
      vertex 3 25 24.3
    endloop
  endfacet
  facet normal 0 -0 1
    outer loop
      vertex 4.41241 26.9073 24.3
      vertex 2.51613 26.6346 24.3
      vertex 4.91342 25.3806 24.3
    endloop
  endfacet
  facet normal 0 0 1
    outer loop
      vertex -0.262276 30.9579 24.3
      vertex 0.773474 32.5695 24.3
      vertex -1.6194 31.9134 24.3
    endloop
  endfacet
  facet normal -0 1 0
    outer loop
      vertex 9 14.5836 19.0449
      vertex -0.5 14.5836 19.0449
      vertex 9 14.5836 20.9551
    endloop
  endfacet
  facet normal 0 1 0
    outer loop
      vertex 9 14.5836 20.9551
      vertex -0.5 14.5836 19.0449
      vertex -0.5 14.5836 20.9551
    endloop
  endfacet
  facet normal -0 0.939693 0.34202
    outer loop
      vertex 9 15.2369 17.25
      vertex -0.5 15.2369 17.25
      vertex 9 14.5836 19.0449
    endloop
  endfacet
  facet normal -1.27905e-16 0.939693 0.34202
    outer loop
      vertex 9 14.5836 19.0449
      vertex -0.5 15.2369 17.25
      vertex -0.5 14.5836 19.0449
    endloop
  endfacet
  facet normal -1.20192e-16 0.766044 0.642788
    outer loop
      vertex 9 16.4647 15.7868
      vertex -0.5 16.4647 15.7868
      vertex 9 15.2369 17.25
    endloop
  endfacet
  facet normal -0 0.766044 0.642788
    outer loop
      vertex 9 15.2369 17.25
      vertex -0.5 16.4647 15.7868
      vertex -0.5 15.2369 17.25
    endloop
  endfacet
  facet normal -3.2785e-16 0.5 0.866025
    outer loop
      vertex 9 16.4647 15.7868
      vertex 9 18.1189 14.8317
      vertex -0.5 18.1189 14.8317
    endloop
  endfacet
  facet normal -1.61934e-16 0.5 0.866025
    outer loop
      vertex -0.5 16.4647 15.7868
      vertex 9 16.4647 15.7868
      vertex -0.5 18.1189 14.8317
    endloop
  endfacet
  facet normal -1.8118e-16 0.173648 0.984808
    outer loop
      vertex 9 18.1189 14.8317
      vertex 9 20 14.5
      vertex -0.5 20 14.5
    endloop
  endfacet
  facet normal -3.68288e-16 0.173648 0.984808
    outer loop
      vertex -0.5 18.1189 14.8317
      vertex 9 18.1189 14.8317
      vertex -0.5 20 14.5
    endloop
  endfacet
  facet normal -1.84144e-16 -0.173648 0.984808
    outer loop
      vertex -0.5 20 14.5
      vertex 9 20 14.5
      vertex 9 21.8811 14.8317
    endloop
  endfacet
  facet normal -3.68288e-16 -0.173648 0.984808
    outer loop
      vertex -0.5 21.8811 14.8317
      vertex -0.5 20 14.5
      vertex 9 21.8811 14.8317
    endloop
  endfacet
  facet normal -3.23867e-16 -0.5 0.866025
    outer loop
      vertex -0.5 21.8811 14.8317
      vertex 9 21.8811 14.8317
      vertex 9 23.5353 15.7868
    endloop
  endfacet
  facet normal -1.61934e-16 -0.5 0.866025
    outer loop
      vertex -0.5 23.5353 15.7868
      vertex -0.5 21.8811 14.8317
      vertex 9 23.5353 15.7868
    endloop
  endfacet
  facet normal -1.20192e-16 -0.766044 0.642788
    outer loop
      vertex -0.5 23.5353 15.7868
      vertex 9 23.5353 15.7868
      vertex 9 24.7631 17.25
    endloop
  endfacet
  facet normal 0 -0.766044 0.642788
    outer loop
      vertex -0.5 24.7631 17.25
      vertex -0.5 23.5353 15.7868
      vertex 9 24.7631 17.25
    endloop
  endfacet
  facet normal 0 -0.939693 0.34202
    outer loop
      vertex -0.5 24.7631 17.25
      vertex 9 24.7631 17.25
      vertex 9 25.4164 19.0449
    endloop
  endfacet
  facet normal -1.27905e-16 -0.939693 0.34202
    outer loop
      vertex -0.5 25.4164 19.0449
      vertex -0.5 24.7631 17.25
      vertex 9 25.4164 19.0449
    endloop
  endfacet
  facet normal 0 -1 0
    outer loop
      vertex -0.5 25.4164 19.0449
      vertex 9 25.4164 19.0449
      vertex 9 25.4164 20.9551
    endloop
  endfacet
  facet normal -0 -1 0
    outer loop
      vertex -0.5 25.4164 20.9551
      vertex -0.5 25.4164 19.0449
      vertex 9 25.4164 20.9551
    endloop
  endfacet
  facet normal 1.27905e-16 -0.939693 -0.34202
    outer loop
      vertex -0.5 25.4164 20.9551
      vertex 9 25.4164 20.9551
      vertex 9 24.7631 22.75
    endloop
  endfacet
  facet normal -0 -0.939693 -0.34202
    outer loop
      vertex -0.5 24.7631 22.75
      vertex -0.5 25.4164 20.9551
      vertex 9 24.7631 22.75
    endloop
  endfacet
  facet normal -0 -0.766044 -0.642788
    outer loop
      vertex -0.5 24.7631 22.75
      vertex 9 24.7631 22.75
      vertex 9 23.5353 24.2132
    endloop
  endfacet
  facet normal -0 -0.766044 -0.642788
    outer loop
      vertex -0.5 23.5353 24.2132
      vertex -0.5 24.7631 22.75
      vertex 9 23.5353 24.2132
    endloop
  endfacet
  facet normal 0 -0.5 -0.866025
    outer loop
      vertex 9 23.5353 24.2132
      vertex 9 21.8811 25.1683
      vertex -0.5 23.5353 24.2132
    endloop
  endfacet
  facet normal 3.2785e-16 -0.5 -0.866025
    outer loop
      vertex -0.5 23.5353 24.2132
      vertex 9 21.8811 25.1683
      vertex -0.5 21.8811 25.1683
    endloop
  endfacet
  facet normal 3.68288e-16 -0.173648 -0.984808
    outer loop
      vertex 9 21.8811 25.1683
      vertex 9 20 25.5
      vertex -0.5 21.8811 25.1683
    endloop
  endfacet
  facet normal 0 -0.173648 -0.984808
    outer loop
      vertex -0.5 21.8811 25.1683
      vertex 9 20 25.5
      vertex -0.5 20 25.5
    endloop
  endfacet
  facet normal 3.68288e-16 0.173648 -0.984808
    outer loop
      vertex 9 18.1189 25.1683
      vertex -0.5 18.1189 25.1683
      vertex 9 20 25.5
    endloop
  endfacet
  facet normal 0 0.173648 -0.984808
    outer loop
      vertex 9 20 25.5
      vertex -0.5 18.1189 25.1683
      vertex -0.5 20 25.5
    endloop
  endfacet
  facet normal 0 0.5 -0.866025
    outer loop
      vertex 9 16.4647 24.2132
      vertex -0.5 16.4647 24.2132
      vertex 9 18.1189 25.1683
    endloop
  endfacet
  facet normal 3.23867e-16 0.5 -0.866025
    outer loop
      vertex 9 18.1189 25.1683
      vertex -0.5 16.4647 24.2132
      vertex -0.5 18.1189 25.1683
    endloop
  endfacet
  facet normal 0 0.766044 -0.642788
    outer loop
      vertex 9 15.2369 22.75
      vertex -0.5 15.2369 22.75
      vertex 9 16.4647 24.2132
    endloop
  endfacet
  facet normal 0 0.766044 -0.642788
    outer loop
      vertex 9 16.4647 24.2132
      vertex -0.5 15.2369 22.75
      vertex -0.5 16.4647 24.2132
    endloop
  endfacet
  facet normal 1.27905e-16 0.939693 -0.34202
    outer loop
      vertex 9 14.5836 20.9551
      vertex -0.5 14.5836 20.9551
      vertex 9 15.2369 22.75
    endloop
  endfacet
  facet normal 0 0.939693 -0.34202
    outer loop
      vertex 9 15.2369 22.75
      vertex -0.5 14.5836 20.9551
      vertex -0.5 15.2369 22.75
    endloop
  endfacet
  facet normal -0 -0 -1
    outer loop
      vertex -6 27.75 -0.6
      vertex -6 32.25 -0.6
      vertex 6.16174e-15 27.75 -0.6
    endloop
  endfacet
  facet normal 0 -0 -1
    outer loop
      vertex 6.96465e-15 31.366 -0.6
      vertex -6 32.25 -0.6
      vertex 7.16094e-15 32.25 -0.6
    endloop
  endfacet
  facet normal 0 -0 -1
    outer loop
      vertex -0.262276 30.9579 -0.6
      vertex -6 32.25 -0.6
      vertex 6.96465e-15 31.366 -0.6
    endloop
  endfacet
  facet normal 0 0 -1
    outer loop
      vertex -0.262276 29.0421 -0.6
      vertex -6 32.25 -0.6
      vertex -0.262276 30.9579 -0.6
    endloop
  endfacet
  facet normal 0 0 -1
    outer loop
      vertex 6.16174e-15 27.75 -0.6
      vertex -6 32.25 -0.6
      vertex -0.262276 29.0421 -0.6
    endloop
  endfacet
  facet normal 0 0 -1
    outer loop
      vertex 6.35803e-15 28.634 -0.6
      vertex 6.16174e-15 27.75 -0.6
      vertex -0.262276 29.0421 -0.6
    endloop
  endfacet
  facet normal -1 -0 -0
    outer loop
      vertex -6 27.75 -0.6
      vertex -6 27.75 -1.44329e-15
      vertex -6 32.25 -0.6
    endloop
  endfacet
  facet normal -1 0 0
    outer loop
      vertex -6 32.25 -0.6
      vertex -6 27.75 -1.44329e-15
      vertex -6 32.25 -1.44329e-15
    endloop
  endfacet
  facet normal 0 -1 0
    outer loop
      vertex -6 27.75 -1.44329e-15
      vertex -6 27.75 -0.6
      vertex 6.16174e-15 27.75 -0.6
    endloop
  endfacet
  facet normal 0 -1 0
    outer loop
      vertex 6.16174e-15 27.75 -1.44329e-15
      vertex -6 27.75 -1.44329e-15
      vertex 6.16174e-15 27.75 -0.6
    endloop
  endfacet
  facet normal 1 -2.22045e-16 0
    outer loop
      vertex 6.35803e-15 28.634 -0.6
      vertex 6.35803e-15 28.634 -1.44329e-15
      vertex 6.16174e-15 27.75 -1.44329e-15
    endloop
  endfacet
  facet normal 1 -2.22045e-16 0
    outer loop
      vertex 6.16174e-15 27.75 -0.6
      vertex 6.35803e-15 28.634 -0.6
      vertex 6.16174e-15 27.75 -1.44329e-15
    endloop
  endfacet
  facet normal 0.841253 0.540641 0
    outer loop
      vertex -0.262276 29.0421 -1.44329e-15
      vertex 6.35803e-15 28.634 -1.44329e-15
      vertex 6.35803e-15 28.634 -0.6
    endloop
  endfacet
  facet normal 0.841253 0.540641 0
    outer loop
      vertex -0.262276 29.0421 -0.6
      vertex -0.262276 29.0421 -1.44329e-15
      vertex 6.35803e-15 28.634 -0.6
    endloop
  endfacet
  facet normal 1 0 0
    outer loop
      vertex -0.262276 30.9579 -0.6
      vertex -0.262276 30.9579 -1.44329e-15
      vertex -0.262276 29.0421 -1.44329e-15
    endloop
  endfacet
  facet normal 1 0 0
    outer loop
      vertex -0.262276 29.0421 -0.6
      vertex -0.262276 30.9579 -0.6
      vertex -0.262276 29.0421 -1.44329e-15
    endloop
  endfacet
  facet normal 0.841253 -0.540641 0
    outer loop
      vertex 6.96465e-15 31.366 -0.6
      vertex 6.96465e-15 31.366 -1.44329e-15
      vertex -0.262276 30.9579 -1.44329e-15
    endloop
  endfacet
  facet normal 0.841253 -0.540641 0
    outer loop
      vertex -0.262276 30.9579 -0.6
      vertex 6.96465e-15 31.366 -0.6
      vertex -0.262276 30.9579 -1.44329e-15
    endloop
  endfacet
  facet normal 1 -2.22045e-16 0
    outer loop
      vertex 7.16094e-15 32.25 -0.6
      vertex 7.16094e-15 32.25 -1.44329e-15
      vertex 6.96465e-15 31.366 -1.44329e-15
    endloop
  endfacet
  facet normal 1 -2.22045e-16 0
    outer loop
      vertex 6.96465e-15 31.366 -0.6
      vertex 7.16094e-15 32.25 -0.6
      vertex 6.96465e-15 31.366 -1.44329e-15
    endloop
  endfacet
  facet normal 0 1 0
    outer loop
      vertex -6 32.25 -0.6
      vertex -6 32.25 -1.44329e-15
      vertex 7.16094e-15 32.25 -0.6
    endloop
  endfacet
  facet normal 0 1 0
    outer loop
      vertex 7.16094e-15 32.25 -0.6
      vertex -6 32.25 -1.44329e-15
      vertex 7.16094e-15 32.25 -1.44329e-15
    endloop
  endfacet
  facet normal 0 -0 1
    outer loop
      vertex -6 32.25 -1.44329e-15
      vertex -6 27.75 -1.44329e-15
      vertex 6.16174e-15 27.75 -1.44329e-15
    endloop
  endfacet
  facet normal -0 -0 1
    outer loop
      vertex -0.262276 29.0421 -1.44329e-15
      vertex -6 32.25 -1.44329e-15
      vertex 6.35803e-15 28.634 -1.44329e-15
    endloop
  endfacet
  facet normal -0 0 1
    outer loop
      vertex 6.35803e-15 28.634 -1.44329e-15
      vertex -6 32.25 -1.44329e-15
      vertex 6.16174e-15 27.75 -1.44329e-15
    endloop
  endfacet
  facet normal -0 0 1
    outer loop
      vertex -0.262276 30.9579 -1.44329e-15
      vertex -6 32.25 -1.44329e-15
      vertex -0.262276 29.0421 -1.44329e-15
    endloop
  endfacet
  facet normal -0 0 1
    outer loop
      vertex 6.96465e-15 31.366 -1.44329e-15
      vertex -6 32.25 -1.44329e-15
      vertex -0.262276 30.9579 -1.44329e-15
    endloop
  endfacet
  facet normal 0 0 1
    outer loop
      vertex 7.16094e-15 32.25 -1.44329e-15
      vertex -6 32.25 -1.44329e-15
      vertex 6.96465e-15 31.366 -1.44329e-15
    endloop
  endfacet
  facet normal -1 3.94746e-16 0
    outer loop
      vertex 7.75 27.75 -0.6
      vertex 7.75 27.75 -1.44329e-15
      vertex 7.75 32.25 -0.6
    endloop
  endfacet
  facet normal -1 3.94746e-16 0
    outer loop
      vertex 7.75 32.25 -0.6
      vertex 7.75 27.75 -1.44329e-15
      vertex 7.75 32.25 -1.44329e-15
    endloop
  endfacet
  facet normal 0 -1 0
    outer loop
      vertex 7.75 27.75 -1.44329e-15
      vertex 7.75 27.75 -0.6
      vertex 9 27.75 -0.6
    endloop
  endfacet
  facet normal 0 -1 0
    outer loop
      vertex 9 27.75 -1.44329e-15
      vertex 7.75 27.75 -1.44329e-15
      vertex 9 27.75 -0.6
    endloop
  endfacet
  facet normal -0 0 -1
    outer loop
      vertex 7.75 27.75 -0.6
      vertex 7.75 32.25 -0.6
      vertex 9 27.75 -0.6
    endloop
  endfacet
  facet normal 0 0 -1
    outer loop
      vertex 9 27.75 -0.6
      vertex 7.75 32.25 -0.6
      vertex 9 32.25 -0.6
    endloop
  endfacet
  facet normal 0 1 0
    outer loop
      vertex 7.75 32.25 -0.6
      vertex 7.75 32.25 -1.44329e-15
      vertex 9 32.25 -0.6
    endloop
  endfacet
  facet normal 0 1 0
    outer loop
      vertex 9 32.25 -0.6
      vertex 7.75 32.25 -1.44329e-15
      vertex 9 32.25 -1.44329e-15
    endloop
  endfacet
  facet normal 0 -0 1
    outer loop
      vertex 7.75 32.25 -1.44329e-15
      vertex 7.75 27.75 -1.44329e-15
      vertex 9 27.75 -1.44329e-15
    endloop
  endfacet
  facet normal 0 0 1
    outer loop
      vertex 9 32.25 -1.44329e-15
      vertex 7.75 32.25 -1.44329e-15
      vertex 9 27.75 -1.44329e-15
    endloop
  endfacet
  facet normal 1 0 -0
    outer loop
      vertex 9 27.75 -1.44329e-15
      vertex 9 27.75 -0.6
      vertex 9 32.25 -0.6
    endloop
  endfacet
  facet normal 1 0 0
    outer loop
      vertex 9 32.25 -1.44329e-15
      vertex 9 27.75 -1.44329e-15
      vertex 9 32.25 -0.6
    endloop
  endfacet
  facet normal 0 -1 0
    outer loop
      vertex -6 7.75 -1.44329e-15
      vertex -6 7.75 -0.6
      vertex 1.72085e-15 7.75 -0.6
    endloop
  endfacet
  facet normal 0 -1 0
    outer loop
      vertex 1.72085e-15 7.75 -1.44329e-15
      vertex -6 7.75 -1.44329e-15
      vertex 1.72085e-15 7.75 -0.6
    endloop
  endfacet
  facet normal -0 -0 -1
    outer loop
      vertex -6 7.75 -0.6
      vertex -6 12.25 -0.6
      vertex 1.72085e-15 7.75 -0.6
    endloop
  endfacet
  facet normal 0 -0 -1
    outer loop
      vertex 2.52376e-15 11.366 -0.6
      vertex -6 12.25 -0.6
      vertex 2.72005e-15 12.25 -0.6
    endloop
  endfacet
  facet normal 0 -0 -1
    outer loop
      vertex -0.262276 10.9579 -0.6
      vertex -6 12.25 -0.6
      vertex 2.52376e-15 11.366 -0.6
    endloop
  endfacet
  facet normal 0 0 -1
    outer loop
      vertex -0.262276 9.04211 -0.6
      vertex -6 12.25 -0.6
      vertex -0.262276 10.9579 -0.6
    endloop
  endfacet
  facet normal 0 0 -1
    outer loop
      vertex 1.72085e-15 7.75 -0.6
      vertex -6 12.25 -0.6
      vertex -0.262276 9.04211 -0.6
    endloop
  endfacet
  facet normal 0 0 -1
    outer loop
      vertex 1.91713e-15 8.634 -0.6
      vertex 1.72085e-15 7.75 -0.6
      vertex -0.262276 9.04211 -0.6
    endloop
  endfacet
  facet normal -1 -0 -0
    outer loop
      vertex -6 7.75 -0.6
      vertex -6 7.75 -1.44329e-15
      vertex -6 12.25 -0.6
    endloop
  endfacet
  facet normal -1 0 0
    outer loop
      vertex -6 12.25 -0.6
      vertex -6 7.75 -1.44329e-15
      vertex -6 12.25 -1.44329e-15
    endloop
  endfacet
  facet normal 0 -0 1
    outer loop
      vertex -6 12.25 -1.44329e-15
      vertex -6 7.75 -1.44329e-15
      vertex 1.72085e-15 7.75 -1.44329e-15
    endloop
  endfacet
  facet normal -0 -0 1
    outer loop
      vertex -0.262276 9.04211 -1.44329e-15
      vertex -6 12.25 -1.44329e-15
      vertex 1.91713e-15 8.634 -1.44329e-15
    endloop
  endfacet
  facet normal -0 0 1
    outer loop
      vertex 1.91713e-15 8.634 -1.44329e-15
      vertex -6 12.25 -1.44329e-15
      vertex 1.72085e-15 7.75 -1.44329e-15
    endloop
  endfacet
  facet normal -0 0 1
    outer loop
      vertex -0.262276 10.9579 -1.44329e-15
      vertex -6 12.25 -1.44329e-15
      vertex -0.262276 9.04211 -1.44329e-15
    endloop
  endfacet
  facet normal -0 0 1
    outer loop
      vertex 2.52376e-15 11.366 -1.44329e-15
      vertex -6 12.25 -1.44329e-15
      vertex -0.262276 10.9579 -1.44329e-15
    endloop
  endfacet
  facet normal 0 0 1
    outer loop
      vertex 2.72005e-15 12.25 -1.44329e-15
      vertex -6 12.25 -1.44329e-15
      vertex 2.52376e-15 11.366 -1.44329e-15
    endloop
  endfacet
  facet normal 1 -2.22045e-16 0
    outer loop
      vertex 1.91713e-15 8.634 -0.6
      vertex 1.91713e-15 8.634 -1.44329e-15
      vertex 1.72085e-15 7.75 -1.44329e-15
    endloop
  endfacet
  facet normal 1 -2.22045e-16 0
    outer loop
      vertex 1.72085e-15 7.75 -0.6
      vertex 1.91713e-15 8.634 -0.6
      vertex 1.72085e-15 7.75 -1.44329e-15
    endloop
  endfacet
  facet normal 0.841253 0.540641 0
    outer loop
      vertex -0.262276 9.04211 -1.44329e-15
      vertex 1.91713e-15 8.634 -1.44329e-15
      vertex 1.91713e-15 8.634 -0.6
    endloop
  endfacet
  facet normal 0.841253 0.540641 0
    outer loop
      vertex -0.262276 9.04211 -0.6
      vertex -0.262276 9.04211 -1.44329e-15
      vertex 1.91713e-15 8.634 -0.6
    endloop
  endfacet
  facet normal 1 0 0
    outer loop
      vertex -0.262276 10.9579 -0.6
      vertex -0.262276 10.9579 -1.44329e-15
      vertex -0.262276 9.04211 -1.44329e-15
    endloop
  endfacet
  facet normal 1 0 0
    outer loop
      vertex -0.262276 9.04211 -0.6
      vertex -0.262276 10.9579 -0.6
      vertex -0.262276 9.04211 -1.44329e-15
    endloop
  endfacet
  facet normal 0.841253 -0.540641 0
    outer loop
      vertex 2.52376e-15 11.366 -0.6
      vertex 2.52376e-15 11.366 -1.44329e-15
      vertex -0.262276 10.9579 -1.44329e-15
    endloop
  endfacet
  facet normal 0.841253 -0.540641 0
    outer loop
      vertex -0.262276 10.9579 -0.6
      vertex 2.52376e-15 11.366 -0.6
      vertex -0.262276 10.9579 -1.44329e-15
    endloop
  endfacet
  facet normal 1 -2.22045e-16 0
    outer loop
      vertex 2.72005e-15 12.25 -0.6
      vertex 2.72005e-15 12.25 -1.44329e-15
      vertex 2.52376e-15 11.366 -1.44329e-15
    endloop
  endfacet
  facet normal 1 -2.22045e-16 0
    outer loop
      vertex 2.52376e-15 11.366 -0.6
      vertex 2.72005e-15 12.25 -0.6
      vertex 2.52376e-15 11.366 -1.44329e-15
    endloop
  endfacet
  facet normal 0 1 0
    outer loop
      vertex -6 12.25 -0.6
      vertex -6 12.25 -1.44329e-15
      vertex 2.72005e-15 12.25 -0.6
    endloop
  endfacet
  facet normal 0 1 0
    outer loop
      vertex 2.72005e-15 12.25 -0.6
      vertex -6 12.25 -1.44329e-15
      vertex 2.72005e-15 12.25 -1.44329e-15
    endloop
  endfacet
  facet normal -1 3.94746e-16 0
    outer loop
      vertex 7.75 7.75 -0.6
      vertex 7.75 7.75 -1.44329e-15
      vertex 7.75 12.25 -0.6
    endloop
  endfacet
  facet normal -1 3.94746e-16 0
    outer loop
      vertex 7.75 12.25 -0.6
      vertex 7.75 7.75 -1.44329e-15
      vertex 7.75 12.25 -1.44329e-15
    endloop
  endfacet
  facet normal 0 -1 0
    outer loop
      vertex 7.75 7.75 -1.44329e-15
      vertex 7.75 7.75 -0.6
      vertex 9 7.75 -0.6
    endloop
  endfacet
  facet normal 0 -1 0
    outer loop
      vertex 9 7.75 -1.44329e-15
      vertex 7.75 7.75 -1.44329e-15
      vertex 9 7.75 -0.6
    endloop
  endfacet
  facet normal -0 0 -1
    outer loop
      vertex 7.75 7.75 -0.6
      vertex 7.75 12.25 -0.6
      vertex 9 7.75 -0.6
    endloop
  endfacet
  facet normal 0 0 -1
    outer loop
      vertex 9 7.75 -0.6
      vertex 7.75 12.25 -0.6
      vertex 9 12.25 -0.6
    endloop
  endfacet
  facet normal 0 1 0
    outer loop
      vertex 7.75 12.25 -0.6
      vertex 7.75 12.25 -1.44329e-15
      vertex 9 12.25 -0.6
    endloop
  endfacet
  facet normal 0 1 0
    outer loop
      vertex 9 12.25 -0.6
      vertex 7.75 12.25 -1.44329e-15
      vertex 9 12.25 -1.44329e-15
    endloop
  endfacet
  facet normal 0 -0 1
    outer loop
      vertex 7.75 12.25 -1.44329e-15
      vertex 7.75 7.75 -1.44329e-15
      vertex 9 7.75 -1.44329e-15
    endloop
  endfacet
  facet normal 0 0 1
    outer loop
      vertex 9 12.25 -1.44329e-15
      vertex 7.75 12.25 -1.44329e-15
      vertex 9 7.75 -1.44329e-15
    endloop
  endfacet
  facet normal 1 0 -0
    outer loop
      vertex 9 7.75 -1.44329e-15
      vertex 9 7.75 -0.6
      vertex 9 12.25 -0.6
    endloop
  endfacet
  facet normal 1 0 0
    outer loop
      vertex 9 12.25 -1.44329e-15
      vertex 9 7.75 -1.44329e-15
      vertex 9 12.25 -0.6
    endloop
  endfacet
endsolid OpenSCAD_Model
