solid OpenSCAD_Model
  facet normal -1 0 0
    outer loop
      vertex -6 18.0376 12.0383
      vertex -6 39.9 0
      vertex -6 16.1893 12.7393
    endloop
  endfacet
  facet normal -1 0 -0
    outer loop
      vertex -6 20 28.2
      vertex -6 0 30
      vertex -6 39.9 30
    endloop
  endfacet
  facet normal -1 0 -0
    outer loop
      vertex -6 0 0
      vertex -6 0 30
      vertex -6 11.8598 20.9884
    endloop
  endfacet
  facet normal -1 0 0
    outer loop
      vertex -6 0 0
      vertex -6 11.8598 20.9884
      vertex -6 11.8598 19.0116
    endloop
  endfacet
  facet normal -1 0 0
    outer loop
      vertex -6 0 0
      vertex -6 11.8598 19.0116
      vertex -6 12.3329 17.0922
    endloop
  endfacet
  facet normal -1 0 0
    outer loop
      vertex -6 0 0
      vertex -6 12.3329 17.0922
      vertex -6 13.2515 15.3419
    endloop
  endfacet
  facet normal -1 0 0
    outer loop
      vertex -6 0 0
      vertex -6 13.2515 15.3419
      vertex -6 14.5624 13.8622
    endloop
  endfacet
  facet normal -1 0 0
    outer loop
      vertex -6 0 0
      vertex -6 14.5624 13.8622
      vertex -6 16.1893 12.7393
    endloop
  endfacet
  facet normal -1 -0 0
    outer loop
      vertex -6 0 0
      vertex -6 16.1893 12.7393
      vertex -6 39.9 0
    endloop
  endfacet
  facet normal -1 0 0
    outer loop
      vertex -6 20 11.8
      vertex -6 39.9 0
      vertex -6 18.0376 12.0383
    endloop
  endfacet
  facet normal -1 0 0
    outer loop
      vertex -6 21.9624 12.0383
      vertex -6 39.9 0
      vertex -6 20 11.8
    endloop
  endfacet
  facet normal -1 0 0
    outer loop
      vertex -6 23.8107 12.7393
      vertex -6 39.9 0
      vertex -6 21.9624 12.0383
    endloop
  endfacet
  facet normal -1 0 0
    outer loop
      vertex -6 39.9 0
      vertex -6 23.8107 12.7393
      vertex -6 25.4376 13.8622
    endloop
  endfacet
  facet normal -1 0 0
    outer loop
      vertex -6 39.9 0
      vertex -6 25.4376 13.8622
      vertex -6 39.9 30
    endloop
  endfacet
  facet normal -1 0 0
    outer loop
      vertex -6 25.4376 13.8622
      vertex -6 26.7485 15.3419
      vertex -6 39.9 30
    endloop
  endfacet
  facet normal -1 0 -0
    outer loop
      vertex -6 18.0376 27.9617
      vertex -6 0 30
      vertex -6 20 28.2
    endloop
  endfacet
  facet normal -1 0 -0
    outer loop
      vertex -6 12.3329 22.9078
      vertex -6 0 30
      vertex -6 13.2515 24.6581
    endloop
  endfacet
  facet normal -1 0 0
    outer loop
      vertex -6 27.6671 17.0922
      vertex -6 28.1402 19.0116
      vertex -6 39.9 30
    endloop
  endfacet
  facet normal -1 0 -0
    outer loop
      vertex -6 28.1402 19.0116
      vertex -6 28.1402 20.9884
      vertex -6 39.9 30
    endloop
  endfacet
  facet normal -1 0 -0
    outer loop
      vertex -6 13.2515 24.6581
      vertex -6 0 30
      vertex -6 14.5624 26.1378
    endloop
  endfacet
  facet normal -1 0 -0
    outer loop
      vertex -6 28.1402 20.9884
      vertex -6 27.6671 22.9078
      vertex -6 39.9 30
    endloop
  endfacet
  facet normal -1 0 -0
    outer loop
      vertex -6 27.6671 22.9078
      vertex -6 26.7485 24.6581
      vertex -6 39.9 30
    endloop
  endfacet
  facet normal -1 0 -0
    outer loop
      vertex -6 14.5624 26.1378
      vertex -6 0 30
      vertex -6 16.1893 27.2607
    endloop
  endfacet
  facet normal -1 0 -0
    outer loop
      vertex -6 26.7485 24.6581
      vertex -6 25.4376 26.1378
      vertex -6 39.9 30
    endloop
  endfacet
  facet normal -1 0 -0
    outer loop
      vertex -6 25.4376 26.1378
      vertex -6 23.8107 27.2607
      vertex -6 39.9 30
    endloop
  endfacet
  facet normal -1 0 -0
    outer loop
      vertex -6 16.1893 27.2607
      vertex -6 0 30
      vertex -6 18.0376 27.9617
    endloop
  endfacet
  facet normal -1 0 -0
    outer loop
      vertex -6 23.8107 27.2607
      vertex -6 21.9624 27.9617
      vertex -6 39.9 30
    endloop
  endfacet
  facet normal -1 0 -0
    outer loop
      vertex -6 21.9624 27.9617
      vertex -6 20 28.2
      vertex -6 39.9 30
    endloop
  endfacet
  facet normal -1 0 -0
    outer loop
      vertex -6 11.8598 20.9884
      vertex -6 0 30
      vertex -6 12.3329 22.9078
    endloop
  endfacet
  facet normal -1 -0 0
    outer loop
      vertex -6 27.6671 17.0922
      vertex -6 39.9 30
      vertex -6 26.7485 15.3419
    endloop
  endfacet
  facet normal 0 -1 0
    outer loop
      vertex -6 0 30
      vertex -6 0 0
      vertex 33.9 0 0
    endloop
  endfacet
  facet normal 0 -1 0
    outer loop
      vertex 33.9 0 30
      vertex -6 0 30
      vertex 33.9 0 0
    endloop
  endfacet
  facet normal 0 -0 -1
    outer loop
      vertex 4.41241 33.0927 0
      vertex -6 39.9 0
      vertex 33.9 39.9 0
    endloop
  endfacet
  facet normal 0 -0 -1
    outer loop
      vertex -6 0 0
      vertex -6 39.9 0
      vertex -0.262276 10.9579 0
    endloop
  endfacet
  facet normal 0 0 -1
    outer loop
      vertex -6 0 0
      vertex -0.262276 10.9579 0
      vertex -0.262276 9.04211 0
    endloop
  endfacet
  facet normal 0 0 -1
    outer loop
      vertex -6 0 0
      vertex -0.262276 9.04211 0
      vertex 0.773474 7.43045 0
    endloop
  endfacet
  facet normal 0 0 -1
    outer loop
      vertex -6 0 0
      vertex 0.773474 7.43045 0
      vertex 2.51613 6.63461 0
    endloop
  endfacet
  facet normal -0 0 -1
    outer loop
      vertex -6 0 0
      vertex 2.51613 6.63461 0
      vertex 33.9 0 0
    endloop
  endfacet
  facet normal 0 0 -1
    outer loop
      vertex 5.86026 8.16182 0
      vertex 33.9 0 0
      vertex 4.41241 6.90725 0
    endloop
  endfacet
  facet normal 0 0 -1
    outer loop
      vertex 6.4 10 0
      vertex 33.9 0 0
      vertex 5.86026 8.16182 0
    endloop
  endfacet
  facet normal 0 -0 -1
    outer loop
      vertex -0.262276 30.9579 0
      vertex -6 39.9 0
      vertex 0.773474 32.5695 0
    endloop
  endfacet
  facet normal -0 -0 -1
    outer loop
      vertex 4.41241 13.0927 0
      vertex -6 39.9 0
      vertex 5.86026 11.8382 0
    endloop
  endfacet
  facet normal -0 -0 -1
    outer loop
      vertex 6.4 10 0
      vertex 5.86026 11.8382 0
      vertex 33.9 0 0
    endloop
  endfacet
  facet normal -0 -0 -1
    outer loop
      vertex 2.51613 13.3654 0
      vertex -6 39.9 0
      vertex 4.41241 13.0927 0
    endloop
  endfacet
  facet normal 0 -0 -1
    outer loop
      vertex 0.773474 12.5695 0
      vertex -6 39.9 0
      vertex 2.51613 13.3654 0
    endloop
  endfacet
  facet normal 0 -0 -1
    outer loop
      vertex -0.262276 10.9579 0
      vertex -6 39.9 0
      vertex 0.773474 12.5695 0
    endloop
  endfacet
  facet normal 0 0 -1
    outer loop
      vertex -0.262276 29.0421 0
      vertex -6 39.9 0
      vertex -0.262276 30.9579 0
    endloop
  endfacet
  facet normal 0 0 -1
    outer loop
      vertex 5.86026 11.8382 0
      vertex -6 39.9 0
      vertex -0.262276 29.0421 0
    endloop
  endfacet
  facet normal 0 0 -1
    outer loop
      vertex 5.86026 11.8382 0
      vertex -0.262276 29.0421 0
      vertex 0.773474 27.4305 0
    endloop
  endfacet
  facet normal 0 0 -1
    outer loop
      vertex 4.41241 26.9073 0
      vertex 33.9 0 0
      vertex 2.51613 26.6346 0
    endloop
  endfacet
  facet normal -0 -0 -1
    outer loop
      vertex 5.86026 11.8382 0
      vertex 2.51613 26.6346 0
      vertex 33.9 0 0
    endloop
  endfacet
  facet normal 0 0 -1
    outer loop
      vertex 2.51613 26.6346 0
      vertex 5.86026 11.8382 0
      vertex 0.773474 27.4305 0
    endloop
  endfacet
  facet normal 0 0 -1
    outer loop
      vertex 5.86026 28.1618 0
      vertex 33.9 0 0
      vertex 4.41241 26.9073 0
    endloop
  endfacet
  facet normal -0 -0 -1
    outer loop
      vertex 2.51613 33.3654 0
      vertex -6 39.9 0
      vertex 4.41241 33.0927 0
    endloop
  endfacet
  facet normal 0 0 -1
    outer loop
      vertex 33.9 0 0
      vertex 5.86026 28.1618 0
      vertex 33.9 39.9 0
    endloop
  endfacet
  facet normal 0 0 -1
    outer loop
      vertex 5.86026 28.1618 0
      vertex 6.4 30 0
      vertex 33.9 39.9 0
    endloop
  endfacet
  facet normal 0 -0 -1
    outer loop
      vertex 0.773474 32.5695 0
      vertex -6 39.9 0
      vertex 2.51613 33.3654 0
    endloop
  endfacet
  facet normal 0 -0 -1
    outer loop
      vertex 6.4 30 0
      vertex 5.86026 31.8382 0
      vertex 33.9 39.9 0
    endloop
  endfacet
  facet normal 0 -0 -1
    outer loop
      vertex 5.86026 31.8382 0
      vertex 4.41241 33.0927 0
      vertex 33.9 39.9 0
    endloop
  endfacet
  facet normal 0 0 -1
    outer loop
      vertex 4.41241 6.90725 0
      vertex 33.9 0 0
      vertex 2.51613 6.63461 0
    endloop
  endfacet
  facet normal 0 1 0
    outer loop
      vertex -6 39.9 0
      vertex -6 39.9 30
      vertex 33.9 39.9 0
    endloop
  endfacet
  facet normal 0 1 0
    outer loop
      vertex 33.9 39.9 0
      vertex -6 39.9 30
      vertex 33.9 39.9 30
    endloop
  endfacet
  facet normal 0 -0 1
    outer loop
      vertex 4.91342 5.3806 30
      vertex -6 0 30
      vertex 33.9 0 30
    endloop
  endfacet
  facet normal 0 0 1
    outer loop
      vertex -2 30 30
      vertex -1.6194 31.9134 30
      vertex -6 39.9 30
    endloop
  endfacet
  facet normal 0 -0 1
    outer loop
      vertex -2 10 30
      vertex -6 0 30
      vertex -1.6194 8.08658 30
    endloop
  endfacet
  facet normal 0 0 1
    outer loop
      vertex 6.53553 13.5355 30
      vertex 7.6194 11.9134 30
      vertex 33.9 0 30
    endloop
  endfacet
  facet normal 0 -0 1
    outer loop
      vertex -6 39.9 30
      vertex -6 0 30
      vertex -2 10 30
    endloop
  endfacet
  facet normal 0 -0 1
    outer loop
      vertex 6.53553 6.46447 30
      vertex 4.91342 5.3806 30
      vertex 33.9 0 30
    endloop
  endfacet
  facet normal 0 -0 1
    outer loop
      vertex 8 10 30
      vertex 7.6194 8.08658 30
      vertex 33.9 0 30
    endloop
  endfacet
  facet normal 0 0 1
    outer loop
      vertex -6 39.9 30
      vertex -1.6194 11.9134 30
      vertex -0.535534 13.5355 30
    endloop
  endfacet
  facet normal 0 -0 1
    outer loop
      vertex 7.6194 28.0866 30
      vertex 6.53553 26.4645 30
      vertex 33.9 0 30
    endloop
  endfacet
  facet normal 0 0 1
    outer loop
      vertex -6 39.9 30
      vertex -0.535534 13.5355 30
      vertex 1.08658 14.6194 30
    endloop
  endfacet
  facet normal 0 0 1
    outer loop
      vertex -6 39.9 30
      vertex 1.08658 14.6194 30
      vertex 3 15 30
    endloop
  endfacet
  facet normal 0 -0 1
    outer loop
      vertex 4.91342 25.3806 30
      vertex 4.91342 14.6194 30
      vertex 33.9 0 30
    endloop
  endfacet
  facet normal 0 0 1
    outer loop
      vertex -1.6194 28.0866 30
      vertex 3 15 30
      vertex 4.91342 14.6194 30
    endloop
  endfacet
  facet normal 0 0 1
    outer loop
      vertex 4.91342 14.6194 30
      vertex 6.53553 13.5355 30
      vertex 33.9 0 30
    endloop
  endfacet
  facet normal 0 -0 1
    outer loop
      vertex 7.6194 8.08658 30
      vertex 6.53553 6.46447 30
      vertex 33.9 0 30
    endloop
  endfacet
  facet normal 0 -0 1
    outer loop
      vertex 3 5 30
      vertex -6 0 30
      vertex 4.91342 5.3806 30
    endloop
  endfacet
  facet normal 0 -0 1
    outer loop
      vertex 1.08658 5.3806 30
      vertex -6 0 30
      vertex 3 5 30
    endloop
  endfacet
  facet normal 0 -0 1
    outer loop
      vertex -0.535534 6.46447 30
      vertex -6 0 30
      vertex 1.08658 5.3806 30
    endloop
  endfacet
  facet normal 0 -0 1
    outer loop
      vertex -1.6194 8.08658 30
      vertex -6 0 30
      vertex -0.535534 6.46447 30
    endloop
  endfacet
  facet normal -0 -0 1
    outer loop
      vertex -0.535534 26.4645 30
      vertex -1.6194 28.0866 30
      vertex 4.91342 14.6194 30
    endloop
  endfacet
  facet normal 0 0 1
    outer loop
      vertex -6 39.9 30
      vertex 3 15 30
      vertex -1.6194 28.0866 30
    endloop
  endfacet
  facet normal 0 0 1
    outer loop
      vertex -0.535534 33.5355 30
      vertex 1.08658 34.6194 30
      vertex -6 39.9 30
    endloop
  endfacet
  facet normal 0 0 1
    outer loop
      vertex -6 39.9 30
      vertex -1.6194 28.0866 30
      vertex -2 30 30
    endloop
  endfacet
  facet normal 0 -0 1
    outer loop
      vertex 6.53553 26.4645 30
      vertex 4.91342 25.3806 30
      vertex 33.9 0 30
    endloop
  endfacet
  facet normal 0 0 1
    outer loop
      vertex 3 35 30
      vertex 4.91342 34.6194 30
      vertex 33.9 39.9 30
    endloop
  endfacet
  facet normal 0 0 1
    outer loop
      vertex -6 39.9 30
      vertex -1.6194 31.9134 30
      vertex -0.535534 33.5355 30
    endloop
  endfacet
  facet normal -0 -0 1
    outer loop
      vertex 1.08658 25.3806 30
      vertex -0.535534 26.4645 30
      vertex 4.91342 14.6194 30
    endloop
  endfacet
  facet normal -0 0 1
    outer loop
      vertex 3 35 30
      vertex -6 39.9 30
      vertex 1.08658 34.6194 30
    endloop
  endfacet
  facet normal 0 0 1
    outer loop
      vertex 7.6194 31.9134 30
      vertex 8 30 30
      vertex 33.9 0 30
    endloop
  endfacet
  facet normal 0 0 1
    outer loop
      vertex 33.9 39.9 30
      vertex -6 39.9 30
      vertex 3 35 30
    endloop
  endfacet
  facet normal 0 0 1
    outer loop
      vertex 33.9 39.9 30
      vertex 6.53553 33.5355 30
      vertex 33.9 0 30
    endloop
  endfacet
  facet normal 0 0 1
    outer loop
      vertex 33.9 39.9 30
      vertex 4.91342 34.6194 30
      vertex 6.53553 33.5355 30
    endloop
  endfacet
  facet normal 0 0 1
    outer loop
      vertex 6.53553 33.5355 30
      vertex 7.6194 31.9134 30
      vertex 33.9 0 30
    endloop
  endfacet
  facet normal 0 -0 1
    outer loop
      vertex 8 30 30
      vertex 7.6194 28.0866 30
      vertex 33.9 0 30
    endloop
  endfacet
  facet normal 0 0 1
    outer loop
      vertex 3 25 30
      vertex 4.91342 14.6194 30
      vertex 4.91342 25.3806 30
    endloop
  endfacet
  facet normal 0 0 1
    outer loop
      vertex 1.08658 25.3806 30
      vertex 4.91342 14.6194 30
      vertex 3 25 30
    endloop
  endfacet
  facet normal 0 0 1
    outer loop
      vertex -2 10 30
      vertex -1.6194 11.9134 30
      vertex -6 39.9 30
    endloop
  endfacet
  facet normal 0 0 1
    outer loop
      vertex 7.6194 11.9134 30
      vertex 8 10 30
      vertex 33.9 0 30
    endloop
  endfacet
  facet normal 0 0.970942 -0.239316
    outer loop
      vertex -0.5 12.3329 22.9078
      vertex -0.5 11.8598 20.9884
      vertex -6 12.3329 22.9078
    endloop
  endfacet
  facet normal 0 0.970942 -0.239316
    outer loop
      vertex -6 12.3329 22.9078
      vertex -0.5 11.8598 20.9884
      vertex -6 11.8598 20.9884
    endloop
  endfacet
  facet normal 0 1 -0
    outer loop
      vertex -0.5 11.8598 20.9884
      vertex -0.5 11.8598 19.0116
      vertex -6 11.8598 20.9884
    endloop
  endfacet
  facet normal 0 1 -0
    outer loop
      vertex -6 11.8598 20.9884
      vertex -0.5 11.8598 19.0116
      vertex -6 11.8598 19.0116
    endloop
  endfacet
  facet normal 3.13009e-16 0.885456 -0.464723
    outer loop
      vertex -0.725298 13.2515 24.6581
      vertex -0.780753 13.1685 24.5
      vertex -6 13.2515 24.6581
    endloop
  endfacet
  facet normal 0 0.885456 -0.464723
    outer loop
      vertex -0.5 12.3329 22.9078
      vertex -0.780753 13.1685 24.5
      vertex -0.5 13.1685 24.5
    endloop
  endfacet
  facet normal 3.31654e-16 0.885456 -0.464723
    outer loop
      vertex -6 13.2515 24.6581
      vertex -0.780753 13.1685 24.5
      vertex -0.5 12.3329 22.9078
    endloop
  endfacet
  facet normal 0 0.885456 -0.464723
    outer loop
      vertex -6 13.2515 24.6581
      vertex -0.5 12.3329 22.9078
      vertex -6 12.3329 22.9078
    endloop
  endfacet
  facet normal 4.28343e-16 0.748511 -0.663123
    outer loop
      vertex -0.5 14.5624 26.1378
      vertex -0.5 13.5593 25.0055
      vertex -6 14.5624 26.1378
    endloop
  endfacet
  facet normal -2.51199e-15 0.748511 -0.663123
    outer loop
      vertex -6 14.5624 26.1378
      vertex -0.5 13.5593 25.0055
      vertex -0.535534 13.5355 24.9787
    endloop
  endfacet
  facet normal -7.07919e-16 0.748511 -0.663123
    outer loop
      vertex -6 14.5624 26.1378
      vertex -0.535534 13.5355 24.9787
      vertex -0.725298 13.2515 24.6581
    endloop
  endfacet
  facet normal 4.44361e-16 0.748511 -0.663123
    outer loop
      vertex -6 14.5624 26.1378
      vertex -0.725298 13.2515 24.6581
      vertex -6 13.2515 24.6581
    endloop
  endfacet
  facet normal 5.31605e-16 0.568065 -0.822984
    outer loop
      vertex -0.5 16.1893 27.2607
      vertex -0.5 14.5624 26.1378
      vertex -6 16.1893 27.2607
    endloop
  endfacet
  facet normal 5.40565e-16 0.568065 -0.822984
    outer loop
      vertex -6 16.1893 27.2607
      vertex -0.5 14.5624 26.1378
      vertex -6 14.5624 26.1378
    endloop
  endfacet
  facet normal 0 0.354605 -0.935016
    outer loop
      vertex -0.5 18.0376 27.9617
      vertex -0.5 16.1893 27.2607
      vertex -6 18.0376 27.9617
    endloop
  endfacet
  facet normal 5.98482e-16 0.354605 -0.935016
    outer loop
      vertex -6 18.0376 27.9617
      vertex -0.5 16.1893 27.2607
      vertex -6 16.1893 27.2607
    endloop
  endfacet
  facet normal 0 0.120537 -0.992709
    outer loop
      vertex -0.5 20 28.2
      vertex -0.5 18.0376 27.9617
      vertex -6 20 28.2
    endloop
  endfacet
  facet normal 0 0.120537 -0.992709
    outer loop
      vertex -6 20 28.2
      vertex -0.5 18.0376 27.9617
      vertex -6 18.0376 27.9617
    endloop
  endfacet
  facet normal 0 -0.120537 -0.992709
    outer loop
      vertex -0.5 21.9624 27.9617
      vertex -0.5 20 28.2
      vertex -6 21.9624 27.9617
    endloop
  endfacet
  facet normal 0 -0.120537 -0.992709
    outer loop
      vertex -6 21.9624 27.9617
      vertex -0.5 20 28.2
      vertex -6 20 28.2
    endloop
  endfacet
  facet normal 6.03972e-16 -0.354605 -0.935016
    outer loop
      vertex -0.5 23.8107 27.2607
      vertex -0.5 21.9624 27.9617
      vertex -6 23.8107 27.2607
    endloop
  endfacet
  facet normal 0 -0.354605 -0.935016
    outer loop
      vertex -6 23.8107 27.2607
      vertex -0.5 21.9624 27.9617
      vertex -6 21.9624 27.9617
    endloop
  endfacet
  facet normal 5.31605e-16 -0.568065 -0.822984
    outer loop
      vertex -0.5 25.4376 26.1378
      vertex -0.5 23.8107 27.2607
      vertex -6 25.4376 26.1378
    endloop
  endfacet
  facet normal 5.21259e-16 -0.568065 -0.822984
    outer loop
      vertex -6 25.4376 26.1378
      vertex -0.5 23.8107 27.2607
      vertex -6 23.8107 27.2607
    endloop
  endfacet
  facet normal 4.28343e-16 -0.748511 -0.663123
    outer loop
      vertex -6 26.7485 24.6581
      vertex -0.5 26.7485 24.6581
      vertex -0.5 26.5342 24.9
    endloop
  endfacet
  facet normal 1.7512e-15 -0.748511 -0.663123
    outer loop
      vertex -0.535534 26.4645 24.9787
      vertex -6 26.7485 24.6581
      vertex -0.582123 26.5342 24.9
    endloop
  endfacet
  facet normal -0 -0.748511 -0.663123
    outer loop
      vertex -0.582123 26.5342 24.9
      vertex -6 26.7485 24.6581
      vertex -0.5 26.5342 24.9
    endloop
  endfacet
  facet normal -2.11757e-15 -0.748511 -0.663123
    outer loop
      vertex -0.5 26.4407 25.0055
      vertex -6 26.7485 24.6581
      vertex -0.535534 26.4645 24.9787
    endloop
  endfacet
  facet normal 0 -0.748511 -0.663123
    outer loop
      vertex -0.5 25.4376 26.1378
      vertex -6 26.7485 24.6581
      vertex -0.5 26.4407 25.0055
    endloop
  endfacet
  facet normal 4.28343e-16 -0.748511 -0.663123
    outer loop
      vertex -6 25.4376 26.1378
      vertex -6 26.7485 24.6581
      vertex -0.5 25.4376 26.1378
    endloop
  endfacet
  facet normal -0 -0.885456 -0.464723
    outer loop
      vertex -6 27.6671 22.9078
      vertex -0.5 27.6671 22.9078
      vertex -0.5 26.7485 24.6581
    endloop
  endfacet
  facet normal 3.00187e-16 -0.885456 -0.464723
    outer loop
      vertex -6 26.7485 24.6581
      vertex -6 27.6671 22.9078
      vertex -0.5 26.7485 24.6581
    endloop
  endfacet
  facet normal -0 -0.970942 -0.239316
    outer loop
      vertex -6 28.1402 20.9884
      vertex -0.5 28.1402 20.9884
      vertex -0.5 27.6671 22.9078
    endloop
  endfacet
  facet normal -0 -0.970942 -0.239316
    outer loop
      vertex -6 27.6671 22.9078
      vertex -6 28.1402 20.9884
      vertex -0.5 27.6671 22.9078
    endloop
  endfacet
  facet normal 0 -1 0
    outer loop
      vertex -0.5 28.1402 19.0116
      vertex -0.5 28.1402 20.9884
      vertex -6 28.1402 20.9884
    endloop
  endfacet
  facet normal 0 -1 -0
    outer loop
      vertex -6 28.1402 19.0116
      vertex -0.5 28.1402 19.0116
      vertex -6 28.1402 20.9884
    endloop
  endfacet
  facet normal -1.54447e-16 -0.970942 0.239316
    outer loop
      vertex -0.5 27.6671 17.0922
      vertex -0.5 28.1402 19.0116
      vertex -6 28.1402 19.0116
    endloop
  endfacet
  facet normal 0 -0.970942 0.239316
    outer loop
      vertex -6 27.6671 17.0922
      vertex -0.5 27.6671 17.0922
      vertex -6 28.1402 19.0116
    endloop
  endfacet
  facet normal 0 -0.885456 0.464723
    outer loop
      vertex -0.5 26.7485 15.3419
      vertex -0.5 27.6671 17.0922
      vertex -6 27.6671 17.0922
    endloop
  endfacet
  facet normal -1.50093e-16 -0.885456 0.464723
    outer loop
      vertex -6 26.7485 15.3419
      vertex -0.5 26.7485 15.3419
      vertex -6 27.6671 17.0922
    endloop
  endfacet
  facet normal -1.93059e-16 -0.748511 0.663123
    outer loop
      vertex -0.5 25.4376 13.8622
      vertex -0.5 26.7485 15.3419
      vertex -6 26.7485 15.3419
    endloop
  endfacet
  facet normal -2.14171e-16 -0.748511 0.663123
    outer loop
      vertex -6 25.4376 13.8622
      vertex -0.5 25.4376 13.8622
      vertex -6 26.7485 15.3419
    endloop
  endfacet
  facet normal -2.50977e-16 -0.568065 0.822984
    outer loop
      vertex -0.5 23.8107 12.7393
      vertex -0.5 25.4376 13.8622
      vertex -6 25.4376 13.8622
    endloop
  endfacet
  facet normal -2.65802e-16 -0.568065 0.822984
    outer loop
      vertex -6 23.8107 12.7393
      vertex -0.5 23.8107 12.7393
      vertex -6 25.4376 13.8622
    endloop
  endfacet
  facet normal -2.70282e-16 -0.354605 0.935016
    outer loop
      vertex -0.5 21.9624 12.0383
      vertex -0.5 23.8107 12.7393
      vertex -6 23.8107 12.7393
    endloop
  endfacet
  facet normal 0 -0.354605 0.935016
    outer loop
      vertex -6 21.9624 12.0383
      vertex -0.5 21.9624 12.0383
      vertex -6 23.8107 12.7393
    endloop
  endfacet
  facet normal 0 -0.120537 0.992709
    outer loop
      vertex -0.5 20 11.8
      vertex -0.5 21.9624 12.0383
      vertex -6 21.9624 12.0383
    endloop
  endfacet
  facet normal 0 -0.120537 0.992709
    outer loop
      vertex -6 20 11.8
      vertex -0.5 20 11.8
      vertex -6 21.9624 12.0383
    endloop
  endfacet
  facet normal 0 0.120537 0.992709
    outer loop
      vertex -0.5 18.0376 12.0383
      vertex -0.5 20 11.8
      vertex -6 20 11.8
    endloop
  endfacet
  facet normal 0 0.120537 0.992709
    outer loop
      vertex -6 18.0376 12.0383
      vertex -0.5 18.0376 12.0383
      vertex -6 20 11.8
    endloop
  endfacet
  facet normal 0 0.354605 0.935016
    outer loop
      vertex -0.5 16.1893 12.7393
      vertex -0.5 18.0376 12.0383
      vertex -6 18.0376 12.0383
    endloop
  endfacet
  facet normal -3.01986e-16 0.354605 0.935016
    outer loop
      vertex -6 16.1893 12.7393
      vertex -0.5 16.1893 12.7393
      vertex -6 18.0376 12.0383
    endloop
  endfacet
  facet normal -2.70282e-16 0.568065 0.822984
    outer loop
      vertex -0.5 14.5624 13.8622
      vertex -0.5 16.1893 12.7393
      vertex -6 16.1893 12.7393
    endloop
  endfacet
  facet normal -2.65802e-16 0.568065 0.822984
    outer loop
      vertex -6 14.5624 13.8622
      vertex -0.5 14.5624 13.8622
      vertex -6 16.1893 12.7393
    endloop
  endfacet
  facet normal -2.14171e-16 0.748511 0.663123
    outer loop
      vertex -0.5 14.5624 13.8622
      vertex -6 14.5624 13.8622
      vertex -0.5 13.2515 15.3419
    endloop
  endfacet
  facet normal -2.14171e-16 0.748511 0.663123
    outer loop
      vertex -0.5 13.2515 15.3419
      vertex -6 14.5624 13.8622
      vertex -6 13.2515 15.3419
    endloop
  endfacet
  facet normal -1.50093e-16 0.885456 0.464723
    outer loop
      vertex -0.5 13.2515 15.3419
      vertex -6 13.2515 15.3419
      vertex -0.5 12.3329 17.0922
    endloop
  endfacet
  facet normal -0 0.885456 0.464723
    outer loop
      vertex -0.5 12.3329 17.0922
      vertex -6 13.2515 15.3419
      vertex -6 12.3329 17.0922
    endloop
  endfacet
  facet normal -0 0.970942 0.239316
    outer loop
      vertex -0.5 12.3329 17.0922
      vertex -6 12.3329 17.0922
      vertex -0.5 11.8598 19.0116
    endloop
  endfacet
  facet normal -1.54586e-16 0.970942 0.239316
    outer loop
      vertex -0.5 11.8598 19.0116
      vertex -6 12.3329 17.0922
      vertex -6 11.8598 19.0116
    endloop
  endfacet
  facet normal 1 0 -0
    outer loop
      vertex 33.9 21.9624 12.0383
      vertex 33.9 0 0
      vertex 33.9 39.9 0
    endloop
  endfacet
  facet normal 1 0 0
    outer loop
      vertex 33.9 20 28.2
      vertex 33.9 21.9624 27.9617
      vertex 33.9 39.9 30
    endloop
  endfacet
  facet normal 1 0 -0
    outer loop
      vertex 33.9 0 30
      vertex 33.9 0 0
      vertex 33.9 11.8598 19.0116
    endloop
  endfacet
  facet normal 1 0 0
    outer loop
      vertex 33.9 21.9624 27.9617
      vertex 33.9 23.8107 27.2607
      vertex 33.9 39.9 30
    endloop
  endfacet
  facet normal 1 0 0
    outer loop
      vertex 33.9 0 30
      vertex 33.9 11.8598 19.0116
      vertex 33.9 11.8598 20.9884
    endloop
  endfacet
  facet normal 1 -0 0
    outer loop
      vertex 33.9 13.2515 24.6581
      vertex 33.9 0 30
      vertex 33.9 12.3329 22.9078
    endloop
  endfacet
  facet normal 1 0 0
    outer loop
      vertex 33.9 27.6671 22.9078
      vertex 33.9 28.1402 20.9884
      vertex 33.9 39.9 0
    endloop
  endfacet
  facet normal 1 -0 0
    outer loop
      vertex 33.9 14.5624 26.1378
      vertex 33.9 0 30
      vertex 33.9 13.2515 24.6581
    endloop
  endfacet
  facet normal 1 -0 0
    outer loop
      vertex 33.9 16.1893 27.2607
      vertex 33.9 0 30
      vertex 33.9 14.5624 26.1378
    endloop
  endfacet
  facet normal 1 -0 0
    outer loop
      vertex 33.9 18.0376 27.9617
      vertex 33.9 0 30
      vertex 33.9 16.1893 27.2607
    endloop
  endfacet
  facet normal 1 -0 0
    outer loop
      vertex 33.9 20 28.2
      vertex 33.9 0 30
      vertex 33.9 18.0376 27.9617
    endloop
  endfacet
  facet normal 1 0 0
    outer loop
      vertex 33.9 39.9 30
      vertex 33.9 0 30
      vertex 33.9 20 28.2
    endloop
  endfacet
  facet normal 1 0 0
    outer loop
      vertex 33.9 23.8107 27.2607
      vertex 33.9 25.4376 26.1378
      vertex 33.9 39.9 30
    endloop
  endfacet
  facet normal 1 0 -0
    outer loop
      vertex 33.9 23.8107 12.7393
      vertex 33.9 21.9624 12.0383
      vertex 33.9 39.9 0
    endloop
  endfacet
  facet normal 1 0 -0
    outer loop
      vertex 33.9 25.4376 13.8622
      vertex 33.9 23.8107 12.7393
      vertex 33.9 39.9 0
    endloop
  endfacet
  facet normal 1 0 0
    outer loop
      vertex 33.9 39.9 30
      vertex 33.9 26.7485 24.6581
      vertex 33.9 39.9 0
    endloop
  endfacet
  facet normal 1 0 0
    outer loop
      vertex 33.9 39.9 30
      vertex 33.9 25.4376 26.1378
      vertex 33.9 26.7485 24.6581
    endloop
  endfacet
  facet normal 1 0 0
    outer loop
      vertex 33.9 26.7485 24.6581
      vertex 33.9 27.6671 22.9078
      vertex 33.9 39.9 0
    endloop
  endfacet
  facet normal 1 0 -0
    outer loop
      vertex 33.9 28.1402 20.9884
      vertex 33.9 28.1402 19.0116
      vertex 33.9 39.9 0
    endloop
  endfacet
  facet normal 1 0 -0
    outer loop
      vertex 33.9 28.1402 19.0116
      vertex 33.9 27.6671 17.0922
      vertex 33.9 39.9 0
    endloop
  endfacet
  facet normal 1 0 -0
    outer loop
      vertex 33.9 27.6671 17.0922
      vertex 33.9 26.7485 15.3419
      vertex 33.9 39.9 0
    endloop
  endfacet
  facet normal 1 0 -0
    outer loop
      vertex 33.9 26.7485 15.3419
      vertex 33.9 25.4376 13.8622
      vertex 33.9 39.9 0
    endloop
  endfacet
  facet normal 1 0 -0
    outer loop
      vertex 33.9 20 11.8
      vertex 33.9 0 0
      vertex 33.9 21.9624 12.0383
    endloop
  endfacet
  facet normal 1 0 -0
    outer loop
      vertex 33.9 18.0376 12.0383
      vertex 33.9 0 0
      vertex 33.9 20 11.8
    endloop
  endfacet
  facet normal 1 0 -0
    outer loop
      vertex 33.9 16.1893 12.7393
      vertex 33.9 0 0
      vertex 33.9 18.0376 12.0383
    endloop
  endfacet
  facet normal 1 0 -0
    outer loop
      vertex 33.9 14.5624 13.8622
      vertex 33.9 0 0
      vertex 33.9 16.1893 12.7393
    endloop
  endfacet
  facet normal 1 0 -0
    outer loop
      vertex 33.9 13.2515 15.3419
      vertex 33.9 0 0
      vertex 33.9 14.5624 13.8622
    endloop
  endfacet
  facet normal 1 0 -0
    outer loop
      vertex 33.9 12.3329 17.0922
      vertex 33.9 0 0
      vertex 33.9 13.2515 15.3419
    endloop
  endfacet
  facet normal 1 0 -0
    outer loop
      vertex 33.9 11.8598 19.0116
      vertex 33.9 0 0
      vertex 33.9 12.3329 17.0922
    endloop
  endfacet
  facet normal 1 0 0
    outer loop
      vertex 33.9 11.8598 20.9884
      vertex 33.9 12.3329 22.9078
      vertex 33.9 0 30
    endloop
  endfacet
  facet normal 0.841253 -0.540641 0
    outer loop
      vertex 0.773474 12.5695 0
      vertex 0.773474 12.5695 24.5
      vertex -0.262276 10.9579 24.5
    endloop
  endfacet
  facet normal 0.841253 -0.540641 0
    outer loop
      vertex -0.262276 10.9579 0
      vertex 0.773474 12.5695 0
      vertex -0.262276 10.9579 24.5
    endloop
  endfacet
  facet normal 1 0 0
    outer loop
      vertex -0.262276 10.9579 0
      vertex -0.262276 10.9579 24.5
      vertex -0.262276 9.04211 24.5
    endloop
  endfacet
  facet normal 1 0 0
    outer loop
      vertex -0.262276 9.04211 0
      vertex -0.262276 10.9579 0
      vertex -0.262276 9.04211 24.5
    endloop
  endfacet
  facet normal 0.415415 -0.909632 0
    outer loop
      vertex 2.51613 13.3654 0
      vertex 2.51613 13.3654 24.5
      vertex 0.773474 12.5695 24.5
    endloop
  endfacet
  facet normal 0.415415 -0.909632 0
    outer loop
      vertex 0.773474 12.5695 0
      vertex 2.51613 13.3654 0
      vertex 0.773474 12.5695 24.5
    endloop
  endfacet
  facet normal -0.142315 -0.989821 -0
    outer loop
      vertex 4.41241 13.0927 0
      vertex 4.41241 13.0927 24.5
      vertex 2.51613 13.3654 24.5
    endloop
  endfacet
  facet normal -0.142315 -0.989821 -0
    outer loop
      vertex 2.51613 13.3654 0
      vertex 4.41241 13.0927 0
      vertex 2.51613 13.3654 24.5
    endloop
  endfacet
  facet normal -0.654861 -0.75575 -0
    outer loop
      vertex 5.86026 11.8382 0
      vertex 5.86026 11.8382 24.5
      vertex 4.41241 13.0927 24.5
    endloop
  endfacet
  facet normal -0.654861 -0.75575 -0
    outer loop
      vertex 4.41241 13.0927 0
      vertex 5.86026 11.8382 0
      vertex 4.41241 13.0927 24.5
    endloop
  endfacet
  facet normal -0.959493 -0.281733 0
    outer loop
      vertex 6.4 10 24.5
      vertex 5.86026 11.8382 24.5
      vertex 6.4 10 0
    endloop
  endfacet
  facet normal -0.959493 -0.281733 0
    outer loop
      vertex 6.4 10 0
      vertex 5.86026 11.8382 24.5
      vertex 5.86026 11.8382 0
    endloop
  endfacet
  facet normal -0.959493 0.281733 0
    outer loop
      vertex 6.4 10 24.5
      vertex 6.4 10 0
      vertex 5.86026 8.16182 24.5
    endloop
  endfacet
  facet normal -0.959493 0.281733 0
    outer loop
      vertex 5.86026 8.16182 24.5
      vertex 6.4 10 0
      vertex 5.86026 8.16182 0
    endloop
  endfacet
  facet normal -0.654861 0.75575 0
    outer loop
      vertex 5.86026 8.16182 24.5
      vertex 5.86026 8.16182 0
      vertex 4.41241 6.90725 24.5
    endloop
  endfacet
  facet normal -0.654861 0.75575 0
    outer loop
      vertex 4.41241 6.90725 24.5
      vertex 5.86026 8.16182 0
      vertex 4.41241 6.90725 0
    endloop
  endfacet
  facet normal -0.142315 0.989821 0
    outer loop
      vertex 4.41241 6.90725 24.5
      vertex 4.41241 6.90725 0
      vertex 2.51613 6.63461 24.5
    endloop
  endfacet
  facet normal -0.142315 0.989821 0
    outer loop
      vertex 2.51613 6.63461 24.5
      vertex 4.41241 6.90725 0
      vertex 2.51613 6.63461 0
    endloop
  endfacet
  facet normal 0.415415 0.909632 -0
    outer loop
      vertex 2.51613 6.63461 24.5
      vertex 2.51613 6.63461 0
      vertex 0.773474 7.43045 24.5
    endloop
  endfacet
  facet normal 0.415415 0.909632 -0
    outer loop
      vertex 0.773474 7.43045 24.5
      vertex 2.51613 6.63461 0
      vertex 0.773474 7.43045 0
    endloop
  endfacet
  facet normal 0.841253 0.540641 0
    outer loop
      vertex -0.262276 9.04211 24.5
      vertex 0.773474 7.43045 24.5
      vertex 0.773474 7.43045 0
    endloop
  endfacet
  facet normal 0.841253 0.540641 0
    outer loop
      vertex -0.262276 9.04211 0
      vertex -0.262276 9.04211 24.5
      vertex 0.773474 7.43045 0
    endloop
  endfacet
  facet normal 0.841253 -0.540641 0
    outer loop
      vertex 0.773474 32.5695 0
      vertex 0.773474 32.5695 24.9
      vertex -0.262276 30.9579 24.9
    endloop
  endfacet
  facet normal 0.841253 -0.540641 0
    outer loop
      vertex -0.262276 30.9579 0
      vertex 0.773474 32.5695 0
      vertex -0.262276 30.9579 24.9
    endloop
  endfacet
  facet normal 1 0 0
    outer loop
      vertex -0.262276 30.9579 0
      vertex -0.262276 30.9579 24.9
      vertex -0.262276 29.0421 24.9
    endloop
  endfacet
  facet normal 1 0 0
    outer loop
      vertex -0.262276 29.0421 0
      vertex -0.262276 30.9579 0
      vertex -0.262276 29.0421 24.9
    endloop
  endfacet
  facet normal 0.415415 -0.909632 0
    outer loop
      vertex 2.51613 33.3654 0
      vertex 2.51613 33.3654 24.9
      vertex 0.773474 32.5695 24.9
    endloop
  endfacet
  facet normal 0.415415 -0.909632 0
    outer loop
      vertex 0.773474 32.5695 0
      vertex 2.51613 33.3654 0
      vertex 0.773474 32.5695 24.9
    endloop
  endfacet
  facet normal -0.142315 -0.989821 -0
    outer loop
      vertex 4.41241 33.0927 0
      vertex 4.41241 33.0927 24.9
      vertex 2.51613 33.3654 24.9
    endloop
  endfacet
  facet normal -0.142315 -0.989821 -0
    outer loop
      vertex 2.51613 33.3654 0
      vertex 4.41241 33.0927 0
      vertex 2.51613 33.3654 24.9
    endloop
  endfacet
  facet normal -0.654861 -0.75575 -0
    outer loop
      vertex 5.86026 31.8382 0
      vertex 5.86026 31.8382 24.9
      vertex 4.41241 33.0927 24.9
    endloop
  endfacet
  facet normal -0.654861 -0.75575 -0
    outer loop
      vertex 4.41241 33.0927 0
      vertex 5.86026 31.8382 0
      vertex 4.41241 33.0927 24.9
    endloop
  endfacet
  facet normal -0.959493 -0.281733 0
    outer loop
      vertex 6.4 30 24.9
      vertex 5.86026 31.8382 24.9
      vertex 6.4 30 0
    endloop
  endfacet
  facet normal -0.959493 -0.281733 0
    outer loop
      vertex 6.4 30 0
      vertex 5.86026 31.8382 24.9
      vertex 5.86026 31.8382 0
    endloop
  endfacet
  facet normal -0.959493 0.281733 0
    outer loop
      vertex 6.4 30 24.9
      vertex 6.4 30 0
      vertex 5.86026 28.1618 24.9
    endloop
  endfacet
  facet normal -0.959493 0.281733 0
    outer loop
      vertex 5.86026 28.1618 24.9
      vertex 6.4 30 0
      vertex 5.86026 28.1618 0
    endloop
  endfacet
  facet normal -0.654861 0.75575 0
    outer loop
      vertex 5.86026 28.1618 24.9
      vertex 5.86026 28.1618 0
      vertex 4.41241 26.9073 24.9
    endloop
  endfacet
  facet normal -0.654861 0.75575 0
    outer loop
      vertex 4.41241 26.9073 24.9
      vertex 5.86026 28.1618 0
      vertex 4.41241 26.9073 0
    endloop
  endfacet
  facet normal -0.142315 0.989821 0
    outer loop
      vertex 4.41241 26.9073 24.9
      vertex 4.41241 26.9073 0
      vertex 2.51613 26.6346 24.9
    endloop
  endfacet
  facet normal -0.142315 0.989821 0
    outer loop
      vertex 2.51613 26.6346 24.9
      vertex 4.41241 26.9073 0
      vertex 2.51613 26.6346 0
    endloop
  endfacet
  facet normal 0.415415 0.909632 -0
    outer loop
      vertex 2.51613 26.6346 24.9
      vertex 2.51613 26.6346 0
      vertex 0.773474 27.4305 24.9
    endloop
  endfacet
  facet normal 0.415415 0.909632 -0
    outer loop
      vertex 0.773474 27.4305 24.9
      vertex 2.51613 26.6346 0
      vertex 0.773474 27.4305 0
    endloop
  endfacet
  facet normal 0.841253 0.540641 0
    outer loop
      vertex -0.262276 29.0421 24.9
      vertex 0.773474 27.4305 24.9
      vertex 0.773474 27.4305 0
    endloop
  endfacet
  facet normal 0.841253 0.540641 0
    outer loop
      vertex -0.262276 29.0421 0
      vertex -0.262276 29.0421 24.9
      vertex 0.773474 27.4305 0
    endloop
  endfacet
  facet normal 0.83147 0.55557 0
    outer loop
      vertex -1.6194 8.08658 30
      vertex -0.535534 6.46447 30
      vertex -0.535534 6.46447 24.5
    endloop
  endfacet
  facet normal 0.83147 0.55557 0
    outer loop
      vertex -1.6194 8.08658 24.5
      vertex -1.6194 8.08658 30
      vertex -0.535534 6.46447 24.5
    endloop
  endfacet
  facet normal 0.980785 0.19509 0
    outer loop
      vertex -2 10 30
      vertex -1.6194 8.08658 30
      vertex -1.6194 8.08658 24.5
    endloop
  endfacet
  facet normal 0.980785 0.19509 0
    outer loop
      vertex -2 10 24.5
      vertex -2 10 30
      vertex -1.6194 8.08658 24.5
    endloop
  endfacet
  facet normal 0.55557 0.83147 -0
    outer loop
      vertex 1.08658 5.3806 30
      vertex 1.08658 5.3806 24.5
      vertex -0.535534 6.46447 30
    endloop
  endfacet
  facet normal 0.55557 0.83147 -0
    outer loop
      vertex -0.535534 6.46447 30
      vertex 1.08658 5.3806 24.5
      vertex -0.535534 6.46447 24.5
    endloop
  endfacet
  facet normal 0.19509 0.980785 -0
    outer loop
      vertex 3 5 30
      vertex 3 5 24.5
      vertex 1.08658 5.3806 30
    endloop
  endfacet
  facet normal 0.19509 0.980785 -0
    outer loop
      vertex 1.08658 5.3806 30
      vertex 3 5 24.5
      vertex 1.08658 5.3806 24.5
    endloop
  endfacet
  facet normal -0.19509 0.980785 0
    outer loop
      vertex 4.91342 5.3806 30
      vertex 4.91342 5.3806 24.5
      vertex 3 5 30
    endloop
  endfacet
  facet normal -0.19509 0.980785 0
    outer loop
      vertex 3 5 30
      vertex 4.91342 5.3806 24.5
      vertex 3 5 24.5
    endloop
  endfacet
  facet normal -0.55557 0.83147 0
    outer loop
      vertex 6.53553 6.46447 30
      vertex 6.53553 6.46447 24.5
      vertex 4.91342 5.3806 30
    endloop
  endfacet
  facet normal -0.55557 0.83147 0
    outer loop
      vertex 4.91342 5.3806 30
      vertex 6.53553 6.46447 24.5
      vertex 4.91342 5.3806 24.5
    endloop
  endfacet
  facet normal -0.83147 0.55557 0
    outer loop
      vertex 7.6194 8.08658 30
      vertex 7.6194 8.08658 24.5
      vertex 6.53553 6.46447 30
    endloop
  endfacet
  facet normal -0.83147 0.55557 0
    outer loop
      vertex 6.53553 6.46447 30
      vertex 7.6194 8.08658 24.5
      vertex 6.53553 6.46447 24.5
    endloop
  endfacet
  facet normal -0.980785 0.19509 0
    outer loop
      vertex 8 10 30
      vertex 8 10 24.5
      vertex 7.6194 8.08658 30
    endloop
  endfacet
  facet normal -0.980785 0.19509 0
    outer loop
      vertex 7.6194 8.08658 30
      vertex 8 10 24.5
      vertex 7.6194 8.08658 24.5
    endloop
  endfacet
  facet normal -0.980785 -0.19509 0
    outer loop
      vertex 8 10 30
      vertex 7.6194 11.9134 30
      vertex 8 10 24.5
    endloop
  endfacet
  facet normal -0.980785 -0.19509 0
    outer loop
      vertex 8 10 24.5
      vertex 7.6194 11.9134 30
      vertex 7.6194 11.9134 24.5
    endloop
  endfacet
  facet normal -0.83147 -0.55557 0
    outer loop
      vertex 7.6194 11.9134 30
      vertex 6.53553 13.5355 30
      vertex 7.6194 11.9134 24.5
    endloop
  endfacet
  facet normal -0.83147 -0.55557 0
    outer loop
      vertex 7.6194 11.9134 24.5
      vertex 6.53553 13.5355 30
      vertex 6.53553 13.5355 24.5
    endloop
  endfacet
  facet normal -0.55557 -0.83147 -0
    outer loop
      vertex 6.53553 13.5355 24.5
      vertex 6.53553 13.5355 30
      vertex 4.91342 14.6194 30
    endloop
  endfacet
  facet normal -0.55557 -0.83147 -0
    outer loop
      vertex 4.91342 14.6194 24.5
      vertex 6.53553 13.5355 24.5
      vertex 4.91342 14.6194 30
    endloop
  endfacet
  facet normal -0.19509 -0.980785 -0
    outer loop
      vertex 4.91342 14.6194 24.5
      vertex 4.91342 14.6194 30
      vertex 3 15 30
    endloop
  endfacet
  facet normal -0.19509 -0.980785 -0
    outer loop
      vertex 3 15 24.5
      vertex 4.91342 14.6194 24.5
      vertex 3 15 30
    endloop
  endfacet
  facet normal 0.19509 -0.980785 0
    outer loop
      vertex 3 15 24.5
      vertex 3 15 30
      vertex 1.08658 14.6194 30
    endloop
  endfacet
  facet normal 0.19509 -0.980785 0
    outer loop
      vertex 1.08658 14.6194 24.5
      vertex 3 15 24.5
      vertex 1.08658 14.6194 30
    endloop
  endfacet
  facet normal 0.55557 -0.83147 2.44037e-16
    outer loop
      vertex -0.5 13.5593 25.0055
      vertex -0.5 13.5593 24.5
      vertex 1.08658 14.6194 24.5
    endloop
  endfacet
  facet normal 0.55557 -0.83147 -1.92631e-16
    outer loop
      vertex -0.535534 13.5355 30
      vertex -0.5 13.5593 25.0055
      vertex 1.08658 14.6194 30
    endloop
  endfacet
  facet normal 0.55557 -0.83147 0
    outer loop
      vertex 1.08658 14.6194 30
      vertex -0.5 13.5593 25.0055
      vertex 1.08658 14.6194 24.5
    endloop
  endfacet
  facet normal 0.55557 -0.83147 0
    outer loop
      vertex -0.535534 13.5355 24.9787
      vertex -0.5 13.5593 25.0055
      vertex -0.535534 13.5355 30
    endloop
  endfacet
  facet normal 0.83147 -0.55557 9.58202e-17
    outer loop
      vertex -0.780753 13.1685 24.5
      vertex -0.725298 13.2515 24.6581
      vertex -0.535534 13.5355 30
    endloop
  endfacet
  facet normal 0.83147 -0.55557 0
    outer loop
      vertex -0.535534 13.5355 30
      vertex -0.725298 13.2515 24.6581
      vertex -0.535534 13.5355 24.9787
    endloop
  endfacet
  facet normal 0.83147 -0.55557 -5.3796e-17
    outer loop
      vertex -0.780753 13.1685 24.5
      vertex -0.535534 13.5355 30
      vertex -1.6194 11.9134 30
    endloop
  endfacet
  facet normal 0.83147 -0.55557 0
    outer loop
      vertex -0.780753 13.1685 24.5
      vertex -1.6194 11.9134 30
      vertex -1.6194 11.9134 24.5
    endloop
  endfacet
  facet normal 0.980785 -0.19509 0
    outer loop
      vertex -1.6194 11.9134 24.5
      vertex -1.6194 11.9134 30
      vertex -2 10 30
    endloop
  endfacet
  facet normal 0.980785 -0.19509 0
    outer loop
      vertex -2 10 24.5
      vertex -1.6194 11.9134 24.5
      vertex -2 10 30
    endloop
  endfacet
  facet normal 0.980785 0.19509 0
    outer loop
      vertex -2 30 30
      vertex -1.6194 28.0866 30
      vertex -1.6194 28.0866 24.9
    endloop
  endfacet
  facet normal 0.980785 0.19509 0
    outer loop
      vertex -2 30 24.9
      vertex -2 30 30
      vertex -1.6194 28.0866 24.9
    endloop
  endfacet
  facet normal 0.83147 0.55557 0
    outer loop
      vertex -1.6194 28.0866 30
      vertex -0.535534 26.4645 30
      vertex -0.535534 26.4645 24.9787
    endloop
  endfacet
  facet normal 0.83147 0.55557 0
    outer loop
      vertex -1.6194 28.0866 24.9
      vertex -1.6194 28.0866 30
      vertex -0.582123 26.5342 24.9
    endloop
  endfacet
  facet normal 0.83147 0.55557 3.47462e-15
    outer loop
      vertex -0.582123 26.5342 24.9
      vertex -1.6194 28.0866 30
      vertex -0.535534 26.4645 24.9787
    endloop
  endfacet
  facet normal 0.55557 0.83147 -0
    outer loop
      vertex 1.08658 25.3806 30
      vertex 1.08658 25.3806 24.9
      vertex -0.535534 26.4645 30
    endloop
  endfacet
  facet normal 0.55557 0.83147 5.84633e-16
    outer loop
      vertex -0.5 26.4407 25.0055
      vertex 1.08658 25.3806 24.9
      vertex -0.5 26.4407 24.9
    endloop
  endfacet
  facet normal 0.55557 0.83147 9.94689e-17
    outer loop
      vertex -0.535534 26.4645 30
      vertex 1.08658 25.3806 24.9
      vertex -0.5 26.4407 25.0055
    endloop
  endfacet
  facet normal 0.55557 0.83147 0
    outer loop
      vertex -0.535534 26.4645 24.9787
      vertex -0.535534 26.4645 30
      vertex -0.5 26.4407 25.0055
    endloop
  endfacet
  facet normal 0.19509 0.980785 -0
    outer loop
      vertex 3 25 30
      vertex 3 25 24.9
      vertex 1.08658 25.3806 30
    endloop
  endfacet
  facet normal 0.19509 0.980785 -0
    outer loop
      vertex 1.08658 25.3806 30
      vertex 3 25 24.9
      vertex 1.08658 25.3806 24.9
    endloop
  endfacet
  facet normal -0.19509 0.980785 0
    outer loop
      vertex 4.91342 25.3806 30
      vertex 4.91342 25.3806 24.9
      vertex 3 25 30
    endloop
  endfacet
  facet normal -0.19509 0.980785 0
    outer loop
      vertex 3 25 30
      vertex 4.91342 25.3806 24.9
      vertex 3 25 24.9
    endloop
  endfacet
  facet normal -0.55557 0.83147 0
    outer loop
      vertex 6.53553 26.4645 30
      vertex 6.53553 26.4645 24.9
      vertex 4.91342 25.3806 30
    endloop
  endfacet
  facet normal -0.55557 0.83147 0
    outer loop
      vertex 4.91342 25.3806 30
      vertex 6.53553 26.4645 24.9
      vertex 4.91342 25.3806 24.9
    endloop
  endfacet
  facet normal -0.83147 0.55557 0
    outer loop
      vertex 7.6194 28.0866 30
      vertex 7.6194 28.0866 24.9
      vertex 6.53553 26.4645 30
    endloop
  endfacet
  facet normal -0.83147 0.55557 0
    outer loop
      vertex 6.53553 26.4645 30
      vertex 7.6194 28.0866 24.9
      vertex 6.53553 26.4645 24.9
    endloop
  endfacet
  facet normal -0.980785 0.19509 0
    outer loop
      vertex 8 30 30
      vertex 8 30 24.9
      vertex 7.6194 28.0866 30
    endloop
  endfacet
  facet normal -0.980785 0.19509 0
    outer loop
      vertex 7.6194 28.0866 30
      vertex 8 30 24.9
      vertex 7.6194 28.0866 24.9
    endloop
  endfacet
  facet normal -0.980785 -0.19509 0
    outer loop
      vertex 8 30 30
      vertex 7.6194 31.9134 30
      vertex 8 30 24.9
    endloop
  endfacet
  facet normal -0.980785 -0.19509 0
    outer loop
      vertex 8 30 24.9
      vertex 7.6194 31.9134 30
      vertex 7.6194 31.9134 24.9
    endloop
  endfacet
  facet normal -0.83147 -0.55557 0
    outer loop
      vertex 7.6194 31.9134 30
      vertex 6.53553 33.5355 30
      vertex 7.6194 31.9134 24.9
    endloop
  endfacet
  facet normal -0.83147 -0.55557 0
    outer loop
      vertex 7.6194 31.9134 24.9
      vertex 6.53553 33.5355 30
      vertex 6.53553 33.5355 24.9
    endloop
  endfacet
  facet normal -0.55557 -0.83147 -0
    outer loop
      vertex 6.53553 33.5355 24.9
      vertex 6.53553 33.5355 30
      vertex 4.91342 34.6194 30
    endloop
  endfacet
  facet normal -0.55557 -0.83147 -0
    outer loop
      vertex 4.91342 34.6194 24.9
      vertex 6.53553 33.5355 24.9
      vertex 4.91342 34.6194 30
    endloop
  endfacet
  facet normal -0.19509 -0.980785 -0
    outer loop
      vertex 4.91342 34.6194 24.9
      vertex 4.91342 34.6194 30
      vertex 3 35 30
    endloop
  endfacet
  facet normal -0.19509 -0.980785 -0
    outer loop
      vertex 3 35 24.9
      vertex 4.91342 34.6194 24.9
      vertex 3 35 30
    endloop
  endfacet
  facet normal 0.19509 -0.980785 0
    outer loop
      vertex 3 35 24.9
      vertex 3 35 30
      vertex 1.08658 34.6194 30
    endloop
  endfacet
  facet normal 0.19509 -0.980785 0
    outer loop
      vertex 1.08658 34.6194 24.9
      vertex 3 35 24.9
      vertex 1.08658 34.6194 30
    endloop
  endfacet
  facet normal 0.55557 -0.83147 0
    outer loop
      vertex 1.08658 34.6194 24.9
      vertex 1.08658 34.6194 30
      vertex -0.535534 33.5355 30
    endloop
  endfacet
  facet normal 0.55557 -0.83147 0
    outer loop
      vertex -0.535534 33.5355 24.9
      vertex 1.08658 34.6194 24.9
      vertex -0.535534 33.5355 30
    endloop
  endfacet
  facet normal 0.83147 -0.55557 0
    outer loop
      vertex -0.535534 33.5355 24.9
      vertex -0.535534 33.5355 30
      vertex -1.6194 31.9134 30
    endloop
  endfacet
  facet normal 0.83147 -0.55557 0
    outer loop
      vertex -1.6194 31.9134 24.9
      vertex -0.535534 33.5355 24.9
      vertex -1.6194 31.9134 30
    endloop
  endfacet
  facet normal 0.980785 -0.19509 0
    outer loop
      vertex -1.6194 31.9134 24.9
      vertex -1.6194 31.9134 30
      vertex -2 30 30
    endloop
  endfacet
  facet normal 0.980785 -0.19509 0
    outer loop
      vertex -2 30 24.9
      vertex -1.6194 31.9134 24.9
      vertex -2 30 30
    endloop
  endfacet
  facet normal -1 -3.31241e-17 -2.45722e-16
    outer loop
      vertex -0.5 23.8107 27.2607
      vertex -0.5 25.4376 26.1378
      vertex -0.5 21.9624 27.9617
    endloop
  endfacet
  facet normal -1 -1.32371e-17 -2.0783e-16
    outer loop
      vertex -0.5 21.9624 27.9617
      vertex -0.5 25.4376 26.1378
      vertex -0.5 26.4407 25.0055
    endloop
  endfacet
  facet normal -1 -5.70692e-16 -1.05231e-15
    outer loop
      vertex -0.5 21.9624 27.9617
      vertex -0.5 26.4407 25.0055
      vertex -0.5 26.4407 24.9
    endloop
  endfacet
  facet normal -1 0 0
    outer loop
      vertex -0.5 26.4407 24.9
      vertex -0.5 26.5342 24.9
      vertex -0.5 26.7485 24.6581
    endloop
  endfacet
  facet normal -1 1.14316e-15 1.45451e-15
    outer loop
      vertex -0.5 26.4407 24.9
      vertex -0.5 26.7485 24.6581
      vertex -0.5 21.9624 27.9617
    endloop
  endfacet
  facet normal -1 -5.63607e-17 -2.83292e-16
    outer loop
      vertex -0.5 21.9624 27.9617
      vertex -0.5 26.7485 24.6581
      vertex -0.5 27.6671 22.9078
    endloop
  endfacet
  facet normal -1 -1.32609e-17 -2.34642e-16
    outer loop
      vertex -0.5 21.9624 27.9617
      vertex -0.5 27.6671 22.9078
      vertex -0.5 28.1402 20.9884
    endloop
  endfacet
  facet normal -1 6.14121e-17 -1.68488e-16
    outer loop
      vertex -0.5 21.9624 27.9617
      vertex -0.5 28.1402 20.9884
      vertex -0.5 28.1402 19.0116
    endloop
  endfacet
  facet normal -1 -2.04284e-17 -2.26339e-16
    outer loop
      vertex -0.5 24.7631 22.75
      vertex -0.5 28.1402 19.0116
      vertex -0.5 27.6671 17.0922
    endloop
  endfacet
  facet normal -1 3.2348e-18 -2.23695e-16
    outer loop
      vertex -0.5 25.4164 19.0449
      vertex -0.5 27.6671 17.0922
      vertex -0.5 26.7485 15.3419
    endloop
  endfacet
  facet normal -1 3.96485e-18 -2.2861e-16
    outer loop
      vertex -0.5 24.7631 17.25
      vertex -0.5 26.7485 15.3419
      vertex -0.5 25.4376 13.8622
    endloop
  endfacet
  facet normal -1 -6.73567e-18 -2.37408e-16
    outer loop
      vertex -0.5 23.5353 15.7868
      vertex -0.5 25.4376 13.8622
      vertex -0.5 23.8107 12.7393
    endloop
  endfacet
  facet normal -1 -1.73933e-18 -2.18644e-16
    outer loop
      vertex -0.5 21.8811 14.8317
      vertex -0.5 21.9624 12.0383
      vertex -0.5 20 11.8
    endloop
  endfacet
  facet normal -1 8.2718e-19 -2.26157e-16
    outer loop
      vertex -0.5 20 14.5
      vertex -0.5 20 11.8
      vertex -0.5 18.0376 12.0383
    endloop
  endfacet
  facet normal -1 -2.25866e-17 -2.17937e-16
    outer loop
      vertex -0.5 18.1189 14.8317
      vertex -0.5 18.0376 12.0383
      vertex -0.5 16.1893 12.7393
    endloop
  endfacet
  facet normal -1 6.73567e-18 -2.37408e-16
    outer loop
      vertex -0.5 16.4647 15.7868
      vertex -0.5 16.1893 12.7393
      vertex -0.5 14.5624 13.8622
    endloop
  endfacet
  facet normal -1 -3.96485e-18 -2.2861e-16
    outer loop
      vertex -0.5 15.2369 17.25
      vertex -0.5 14.5624 13.8622
      vertex -0.5 13.2515 15.3419
    endloop
  endfacet
  facet normal -1 -3.2348e-18 -2.23695e-16
    outer loop
      vertex -0.5 14.5836 19.0449
      vertex -0.5 13.2515 15.3419
      vertex -0.5 12.3329 17.0922
    endloop
  endfacet
  facet normal -1 3.64057e-17 -2.224e-16
    outer loop
      vertex -0.5 14.5836 20.9551
      vertex -0.5 12.3329 17.0922
      vertex -0.5 11.8598 19.0116
    endloop
  endfacet
  facet normal -1 -4.36121e-17 -1.68488e-16
    outer loop
      vertex -0.5 15.2369 22.75
      vertex -0.5 11.8598 19.0116
      vertex -0.5 11.8598 20.9884
    endloop
  endfacet
  facet normal -1 -8.13963e-18 -2.29367e-16
    outer loop
      vertex -0.5 16.4647 24.2132
      vertex -0.5 11.8598 20.9884
      vertex -0.5 12.3329 22.9078
    endloop
  endfacet
  facet normal -1 0 -2.09181e-16
    outer loop
      vertex -0.5 13.5593 24.5
      vertex -0.5 12.3329 22.9078
      vertex -0.5 13.1685 24.5
    endloop
  endfacet
  facet normal -1 -9.24361e-18 -2.02062e-16
    outer loop
      vertex -0.5 21.9624 27.9617
      vertex -0.5 12.3329 22.9078
      vertex -0.5 13.5593 24.5
    endloop
  endfacet
  facet normal -1 -1.15701e-17 -2.20697e-16
    outer loop
      vertex -0.5 15.2369 17.25
      vertex -0.5 13.2515 15.3419
      vertex -0.5 14.5836 19.0449
    endloop
  endfacet
  facet normal -1 -3.16608e-17 -1.55159e-16
    outer loop
      vertex -0.5 18.1189 25.1683
      vertex -0.5 21.9624 27.9617
      vertex -0.5 20 25.5
    endloop
  endfacet
  facet normal -1 4.25518e-18 -1.99873e-16
    outer loop
      vertex -0.5 21.9624 27.9617
      vertex -0.5 13.5593 25.0055
      vertex -0.5 14.5624 26.1378
    endloop
  endfacet
  facet normal -1 5.79823e-18 -2.06133e-16
    outer loop
      vertex -0.5 21.9624 27.9617
      vertex -0.5 14.5624 26.1378
      vertex -0.5 16.1893 27.2607
    endloop
  endfacet
  facet normal -1 0 -1.58381e-16
    outer loop
      vertex -0.5 21.9624 27.9617
      vertex -0.5 16.1893 27.2607
      vertex -0.5 18.0376 27.9617
    endloop
  endfacet
  facet normal -1 0 -4.65938e-16
    outer loop
      vertex -0.5 21.9624 27.9617
      vertex -0.5 18.0376 27.9617
      vertex -0.5 20 28.2
    endloop
  endfacet
  facet normal -1 -9.48235e-17 -6.82525e-17
    outer loop
      vertex -0.5 16.4647 24.2132
      vertex -0.5 21.9624 27.9617
      vertex -0.5 18.1189 25.1683
    endloop
  endfacet
  facet normal -1 -2.27025e-17 -2.08573e-16
    outer loop
      vertex -0.5 15.2369 22.75
      vertex -0.5 11.8598 20.9884
      vertex -0.5 16.4647 24.2132
    endloop
  endfacet
  facet normal -1 -2.81477e-17 -1.66043e-16
    outer loop
      vertex -0.5 21.9624 27.9617
      vertex -0.5 16.4647 24.2132
      vertex -0.5 12.3329 22.9078
    endloop
  endfacet
  facet normal -1 7.32842e-17 -2.74086e-16
    outer loop
      vertex -0.5 14.5836 20.9551
      vertex -0.5 11.8598 19.0116
      vertex -0.5 15.2369 22.75
    endloop
  endfacet
  facet normal -1 -1.71165e-18 -2.29059e-16
    outer loop
      vertex -0.5 16.4647 15.7868
      vertex -0.5 14.5624 13.8622
      vertex -0.5 15.2369 17.25
    endloop
  endfacet
  facet normal -1 -2.36377e-18 -2.36586e-16
    outer loop
      vertex -0.5 18.1189 14.8317
      vertex -0.5 16.1893 12.7393
      vertex -0.5 16.4647 15.7868
    endloop
  endfacet
  facet normal -1 -8.98813e-18 -2.18332e-16
    outer loop
      vertex -0.5 20 14.5
      vertex -0.5 18.0376 12.0383
      vertex -0.5 18.1189 14.8317
    endloop
  endfacet
  facet normal -1 1.03678e-17 -2.26157e-16
    outer loop
      vertex -0.5 21.8811 14.8317
      vertex -0.5 20 11.8
      vertex -0.5 20 14.5
    endloop
  endfacet
  facet normal -1 2.87548e-17 -2.34201e-16
    outer loop
      vertex -0.5 23.5353 15.7868
      vertex -0.5 23.8107 12.7393
      vertex -0.5 21.9624 12.0383
    endloop
  endfacet
  facet normal -1 1.71165e-18 -2.29059e-16
    outer loop
      vertex -0.5 24.7631 17.25
      vertex -0.5 25.4376 13.8622
      vertex -0.5 23.5353 15.7868
    endloop
  endfacet
  facet normal -1 1.15701e-17 -2.20697e-16
    outer loop
      vertex -0.5 25.4164 19.0449
      vertex -0.5 26.7485 15.3419
      vertex -0.5 24.7631 17.25
    endloop
  endfacet
  facet normal -1 4.60305e-17 -1.74369e-16
    outer loop
      vertex -0.5 25.4164 20.9551
      vertex -0.5 27.6671 17.0922
      vertex -0.5 25.4164 19.0449
    endloop
  endfacet
  facet normal -1 -2.11373e-16 -3.24346e-16
    outer loop
      vertex -0.5 24.7631 22.75
      vertex -0.5 27.6671 17.0922
      vertex -0.5 25.4164 20.9551
    endloop
  endfacet
  facet normal -1 -1.40443e-17 -2.20572e-16
    outer loop
      vertex -0.5 21.9624 27.9617
      vertex -0.5 28.1402 19.0116
      vertex -0.5 24.7631 22.75
    endloop
  endfacet
  facet normal -1 4.83852e-17 -1.87022e-16
    outer loop
      vertex -0.5 23.5353 24.2132
      vertex -0.5 21.9624 27.9617
      vertex -0.5 24.7631 22.75
    endloop
  endfacet
  facet normal -1 1.91751e-17 -1.99279e-16
    outer loop
      vertex -0.5 21.8811 25.1683
      vertex -0.5 21.9624 27.9617
      vertex -0.5 23.5353 24.2132
    endloop
  endfacet
  facet normal -1 2.38571e-17 -1.99416e-16
    outer loop
      vertex -0.5 20 25.5
      vertex -0.5 21.9624 27.9617
      vertex -0.5 21.8811 25.1683
    endloop
  endfacet
  facet normal -1 -7.89141e-18 -2.18823e-16
    outer loop
      vertex -0.5 23.5353 15.7868
      vertex -0.5 21.9624 12.0383
      vertex -0.5 21.8811 14.8317
    endloop
  endfacet
  facet normal -1 8.84698e-17 -4.39255e-16
    outer loop
      vertex -0.5 13.5593 25.0055
      vertex -0.5 21.9624 27.9617
      vertex -0.5 13.5593 24.5
    endloop
  endfacet
  facet normal -1 -4.60305e-17 -1.74369e-16
    outer loop
      vertex -0.5 14.5836 19.0449
      vertex -0.5 12.3329 17.0922
      vertex -0.5 14.5836 20.9551
    endloop
  endfacet
  facet normal 0 0 1
    outer loop
      vertex -1.6194 11.9134 24.5
      vertex -2 10 24.5
      vertex -1.6194 8.08658 24.5
    endloop
  endfacet
  facet normal 0 0 1
    outer loop
      vertex 1.08658 5.3806 24.5
      vertex -1.6194 11.9134 24.5
      vertex -0.535534 6.46447 24.5
    endloop
  endfacet
  facet normal 0 0 1
    outer loop
      vertex -0.535534 6.46447 24.5
      vertex -1.6194 11.9134 24.5
      vertex -1.6194 8.08658 24.5
    endloop
  endfacet
  facet normal -0 -0 1
    outer loop
      vertex -0.262276 9.04211 24.5
      vertex -1.6194 11.9134 24.5
      vertex 1.08658 5.3806 24.5
    endloop
  endfacet
  facet normal 0 -0 1
    outer loop
      vertex 5.86026 8.16182 24.5
      vertex 4.41241 6.90725 24.5
      vertex 6.53553 6.46447 24.5
    endloop
  endfacet
  facet normal 0 -0 1
    outer loop
      vertex 3 15 24.5
      vertex -1.6194 11.9134 24.5
      vertex 4.91342 14.6194 24.5
    endloop
  endfacet
  facet normal 0 -0 1
    outer loop
      vertex 1.08658 14.6194 24.5
      vertex -1.6194 11.9134 24.5
      vertex 3 15 24.5
    endloop
  endfacet
  facet normal 0 -0 1
    outer loop
      vertex -0.5 13.1685 24.5
      vertex -1.6194 11.9134 24.5
      vertex 1.08658 14.6194 24.5
    endloop
  endfacet
  facet normal 0 -0 1
    outer loop
      vertex -0.5 13.5593 24.5
      vertex -0.5 13.1685 24.5
      vertex 1.08658 14.6194 24.5
    endloop
  endfacet
  facet normal -0 -0 1
    outer loop
      vertex 0.773474 7.43045 24.5
      vertex -0.262276 9.04211 24.5
      vertex 1.08658 5.3806 24.5
    endloop
  endfacet
  facet normal 0 -0 1
    outer loop
      vertex 6.4 10 24.5
      vertex 5.86026 8.16182 24.5
      vertex 7.6194 8.08658 24.5
    endloop
  endfacet
  facet normal 0 0 1
    outer loop
      vertex 4.41241 13.0927 24.5
      vertex 5.86026 11.8382 24.5
      vertex 7.6194 11.9134 24.5
    endloop
  endfacet
  facet normal 0 0 1
    outer loop
      vertex 4.91342 14.6194 24.5
      vertex -1.6194 11.9134 24.5
      vertex 0.773474 12.5695 24.5
    endloop
  endfacet
  facet normal 0 -0 1
    outer loop
      vertex 4.91342 14.6194 24.5
      vertex 2.51613 13.3654 24.5
      vertex 6.53553 13.5355 24.5
    endloop
  endfacet
  facet normal 0 0 1
    outer loop
      vertex 4.91342 14.6194 24.5
      vertex 0.773474 12.5695 24.5
      vertex 2.51613 13.3654 24.5
    endloop
  endfacet
  facet normal 0 -0 1
    outer loop
      vertex 6.53553 13.5355 24.5
      vertex 4.41241 13.0927 24.5
      vertex 7.6194 11.9134 24.5
    endloop
  endfacet
  facet normal 0 0 1
    outer loop
      vertex 2.51613 13.3654 24.5
      vertex 4.41241 13.0927 24.5
      vertex 6.53553 13.5355 24.5
    endloop
  endfacet
  facet normal 0 -0 1
    outer loop
      vertex 7.6194 11.9134 24.5
      vertex 5.86026 11.8382 24.5
      vertex 8 10 24.5
    endloop
  endfacet
  facet normal 0 0 1
    outer loop
      vertex 8 10 24.5
      vertex 6.4 10 24.5
      vertex 7.6194 8.08658 24.5
    endloop
  endfacet
  facet normal -0 0 1
    outer loop
      vertex 7.6194 8.08658 24.5
      vertex 5.86026 8.16182 24.5
      vertex 6.53553 6.46447 24.5
    endloop
  endfacet
  facet normal -0 0 1
    outer loop
      vertex 6.53553 6.46447 24.5
      vertex 4.41241 6.90725 24.5
      vertex 4.91342 5.3806 24.5
    endloop
  endfacet
  facet normal -0 0 1
    outer loop
      vertex 4.91342 5.3806 24.5
      vertex 2.51613 6.63461 24.5
      vertex 3 5 24.5
    endloop
  endfacet
  facet normal 0 0 1
    outer loop
      vertex 5.86026 11.8382 24.5
      vertex 6.4 10 24.5
      vertex 8 10 24.5
    endloop
  endfacet
  facet normal 0 0 1
    outer loop
      vertex 3 5 24.5
      vertex 0.773474 7.43045 24.5
      vertex 1.08658 5.3806 24.5
    endloop
  endfacet
  facet normal 0 0 1
    outer loop
      vertex -0.5 13.1685 24.5
      vertex -0.780753 13.1685 24.5
      vertex -1.6194 11.9134 24.5
    endloop
  endfacet
  facet normal 0 0 1
    outer loop
      vertex -0.262276 9.04211 24.5
      vertex -0.262276 10.9579 24.5
      vertex -1.6194 11.9134 24.5
    endloop
  endfacet
  facet normal -0 -0 1
    outer loop
      vertex 2.51613 6.63461 24.5
      vertex 0.773474 7.43045 24.5
      vertex 3 5 24.5
    endloop
  endfacet
  facet normal 0 -0 1
    outer loop
      vertex 4.41241 6.90725 24.5
      vertex 2.51613 6.63461 24.5
      vertex 4.91342 5.3806 24.5
    endloop
  endfacet
  facet normal 0 0 1
    outer loop
      vertex -0.262276 10.9579 24.5
      vertex 0.773474 12.5695 24.5
      vertex -1.6194 11.9134 24.5
    endloop
  endfacet
  facet normal 0 0 1
    outer loop
      vertex -1.6194 31.9134 24.9
      vertex -2 30 24.9
      vertex -1.6194 28.0866 24.9
    endloop
  endfacet
  facet normal -0 0 1
    outer loop
      vertex -0.5 26.5342 24.9
      vertex -1.6194 31.9134 24.9
      vertex -0.582123 26.5342 24.9
    endloop
  endfacet
  facet normal 0 0 1
    outer loop
      vertex -0.582123 26.5342 24.9
      vertex -1.6194 31.9134 24.9
      vertex -1.6194 28.0866 24.9
    endloop
  endfacet
  facet normal 0 0 1
    outer loop
      vertex 1.08658 25.3806 24.9
      vertex -1.6194 31.9134 24.9
      vertex -0.5 26.5342 24.9
    endloop
  endfacet
  facet normal 0 0 1
    outer loop
      vertex 1.08658 25.3806 24.9
      vertex -0.5 26.5342 24.9
      vertex -0.5 26.4407 24.9
    endloop
  endfacet
  facet normal -0 -0 1
    outer loop
      vertex -0.262276 29.0421 24.9
      vertex -1.6194 31.9134 24.9
      vertex 1.08658 25.3806 24.9
    endloop
  endfacet
  facet normal 0 -0 1
    outer loop
      vertex 5.86026 28.1618 24.9
      vertex 4.41241 26.9073 24.9
      vertex 6.53553 26.4645 24.9
    endloop
  endfacet
  facet normal 0 -0 1
    outer loop
      vertex 3 35 24.9
      vertex -1.6194 31.9134 24.9
      vertex 4.91342 34.6194 24.9
    endloop
  endfacet
  facet normal 0 -0 1
    outer loop
      vertex 1.08658 34.6194 24.9
      vertex -1.6194 31.9134 24.9
      vertex 3 35 24.9
    endloop
  endfacet
  facet normal 0 -0 1
    outer loop
      vertex -0.535534 33.5355 24.9
      vertex -1.6194 31.9134 24.9
      vertex 1.08658 34.6194 24.9
    endloop
  endfacet
  facet normal -0 -0 1
    outer loop
      vertex 0.773474 27.4305 24.9
      vertex -0.262276 29.0421 24.9
      vertex 1.08658 25.3806 24.9
    endloop
  endfacet
  facet normal 0 -0 1
    outer loop
      vertex 6.4 30 24.9
      vertex 5.86026 28.1618 24.9
      vertex 7.6194 28.0866 24.9
    endloop
  endfacet
  facet normal 0 0 1
    outer loop
      vertex 4.41241 33.0927 24.9
      vertex 5.86026 31.8382 24.9
      vertex 7.6194 31.9134 24.9
    endloop
  endfacet
  facet normal 0 0 1
    outer loop
      vertex 4.91342 34.6194 24.9
      vertex -1.6194 31.9134 24.9
      vertex 0.773474 32.5695 24.9
    endloop
  endfacet
  facet normal 0 -0 1
    outer loop
      vertex 4.91342 34.6194 24.9
      vertex 2.51613 33.3654 24.9
      vertex 6.53553 33.5355 24.9
    endloop
  endfacet
  facet normal 0 0 1
    outer loop
      vertex 4.91342 34.6194 24.9
      vertex 0.773474 32.5695 24.9
      vertex 2.51613 33.3654 24.9
    endloop
  endfacet
  facet normal 0 -0 1
    outer loop
      vertex 6.53553 33.5355 24.9
      vertex 4.41241 33.0927 24.9
      vertex 7.6194 31.9134 24.9
    endloop
  endfacet
  facet normal 0 0 1
    outer loop
      vertex 2.51613 33.3654 24.9
      vertex 4.41241 33.0927 24.9
      vertex 6.53553 33.5355 24.9
    endloop
  endfacet
  facet normal 0 -0 1
    outer loop
      vertex 7.6194 31.9134 24.9
      vertex 5.86026 31.8382 24.9
      vertex 8 30 24.9
    endloop
  endfacet
  facet normal 0 0 1
    outer loop
      vertex 8 30 24.9
      vertex 6.4 30 24.9
      vertex 7.6194 28.0866 24.9
    endloop
  endfacet
  facet normal -0 0 1
    outer loop
      vertex 7.6194 28.0866 24.9
      vertex 5.86026 28.1618 24.9
      vertex 6.53553 26.4645 24.9
    endloop
  endfacet
  facet normal -0 0 1
    outer loop
      vertex 6.53553 26.4645 24.9
      vertex 4.41241 26.9073 24.9
      vertex 4.91342 25.3806 24.9
    endloop
  endfacet
  facet normal -0 0 1
    outer loop
      vertex 4.91342 25.3806 24.9
      vertex 2.51613 26.6346 24.9
      vertex 3 25 24.9
    endloop
  endfacet
  facet normal 0 0 1
    outer loop
      vertex 5.86026 31.8382 24.9
      vertex 6.4 30 24.9
      vertex 8 30 24.9
    endloop
  endfacet
  facet normal 0 0 1
    outer loop
      vertex 3 25 24.9
      vertex 0.773474 27.4305 24.9
      vertex 1.08658 25.3806 24.9
    endloop
  endfacet
  facet normal 0 0 1
    outer loop
      vertex -0.262276 29.0421 24.9
      vertex -0.262276 30.9579 24.9
      vertex -1.6194 31.9134 24.9
    endloop
  endfacet
  facet normal -0 -0 1
    outer loop
      vertex 2.51613 26.6346 24.9
      vertex 0.773474 27.4305 24.9
      vertex 3 25 24.9
    endloop
  endfacet
  facet normal 0 -0 1
    outer loop
      vertex 4.41241 26.9073 24.9
      vertex 2.51613 26.6346 24.9
      vertex 4.91342 25.3806 24.9
    endloop
  endfacet
  facet normal 0 0 1
    outer loop
      vertex -0.262276 30.9579 24.9
      vertex 0.773474 32.5695 24.9
      vertex -1.6194 31.9134 24.9
    endloop
  endfacet
  facet normal -0 0.970942 0.239316
    outer loop
      vertex 33.9 12.3329 17.0922
      vertex 28.4 12.3329 17.0922
      vertex 33.9 11.8598 19.0116
    endloop
  endfacet
  facet normal -1.54586e-16 0.970942 0.239316
    outer loop
      vertex 33.9 11.8598 19.0116
      vertex 28.4 12.3329 17.0922
      vertex 28.4 11.8598 19.0116
    endloop
  endfacet
  facet normal -0 1 0
    outer loop
      vertex 33.9 11.8598 19.0116
      vertex 28.4 11.8598 19.0116
      vertex 33.9 11.8598 20.9884
    endloop
  endfacet
  facet normal 0 1 0
    outer loop
      vertex 33.9 11.8598 20.9884
      vertex 28.4 11.8598 19.0116
      vertex 28.4 11.8598 20.9884
    endloop
  endfacet
  facet normal -1.50093e-16 0.885456 0.464723
    outer loop
      vertex 33.9 13.2515 15.3419
      vertex 28.4 13.2515 15.3419
      vertex 33.9 12.3329 17.0922
    endloop
  endfacet
  facet normal -0 0.885456 0.464723
    outer loop
      vertex 33.9 12.3329 17.0922
      vertex 28.4 13.2515 15.3419
      vertex 28.4 12.3329 17.0922
    endloop
  endfacet
  facet normal -2.14171e-16 0.748511 0.663123
    outer loop
      vertex 33.9 14.5624 13.8622
      vertex 28.4 14.5624 13.8622
      vertex 33.9 13.2515 15.3419
    endloop
  endfacet
  facet normal -2.14171e-16 0.748511 0.663123
    outer loop
      vertex 33.9 13.2515 15.3419
      vertex 28.4 14.5624 13.8622
      vertex 28.4 13.2515 15.3419
    endloop
  endfacet
  facet normal -2.50977e-16 0.568065 0.822984
    outer loop
      vertex 33.9 14.5624 13.8622
      vertex 33.9 16.1893 12.7393
      vertex 28.4 16.1893 12.7393
    endloop
  endfacet
  facet normal -2.65802e-16 0.568065 0.822984
    outer loop
      vertex 28.4 14.5624 13.8622
      vertex 33.9 14.5624 13.8622
      vertex 28.4 16.1893 12.7393
    endloop
  endfacet
  facet normal 0 0.354605 0.935016
    outer loop
      vertex 33.9 16.1893 12.7393
      vertex 33.9 18.0376 12.0383
      vertex 28.4 18.0376 12.0383
    endloop
  endfacet
  facet normal -3.01986e-16 0.354605 0.935016
    outer loop
      vertex 28.4 16.1893 12.7393
      vertex 33.9 16.1893 12.7393
      vertex 28.4 18.0376 12.0383
    endloop
  endfacet
  facet normal 0 0.120537 0.992709
    outer loop
      vertex 33.9 18.0376 12.0383
      vertex 33.9 20 11.8
      vertex 28.4 20 11.8
    endloop
  endfacet
  facet normal 0 0.120537 0.992709
    outer loop
      vertex 28.4 18.0376 12.0383
      vertex 33.9 18.0376 12.0383
      vertex 28.4 20 11.8
    endloop
  endfacet
  facet normal 0 -0.120537 0.992709
    outer loop
      vertex 28.4 20 11.8
      vertex 33.9 20 11.8
      vertex 33.9 21.9624 12.0383
    endloop
  endfacet
  facet normal 0 -0.120537 0.992709
    outer loop
      vertex 28.4 21.9624 12.0383
      vertex 28.4 20 11.8
      vertex 33.9 21.9624 12.0383
    endloop
  endfacet
  facet normal 0 -0.354605 0.935016
    outer loop
      vertex 28.4 21.9624 12.0383
      vertex 33.9 21.9624 12.0383
      vertex 33.9 23.8107 12.7393
    endloop
  endfacet
  facet normal -3.01986e-16 -0.354605 0.935016
    outer loop
      vertex 28.4 23.8107 12.7393
      vertex 28.4 21.9624 12.0383
      vertex 33.9 23.8107 12.7393
    endloop
  endfacet
  facet normal -2.65802e-16 -0.568065 0.822984
    outer loop
      vertex 28.4 23.8107 12.7393
      vertex 33.9 23.8107 12.7393
      vertex 33.9 25.4376 13.8622
    endloop
  endfacet
  facet normal -2.65802e-16 -0.568065 0.822984
    outer loop
      vertex 28.4 25.4376 13.8622
      vertex 28.4 23.8107 12.7393
      vertex 33.9 25.4376 13.8622
    endloop
  endfacet
  facet normal -2.14171e-16 -0.748511 0.663123
    outer loop
      vertex 28.4 25.4376 13.8622
      vertex 33.9 25.4376 13.8622
      vertex 33.9 26.7485 15.3419
    endloop
  endfacet
  facet normal -2.14171e-16 -0.748511 0.663123
    outer loop
      vertex 28.4 26.7485 15.3419
      vertex 28.4 25.4376 13.8622
      vertex 33.9 26.7485 15.3419
    endloop
  endfacet
  facet normal -1.50093e-16 -0.885456 0.464723
    outer loop
      vertex 28.4 26.7485 15.3419
      vertex 33.9 26.7485 15.3419
      vertex 33.9 27.6671 17.0922
    endloop
  endfacet
  facet normal 0 -0.885456 0.464723
    outer loop
      vertex 28.4 27.6671 17.0922
      vertex 28.4 26.7485 15.3419
      vertex 33.9 27.6671 17.0922
    endloop
  endfacet
  facet normal 0 -0.970942 0.239316
    outer loop
      vertex 28.4 27.6671 17.0922
      vertex 33.9 27.6671 17.0922
      vertex 33.9 28.1402 19.0116
    endloop
  endfacet
  facet normal -1.54586e-16 -0.970942 0.239316
    outer loop
      vertex 28.4 28.1402 19.0116
      vertex 28.4 27.6671 17.0922
      vertex 33.9 28.1402 19.0116
    endloop
  endfacet
  facet normal 0 -1 0
    outer loop
      vertex 28.4 28.1402 19.0116
      vertex 33.9 28.1402 19.0116
      vertex 33.9 28.1402 20.9884
    endloop
  endfacet
  facet normal 0 -1 0
    outer loop
      vertex 28.4 28.1402 20.9884
      vertex 28.4 28.1402 19.0116
      vertex 33.9 28.1402 20.9884
    endloop
  endfacet
  facet normal -0 -0.970942 -0.239316
    outer loop
      vertex 28.4 28.1402 20.9884
      vertex 33.9 28.1402 20.9884
      vertex 33.9 27.6671 22.9078
    endloop
  endfacet
  facet normal -0 -0.970942 -0.239316
    outer loop
      vertex 28.4 27.6671 22.9078
      vertex 28.4 28.1402 20.9884
      vertex 33.9 27.6671 22.9078
    endloop
  endfacet
  facet normal -0 -0.885456 -0.464723
    outer loop
      vertex 28.4 27.6671 22.9078
      vertex 33.9 27.6671 22.9078
      vertex 33.9 26.7485 24.6581
    endloop
  endfacet
  facet normal 3.00187e-16 -0.885456 -0.464723
    outer loop
      vertex 28.4 26.7485 24.6581
      vertex 28.4 27.6671 22.9078
      vertex 33.9 26.7485 24.6581
    endloop
  endfacet
  facet normal 4.28343e-16 -0.748511 -0.663123
    outer loop
      vertex 28.4 26.7485 24.6581
      vertex 33.9 26.7485 24.6581
      vertex 33.9 25.4376 26.1378
    endloop
  endfacet
  facet normal 4.28343e-16 -0.748511 -0.663123
    outer loop
      vertex 28.4 25.4376 26.1378
      vertex 28.4 26.7485 24.6581
      vertex 33.9 25.4376 26.1378
    endloop
  endfacet
  facet normal 5.31605e-16 -0.568065 -0.822984
    outer loop
      vertex 33.9 25.4376 26.1378
      vertex 33.9 23.8107 27.2607
      vertex 28.4 25.4376 26.1378
    endloop
  endfacet
  facet normal 5.40565e-16 -0.568065 -0.822984
    outer loop
      vertex 28.4 25.4376 26.1378
      vertex 33.9 23.8107 27.2607
      vertex 28.4 23.8107 27.2607
    endloop
  endfacet
  facet normal 6.03972e-16 -0.354605 -0.935016
    outer loop
      vertex 33.9 23.8107 27.2607
      vertex 33.9 21.9624 27.9617
      vertex 28.4 23.8107 27.2607
    endloop
  endfacet
  facet normal 0 -0.354605 -0.935016
    outer loop
      vertex 28.4 23.8107 27.2607
      vertex 33.9 21.9624 27.9617
      vertex 28.4 21.9624 27.9617
    endloop
  endfacet
  facet normal 0 -0.120537 -0.992709
    outer loop
      vertex 33.9 21.9624 27.9617
      vertex 33.9 20 28.2
      vertex 28.4 21.9624 27.9617
    endloop
  endfacet
  facet normal 0 -0.120537 -0.992709
    outer loop
      vertex 28.4 21.9624 27.9617
      vertex 33.9 20 28.2
      vertex 28.4 20 28.2
    endloop
  endfacet
  facet normal 0 0.120537 -0.992709
    outer loop
      vertex 33.9 18.0376 27.9617
      vertex 28.4 18.0376 27.9617
      vertex 33.9 20 28.2
    endloop
  endfacet
  facet normal 0 0.120537 -0.992709
    outer loop
      vertex 33.9 20 28.2
      vertex 28.4 18.0376 27.9617
      vertex 28.4 20 28.2
    endloop
  endfacet
  facet normal 6.03972e-16 0.354605 -0.935016
    outer loop
      vertex 33.9 16.1893 27.2607
      vertex 28.4 16.1893 27.2607
      vertex 33.9 18.0376 27.9617
    endloop
  endfacet
  facet normal 0 0.354605 -0.935016
    outer loop
      vertex 33.9 18.0376 27.9617
      vertex 28.4 16.1893 27.2607
      vertex 28.4 18.0376 27.9617
    endloop
  endfacet
  facet normal 5.31605e-16 0.568065 -0.822984
    outer loop
      vertex 33.9 14.5624 26.1378
      vertex 28.4 14.5624 26.1378
      vertex 33.9 16.1893 27.2607
    endloop
  endfacet
  facet normal 5.31605e-16 0.568065 -0.822984
    outer loop
      vertex 33.9 16.1893 27.2607
      vertex 28.4 14.5624 26.1378
      vertex 28.4 16.1893 27.2607
    endloop
  endfacet
  facet normal 4.28343e-16 0.748511 -0.663123
    outer loop
      vertex 33.9 13.2515 24.6581
      vertex 28.4 13.2515 24.6581
      vertex 33.9 14.5624 26.1378
    endloop
  endfacet
  facet normal 4.28343e-16 0.748511 -0.663123
    outer loop
      vertex 33.9 14.5624 26.1378
      vertex 28.4 13.2515 24.6581
      vertex 28.4 14.5624 26.1378
    endloop
  endfacet
  facet normal 0 0.885456 -0.464723
    outer loop
      vertex 33.9 12.3329 22.9078
      vertex 28.4 12.3329 22.9078
      vertex 33.9 13.2515 24.6581
    endloop
  endfacet
  facet normal 3.00187e-16 0.885456 -0.464723
    outer loop
      vertex 33.9 13.2515 24.6581
      vertex 28.4 12.3329 22.9078
      vertex 28.4 13.2515 24.6581
    endloop
  endfacet
  facet normal 0 0.970942 -0.239316
    outer loop
      vertex 33.9 11.8598 20.9884
      vertex 28.4 11.8598 20.9884
      vertex 33.9 12.3329 22.9078
    endloop
  endfacet
  facet normal 0 0.970942 -0.239316
    outer loop
      vertex 33.9 12.3329 22.9078
      vertex 28.4 11.8598 20.9884
      vertex 28.4 12.3329 22.9078
    endloop
  endfacet
  facet normal 2.42127e-16 0.173648 -0.984808
    outer loop
      vertex 28.4 18.1189 25.1683
      vertex -0.5 18.1189 25.1683
      vertex 28.4 20 25.5
    endloop
  endfacet
  facet normal 2.42127e-16 0.173648 -0.984808
    outer loop
      vertex 28.4 20 25.5
      vertex -0.5 18.1189 25.1683
      vertex -0.5 20 25.5
    endloop
  endfacet
  facet normal 2.12923e-16 0.5 -0.866025
    outer loop
      vertex 28.4 16.4647 24.2132
      vertex -0.5 16.4647 24.2132
      vertex 28.4 18.1189 25.1683
    endloop
  endfacet
  facet normal 2.12923e-16 0.5 -0.866025
    outer loop
      vertex 28.4 18.1189 25.1683
      vertex -0.5 16.4647 24.2132
      vertex -0.5 18.1189 25.1683
    endloop
  endfacet
  facet normal 2.42127e-16 -0.173648 -0.984808
    outer loop
      vertex 28.4 21.8811 25.1683
      vertex 28.4 20 25.5
      vertex -0.5 21.8811 25.1683
    endloop
  endfacet
  facet normal 2.42777e-16 -0.173648 -0.984808
    outer loop
      vertex -0.5 21.8811 25.1683
      vertex 28.4 20 25.5
      vertex -0.5 20 25.5
    endloop
  endfacet
  facet normal 2.12923e-16 -0.5 -0.866025
    outer loop
      vertex 28.4 23.5353 24.2132
      vertex 28.4 21.8811 25.1683
      vertex -0.5 23.5353 24.2132
    endloop
  endfacet
  facet normal 2.1325e-16 -0.5 -0.866025
    outer loop
      vertex -0.5 23.5353 24.2132
      vertex 28.4 21.8811 25.1683
      vertex -0.5 21.8811 25.1683
    endloop
  endfacet
  facet normal 1.58037e-16 -0.766044 -0.642788
    outer loop
      vertex -0.5 24.7631 22.75
      vertex 28.4 24.7631 22.75
      vertex 28.4 23.5353 24.2132
    endloop
  endfacet
  facet normal 1.58037e-16 -0.766044 -0.642788
    outer loop
      vertex -0.5 23.5353 24.2132
      vertex -0.5 24.7631 22.75
      vertex 28.4 23.5353 24.2132
    endloop
  endfacet
  facet normal 8.409e-17 -0.939693 -0.34202
    outer loop
      vertex -0.5 25.4164 20.9551
      vertex 28.4 25.4164 20.9551
      vertex 28.4 24.7631 22.75
    endloop
  endfacet
  facet normal 8.409e-17 -0.939693 -0.34202
    outer loop
      vertex -0.5 24.7631 22.75
      vertex -0.5 25.4164 20.9551
      vertex 28.4 24.7631 22.75
    endloop
  endfacet
  facet normal 0 -1 0
    outer loop
      vertex -0.5 25.4164 19.0449
      vertex 28.4 25.4164 19.0449
      vertex 28.4 25.4164 20.9551
    endloop
  endfacet
  facet normal -0 -1 0
    outer loop
      vertex -0.5 25.4164 20.9551
      vertex -0.5 25.4164 19.0449
      vertex 28.4 25.4164 20.9551
    endloop
  endfacet
  facet normal -8.409e-17 -0.939693 0.34202
    outer loop
      vertex -0.5 24.7631 17.25
      vertex 28.4 24.7631 17.25
      vertex 28.4 25.4164 19.0449
    endloop
  endfacet
  facet normal -8.409e-17 -0.939693 0.34202
    outer loop
      vertex -0.5 25.4164 19.0449
      vertex -0.5 24.7631 17.25
      vertex 28.4 25.4164 19.0449
    endloop
  endfacet
  facet normal -1.58037e-16 -0.766044 0.642788
    outer loop
      vertex -0.5 23.5353 15.7868
      vertex 28.4 23.5353 15.7868
      vertex 28.4 24.7631 17.25
    endloop
  endfacet
  facet normal -1.58037e-16 -0.766044 0.642788
    outer loop
      vertex -0.5 24.7631 17.25
      vertex -0.5 23.5353 15.7868
      vertex 28.4 24.7631 17.25
    endloop
  endfacet
  facet normal -2.12923e-16 -0.5 0.866025
    outer loop
      vertex -0.5 21.8811 14.8317
      vertex 28.4 21.8811 14.8317
      vertex 28.4 23.5353 15.7868
    endloop
  endfacet
  facet normal -2.12923e-16 -0.5 0.866025
    outer loop
      vertex -0.5 23.5353 15.7868
      vertex -0.5 21.8811 14.8317
      vertex 28.4 23.5353 15.7868
    endloop
  endfacet
  facet normal -2.42127e-16 -0.173648 0.984808
    outer loop
      vertex -0.5 20 14.5
      vertex 28.4 20 14.5
      vertex 28.4 21.8811 14.8317
    endloop
  endfacet
  facet normal -2.42127e-16 -0.173648 0.984808
    outer loop
      vertex -0.5 21.8811 14.8317
      vertex -0.5 20 14.5
      vertex 28.4 21.8811 14.8317
    endloop
  endfacet
  facet normal -2.41136e-16 0.173648 0.984808
    outer loop
      vertex 28.4 18.1189 14.8317
      vertex 28.4 20 14.5
      vertex -0.5 20 14.5
    endloop
  endfacet
  facet normal -2.42127e-16 0.173648 0.984808
    outer loop
      vertex -0.5 18.1189 14.8317
      vertex 28.4 18.1189 14.8317
      vertex -0.5 20 14.5
    endloop
  endfacet
  facet normal -2.09969e-16 0.5 0.866025
    outer loop
      vertex 28.4 16.4647 15.7868
      vertex 28.4 18.1189 14.8317
      vertex -0.5 18.1189 14.8317
    endloop
  endfacet
  facet normal -2.12923e-16 0.5 0.866025
    outer loop
      vertex -0.5 16.4647 15.7868
      vertex 28.4 16.4647 15.7868
      vertex -0.5 18.1189 14.8317
    endloop
  endfacet
  facet normal -1.58037e-16 0.766044 0.642788
    outer loop
      vertex 28.4 16.4647 15.7868
      vertex -0.5 16.4647 15.7868
      vertex 28.4 15.2369 17.25
    endloop
  endfacet
  facet normal -1.58037e-16 0.766044 0.642788
    outer loop
      vertex 28.4 15.2369 17.25
      vertex -0.5 16.4647 15.7868
      vertex -0.5 15.2369 17.25
    endloop
  endfacet
  facet normal -8.409e-17 0.939693 0.34202
    outer loop
      vertex 28.4 15.2369 17.25
      vertex -0.5 15.2369 17.25
      vertex 28.4 14.5836 19.0449
    endloop
  endfacet
  facet normal -8.409e-17 0.939693 0.34202
    outer loop
      vertex 28.4 14.5836 19.0449
      vertex -0.5 15.2369 17.25
      vertex -0.5 14.5836 19.0449
    endloop
  endfacet
  facet normal -0 1 0
    outer loop
      vertex 28.4 14.5836 19.0449
      vertex -0.5 14.5836 19.0449
      vertex 28.4 14.5836 20.9551
    endloop
  endfacet
  facet normal 0 1 0
    outer loop
      vertex 28.4 14.5836 20.9551
      vertex -0.5 14.5836 19.0449
      vertex -0.5 14.5836 20.9551
    endloop
  endfacet
  facet normal 8.409e-17 0.939693 -0.34202
    outer loop
      vertex 28.4 14.5836 20.9551
      vertex -0.5 14.5836 20.9551
      vertex 28.4 15.2369 22.75
    endloop
  endfacet
  facet normal 8.409e-17 0.939693 -0.34202
    outer loop
      vertex 28.4 15.2369 22.75
      vertex -0.5 14.5836 20.9551
      vertex -0.5 15.2369 22.75
    endloop
  endfacet
  facet normal 1.58037e-16 0.766044 -0.642788
    outer loop
      vertex 28.4 15.2369 22.75
      vertex -0.5 15.2369 22.75
      vertex 28.4 16.4647 24.2132
    endloop
  endfacet
  facet normal 1.58037e-16 0.766044 -0.642788
    outer loop
      vertex 28.4 16.4647 24.2132
      vertex -0.5 15.2369 22.75
      vertex -0.5 16.4647 24.2132
    endloop
  endfacet
  facet normal 1 0 0
    outer loop
      vertex 28.4 18.0376 27.9617
      vertex 28.4 16.1893 27.2607
      vertex 28.4 14.5624 26.1378
    endloop
  endfacet
  facet normal 1 0 0
    outer loop
      vertex 28.4 12.3329 22.9078
      vertex 28.4 18.0376 27.9617
      vertex 28.4 13.2515 24.6581
    endloop
  endfacet
  facet normal 1 0 0
    outer loop
      vertex 28.4 13.2515 24.6581
      vertex 28.4 18.0376 27.9617
      vertex 28.4 14.5624 26.1378
    endloop
  endfacet
  facet normal 1 0 0
    outer loop
      vertex 28.4 11.8598 20.9884
      vertex 28.4 18.0376 27.9617
      vertex 28.4 12.3329 22.9078
    endloop
  endfacet
  facet normal 1 -2.02862e-15 1.7972e-15
    outer loop
      vertex 28.4 11.8598 19.0116
      vertex 28.4 18.0376 27.9617
      vertex 28.4 11.8598 20.9884
    endloop
  endfacet
  facet normal 1 2.59687e-15 -1.39554e-15
    outer loop
      vertex 28.4 15.2369 22.75
      vertex 28.4 18.0376 27.9617
      vertex 28.4 11.8598 19.0116
    endloop
  endfacet
  facet normal 1 0 0
    outer loop
      vertex 28.4 15.2369 22.75
      vertex 28.4 16.4647 24.2132
      vertex 28.4 18.0376 27.9617
    endloop
  endfacet
  facet normal 1 4.20571e-15 -1.53075e-15
    outer loop
      vertex 28.4 14.5836 20.9551
      vertex 28.4 15.2369 22.75
      vertex 28.4 12.3329 17.0922
    endloop
  endfacet
  facet normal 1 -0 0
    outer loop
      vertex 28.4 15.2369 17.25
      vertex 28.4 14.5836 19.0449
      vertex 28.4 13.2515 15.3419
    endloop
  endfacet
  facet normal 1 -0 0
    outer loop
      vertex 28.4 16.4647 15.7868
      vertex 28.4 15.2369 17.25
      vertex 28.4 14.5624 13.8622
    endloop
  endfacet
  facet normal 1 0 0
    outer loop
      vertex 28.4 16.4647 24.2132
      vertex 28.4 18.1189 25.1683
      vertex 28.4 18.0376 27.9617
    endloop
  endfacet
  facet normal 1 0 -0
    outer loop
      vertex 28.4 25.4164 19.0449
      vertex 28.4 24.7631 17.25
      vertex 28.4 26.7485 15.3419
    endloop
  endfacet
  facet normal 1 1.61367e-15 1.85993e-15
    outer loop
      vertex 28.4 25.4164 20.9551
      vertex 28.4 25.4164 19.0449
      vertex 28.4 27.6671 17.0922
    endloop
  endfacet
  facet normal 1 -1.7619e-15 -6.41281e-16
    outer loop
      vertex 28.4 24.7631 22.75
      vertex 28.4 25.4164 20.9551
      vertex 28.4 28.1402 19.0116
    endloop
  endfacet
  facet normal 1 -0 -0
    outer loop
      vertex 28.4 26.7485 24.6581
      vertex 28.4 18.0376 27.9617
      vertex 28.4 27.6671 22.9078
    endloop
  endfacet
  facet normal 1 -0 -0
    outer loop
      vertex 28.4 25.4376 26.1378
      vertex 28.4 18.0376 27.9617
      vertex 28.4 26.7485 24.6581
    endloop
  endfacet
  facet normal 1 -0 -0
    outer loop
      vertex 28.4 23.8107 27.2607
      vertex 28.4 18.0376 27.9617
      vertex 28.4 25.4376 26.1378
    endloop
  endfacet
  facet normal 1 0 -0
    outer loop
      vertex 28.4 21.9624 27.9617
      vertex 28.4 18.0376 27.9617
      vertex 28.4 23.8107 27.2607
    endloop
  endfacet
  facet normal 1 0 -0
    outer loop
      vertex 28.4 20 28.2
      vertex 28.4 18.0376 27.9617
      vertex 28.4 21.9624 27.9617
    endloop
  endfacet
  facet normal 1 0 -0
    outer loop
      vertex 28.4 24.7631 17.25
      vertex 28.4 23.5353 15.7868
      vertex 28.4 25.4376 13.8622
    endloop
  endfacet
  facet normal 1 0 0
    outer loop
      vertex 28.4 23.5353 24.2132
      vertex 28.4 24.7631 22.75
      vertex 28.4 28.1402 20.9884
    endloop
  endfacet
  facet normal 1 -0 -0
    outer loop
      vertex 28.4 27.6671 22.9078
      vertex 28.4 23.5353 24.2132
      vertex 28.4 28.1402 20.9884
    endloop
  endfacet
  facet normal 1 0 0
    outer loop
      vertex 28.4 27.6671 22.9078
      vertex 28.4 18.0376 27.9617
      vertex 28.4 23.5353 24.2132
    endloop
  endfacet
  facet normal 1 9.37484e-16 1.7972e-15
    outer loop
      vertex 28.4 28.1402 20.9884
      vertex 28.4 24.7631 22.75
      vertex 28.4 28.1402 19.0116
    endloop
  endfacet
  facet normal 1 -1.10926e-15 2.73407e-16
    outer loop
      vertex 28.4 28.1402 19.0116
      vertex 28.4 25.4164 20.9551
      vertex 28.4 27.6671 17.0922
    endloop
  endfacet
  facet normal 1 0 0
    outer loop
      vertex 28.4 21.8811 25.1683
      vertex 28.4 23.5353 24.2132
      vertex 28.4 18.0376 27.9617
    endloop
  endfacet
  facet normal 1 -0 0
    outer loop
      vertex 28.4 27.6671 17.0922
      vertex 28.4 25.4164 19.0449
      vertex 28.4 26.7485 15.3419
    endloop
  endfacet
  facet normal 1 -0 0
    outer loop
      vertex 28.4 26.7485 15.3419
      vertex 28.4 24.7631 17.25
      vertex 28.4 25.4376 13.8622
    endloop
  endfacet
  facet normal 1 -0 0
    outer loop
      vertex 28.4 18.1189 14.8317
      vertex 28.4 16.4647 15.7868
      vertex 28.4 16.1893 12.7393
    endloop
  endfacet
  facet normal 1 -0 0
    outer loop
      vertex 28.4 25.4376 13.8622
      vertex 28.4 23.5353 15.7868
      vertex 28.4 23.8107 12.7393
    endloop
  endfacet
  facet normal 1 0 0
    outer loop
      vertex 28.4 20 25.5
      vertex 28.4 21.8811 25.1683
      vertex 28.4 18.0376 27.9617
    endloop
  endfacet
  facet normal 1 -0 0
    outer loop
      vertex 28.4 23.8107 12.7393
      vertex 28.4 21.8811 14.8317
      vertex 28.4 21.9624 12.0383
    endloop
  endfacet
  facet normal 1 -0 0
    outer loop
      vertex 28.4 21.9624 12.0383
      vertex 28.4 20 14.5
      vertex 28.4 20 11.8
    endloop
  endfacet
  facet normal 1 0 0
    outer loop
      vertex 28.4 20 11.8
      vertex 28.4 18.1189 14.8317
      vertex 28.4 18.0376 12.0383
    endloop
  endfacet
  facet normal 1 0 0
    outer loop
      vertex 28.4 16.1893 12.7393
      vertex 28.4 16.4647 15.7868
      vertex 28.4 14.5624 13.8622
    endloop
  endfacet
  facet normal 1 0 0
    outer loop
      vertex 28.4 14.5624 13.8622
      vertex 28.4 15.2369 17.25
      vertex 28.4 13.2515 15.3419
    endloop
  endfacet
  facet normal 1 0 0
    outer loop
      vertex 28.4 13.2515 15.3419
      vertex 28.4 14.5836 19.0449
      vertex 28.4 12.3329 17.0922
    endloop
  endfacet
  facet normal 1 -1.61367e-15 1.85993e-15
    outer loop
      vertex 28.4 14.5836 19.0449
      vertex 28.4 14.5836 20.9551
      vertex 28.4 12.3329 17.0922
    endloop
  endfacet
  facet normal 1 8.26499e-16 2.03714e-16
    outer loop
      vertex 28.4 12.3329 17.0922
      vertex 28.4 15.2369 22.75
      vertex 28.4 11.8598 19.0116
    endloop
  endfacet
  facet normal 1 0 -0
    outer loop
      vertex 28.4 23.5353 15.7868
      vertex 28.4 21.8811 14.8317
      vertex 28.4 23.8107 12.7393
    endloop
  endfacet
  facet normal 1 0 -0
    outer loop
      vertex 28.4 21.8811 14.8317
      vertex 28.4 20 14.5
      vertex 28.4 21.9624 12.0383
    endloop
  endfacet
  facet normal 1 -0 0
    outer loop
      vertex 28.4 20 14.5
      vertex 28.4 18.1189 14.8317
      vertex 28.4 20 11.8
    endloop
  endfacet
  facet normal 1 0 0
    outer loop
      vertex 28.4 18.1189 14.8317
      vertex 28.4 16.1893 12.7393
      vertex 28.4 18.0376 12.0383
    endloop
  endfacet
  facet normal 1 0 0
    outer loop
      vertex 28.4 18.1189 25.1683
      vertex 28.4 20 25.5
      vertex 28.4 18.0376 27.9617
    endloop
  endfacet
endsolid OpenSCAD_Model
