solid OpenSCAD_Model
  facet normal -1 -0 -0
    outer loop
      vertex -8 0 0
      vertex -8 0 10
      vertex -8 2 0
    endloop
  endfacet
  facet normal -1 0 0
    outer loop
      vertex -8 2 0
      vertex -8 0 10
      vertex -8 2 10
    endloop
  endfacet
  facet normal 0 -1 0
    outer loop
      vertex 2 0 3
      vertex -8 0 0
      vertex 16 0 0
    endloop
  endfacet
  facet normal 0 -1 0
    outer loop
      vertex 2 0 3
      vertex 2 0 10
      vertex -8 0 10
    endloop
  endfacet
  facet normal 0 -1 0
    outer loop
      vertex -8 0 10
      vertex -8 0 0
      vertex 2 0 3
    endloop
  endfacet
  facet normal 0 -1 0
    outer loop
      vertex 16 0 3
      vertex 2 0 3
      vertex 16 0 0
    endloop
  endfacet
  facet normal -0 -0 -1
    outer loop
      vertex -8 0 0
      vertex -8 2 0
      vertex 16 0 0
    endloop
  endfacet
  facet normal 0 0 -1
    outer loop
      vertex 16 0 0
      vertex -8 2 0
      vertex 0 2 0
    endloop
  endfacet
  facet normal 0 0 -1
    outer loop
      vertex 7.1 6 0
      vertex 0 2 0
      vertex 0 13 0
    endloop
  endfacet
  facet normal 0 -0 -1
    outer loop
      vertex 11.45 8.51147 0
      vertex 0 13 0
      vertex 16 13 0
    endloop
  endfacet
  facet normal 0 0 -1
    outer loop
      vertex 7.48853 4.55 0
      vertex 0 2 0
      vertex 7.1 6 0
    endloop
  endfacet
  facet normal 0 0 -1
    outer loop
      vertex 11.45 3.48853 0
      vertex 16 0 0
      vertex 10 3.1 0
    endloop
  endfacet
  facet normal 0 0 -1
    outer loop
      vertex 8.55 3.48853 0
      vertex 0 2 0
      vertex 7.48853 4.55 0
    endloop
  endfacet
  facet normal 0 0 -1
    outer loop
      vertex 16 0 0
      vertex 0 2 0
      vertex 8.55 3.48853 0
    endloop
  endfacet
  facet normal 0 0 -1
    outer loop
      vertex 16 0 0
      vertex 8.55 3.48853 0
      vertex 10 3.1 0
    endloop
  endfacet
  facet normal 0 0 -1
    outer loop
      vertex 12.5115 4.55 0
      vertex 16 0 0
      vertex 11.45 3.48853 0
    endloop
  endfacet
  facet normal 0 0 -1
    outer loop
      vertex 16 0 0
      vertex 12.5115 4.55 0
      vertex 16 13 0
    endloop
  endfacet
  facet normal 0 0 -1
    outer loop
      vertex 12.5115 4.55 0
      vertex 12.9 6 0
      vertex 16 13 0
    endloop
  endfacet
  facet normal 0 -0 -1
    outer loop
      vertex 7.48853 7.45 0
      vertex 0 13 0
      vertex 8.55 8.51147 0
    endloop
  endfacet
  facet normal 0 -0 -1
    outer loop
      vertex 12.9 6 0
      vertex 12.5115 7.45 0
      vertex 16 13 0
    endloop
  endfacet
  facet normal -0 -0 -1
    outer loop
      vertex 10 8.9 0
      vertex 0 13 0
      vertex 11.45 8.51147 0
    endloop
  endfacet
  facet normal 0 -0 -1
    outer loop
      vertex 12.5115 7.45 0
      vertex 11.45 8.51147 0
      vertex 16 13 0
    endloop
  endfacet
  facet normal 0 -0 -1
    outer loop
      vertex 8.55 8.51147 0
      vertex 0 13 0
      vertex 10 8.9 0
    endloop
  endfacet
  facet normal 0 -0 -1
    outer loop
      vertex 7.1 6 0
      vertex 0 13 0
      vertex 7.48853 7.45 0
    endloop
  endfacet
  facet normal 0 1 0
    outer loop
      vertex -8 2 0
      vertex -8 2 10
      vertex 0 2 0
    endloop
  endfacet
  facet normal 0 1 0
    outer loop
      vertex 0 2 0
      vertex -8 2 10
      vertex 0 2 10
    endloop
  endfacet
  facet normal 0 -0 1
    outer loop
      vertex -8 2 10
      vertex -8 0 10
      vertex 2 0 10
    endloop
  endfacet
  facet normal 0 -0 1
    outer loop
      vertex 0 2 10
      vertex -8 2 10
      vertex 2 0 10
    endloop
  endfacet
  facet normal 0 0 1
    outer loop
      vertex 2 13 10
      vertex 0 2 10
      vertex 2 0 10
    endloop
  endfacet
  facet normal 0 -0 1
    outer loop
      vertex 0 13 10
      vertex 0 2 10
      vertex 2 13 10
    endloop
  endfacet
  facet normal 1 0 -0
    outer loop
      vertex 2 0 10
      vertex 2 0 3
      vertex 2 13 3
    endloop
  endfacet
  facet normal 1 0 0
    outer loop
      vertex 2 13 10
      vertex 2 0 10
      vertex 2 13 3
    endloop
  endfacet
  facet normal 0 -0 1
    outer loop
      vertex 10 3.1 3
      vertex 2 0 3
      vertex 16 0 3
    endloop
  endfacet
  facet normal 0 -0 1
    outer loop
      vertex 2 13 3
      vertex 2 0 3
      vertex 7.48853 4.55 3
    endloop
  endfacet
  facet normal 0 0 1
    outer loop
      vertex 2 13 3
      vertex 7.48853 4.55 3
      vertex 7.1 6 3
    endloop
  endfacet
  facet normal 0 0 1
    outer loop
      vertex 2 13 3
      vertex 7.1 6 3
      vertex 7.48853 7.45 3
    endloop
  endfacet
  facet normal 0 -0 1
    outer loop
      vertex 11.45 3.48853 3
      vertex 10 3.1 3
      vertex 16 0 3
    endloop
  endfacet
  facet normal 0 0 1
    outer loop
      vertex 16 13 3
      vertex 2 13 3
      vertex 8.55 8.51147 3
    endloop
  endfacet
  facet normal 0 0 1
    outer loop
      vertex 16 13 3
      vertex 8.55 8.51147 3
      vertex 10 8.9 3
    endloop
  endfacet
  facet normal 0 -0 1
    outer loop
      vertex 12.5115 4.55 3
      vertex 11.45 3.48853 3
      vertex 16 0 3
    endloop
  endfacet
  facet normal 0 0 1
    outer loop
      vertex 16 13 3
      vertex 10 8.9 3
      vertex 11.45 8.51147 3
    endloop
  endfacet
  facet normal 0 0 1
    outer loop
      vertex 16 13 3
      vertex 12.5115 7.45 3
      vertex 16 0 3
    endloop
  endfacet
  facet normal 0 0 1
    outer loop
      vertex 16 13 3
      vertex 11.45 8.51147 3
      vertex 12.5115 7.45 3
    endloop
  endfacet
  facet normal 0 0 1
    outer loop
      vertex 12.5115 7.45 3
      vertex 12.9 6 3
      vertex 16 0 3
    endloop
  endfacet
  facet normal 0 -0 1
    outer loop
      vertex 8.55 3.48853 3
      vertex 2 0 3
      vertex 10 3.1 3
    endloop
  endfacet
  facet normal 0 -0 1
    outer loop
      vertex 7.48853 4.55 3
      vertex 2 0 3
      vertex 8.55 3.48853 3
    endloop
  endfacet
  facet normal 0 0 1
    outer loop
      vertex 7.48853 7.45 3
      vertex 8.55 8.51147 3
      vertex 2 13 3
    endloop
  endfacet
  facet normal 0 -0 1
    outer loop
      vertex 12.9 6 3
      vertex 12.5115 4.55 3
      vertex 16 0 3
    endloop
  endfacet
  facet normal 1 0 -0
    outer loop
      vertex 16 0 3
      vertex 16 0 0
      vertex 16 13 0
    endloop
  endfacet
  facet normal 1 0 0
    outer loop
      vertex 16 13 3
      vertex 16 0 3
      vertex 16 13 0
    endloop
  endfacet
  facet normal 0 1 0
    outer loop
      vertex 16 13 3
      vertex 16 13 0
      vertex 2 13 3
    endloop
  endfacet
  facet normal 0 1 0
    outer loop
      vertex 0 13 0
      vertex 0 13 10
      vertex 2 13 3
    endloop
  endfacet
  facet normal 0 1 0
    outer loop
      vertex 0 13 0
      vertex 2 13 3
      vertex 16 13 0
    endloop
  endfacet
  facet normal 0 1 0
    outer loop
      vertex 2 13 3
      vertex 0 13 10
      vertex 2 13 10
    endloop
  endfacet
  facet normal -1 -0 -0
    outer loop
      vertex 0 2 0
      vertex 0 2 10
      vertex 0 13 0
    endloop
  endfacet
  facet normal -1 0 0
    outer loop
      vertex 0 13 0
      vertex 0 2 10
      vertex 0 13 10
    endloop
  endfacet
  facet normal 0.965926 -0.258819 0
    outer loop
      vertex 7.48853 7.45 0
      vertex 7.48853 7.45 3
      vertex 7.1 6 3
    endloop
  endfacet
  facet normal 0.965926 -0.258819 0
    outer loop
      vertex 7.1 6 0
      vertex 7.48853 7.45 0
      vertex 7.1 6 3
    endloop
  endfacet
  facet normal 0.965926 0.258819 0
    outer loop
      vertex 7.1 6 3
      vertex 7.48853 4.55 3
      vertex 7.48853 4.55 0
    endloop
  endfacet
  facet normal 0.965926 0.258819 0
    outer loop
      vertex 7.1 6 0
      vertex 7.1 6 3
      vertex 7.48853 4.55 0
    endloop
  endfacet
  facet normal 0.707107 -0.707107 0
    outer loop
      vertex 8.55 8.51147 0
      vertex 8.55 8.51147 3
      vertex 7.48853 7.45 3
    endloop
  endfacet
  facet normal 0.707107 -0.707107 0
    outer loop
      vertex 7.48853 7.45 0
      vertex 8.55 8.51147 0
      vertex 7.48853 7.45 3
    endloop
  endfacet
  facet normal 0.258819 -0.965926 0
    outer loop
      vertex 10 8.9 0
      vertex 10 8.9 3
      vertex 8.55 8.51147 3
    endloop
  endfacet
  facet normal 0.258819 -0.965926 0
    outer loop
      vertex 8.55 8.51147 0
      vertex 10 8.9 0
      vertex 8.55 8.51147 3
    endloop
  endfacet
  facet normal -0.258819 -0.965926 -0
    outer loop
      vertex 11.45 8.51147 0
      vertex 11.45 8.51147 3
      vertex 10 8.9 3
    endloop
  endfacet
  facet normal -0.258819 -0.965926 -0
    outer loop
      vertex 10 8.9 0
      vertex 11.45 8.51147 0
      vertex 10 8.9 3
    endloop
  endfacet
  facet normal -0.707107 -0.707107 -0
    outer loop
      vertex 12.5115 7.45 0
      vertex 12.5115 7.45 3
      vertex 11.45 8.51147 3
    endloop
  endfacet
  facet normal -0.707107 -0.707107 -0
    outer loop
      vertex 11.45 8.51147 0
      vertex 12.5115 7.45 0
      vertex 11.45 8.51147 3
    endloop
  endfacet
  facet normal -0.965926 -0.258819 0
    outer loop
      vertex 12.9 6 3
      vertex 12.5115 7.45 3
      vertex 12.9 6 0
    endloop
  endfacet
  facet normal -0.965926 -0.258819 0
    outer loop
      vertex 12.9 6 0
      vertex 12.5115 7.45 3
      vertex 12.5115 7.45 0
    endloop
  endfacet
  facet normal -0.965926 0.258819 0
    outer loop
      vertex 12.9 6 3
      vertex 12.9 6 0
      vertex 12.5115 4.55 3
    endloop
  endfacet
  facet normal -0.965926 0.258819 0
    outer loop
      vertex 12.5115 4.55 3
      vertex 12.9 6 0
      vertex 12.5115 4.55 0
    endloop
  endfacet
  facet normal -0.707107 0.707107 0
    outer loop
      vertex 12.5115 4.55 3
      vertex 12.5115 4.55 0
      vertex 11.45 3.48853 3
    endloop
  endfacet
  facet normal -0.707107 0.707107 0
    outer loop
      vertex 11.45 3.48853 3
      vertex 12.5115 4.55 0
      vertex 11.45 3.48853 0
    endloop
  endfacet
  facet normal -0.258819 0.965926 0
    outer loop
      vertex 11.45 3.48853 3
      vertex 11.45 3.48853 0
      vertex 10 3.1 3
    endloop
  endfacet
  facet normal -0.258819 0.965926 0
    outer loop
      vertex 10 3.1 3
      vertex 11.45 3.48853 0
      vertex 10 3.1 0
    endloop
  endfacet
  facet normal 0.258819 0.965926 -0
    outer loop
      vertex 10 3.1 3
      vertex 10 3.1 0
      vertex 8.55 3.48853 3
    endloop
  endfacet
  facet normal 0.258819 0.965926 -0
    outer loop
      vertex 8.55 3.48853 3
      vertex 10 3.1 0
      vertex 8.55 3.48853 0
    endloop
  endfacet
  facet normal 0.707107 0.707107 -0
    outer loop
      vertex 8.55 3.48853 3
      vertex 8.55 3.48853 0
      vertex 7.48853 4.55 3
    endloop
  endfacet
  facet normal 0.707107 0.707107 -0
    outer loop
      vertex 7.48853 4.55 3
      vertex 8.55 3.48853 0
      vertex 7.48853 4.55 0
    endloop
  endfacet
endsolid OpenSCAD_Model
